<?xml version="1.0" encoding="UTF-8"?>
<svg xmlns="http://www.w3.org/2000/svg" xmlns:xlink="http://www.w3.org/1999/xlink" width="100px" height="56px" viewBox="0 0 99 56" version="1.1">
<g id="surface1">
<path style="fill-rule:nonzero;fill:rgb(100%,74.901962%,0%);fill-opacity:1;stroke-width:1;stroke-linecap:butt;stroke-linejoin:miter;stroke:rgb(100%,74.901962%,0%);stroke-opacity:1;stroke-miterlimit:4;" d="M 1033.636364 309.626116 L 1032.045455 309.701451 L 1030.530303 309.776786 L 1029.015152 309.927455 L 1027.575758 310.15346 L 1026.212121 310.454799 L 1024.924242 310.831473 L 1023.712121 311.283482 L 1022.575758 311.735491 L 1021.439394 312.262835 L 1020.378788 312.790179 L 1018.257576 314.146205 L 1017.121212 314.899554 L 1016.060606 315.728237 L 1014.924242 316.632254 L 1013.863636 317.536272 L 1012.878788 318.44029 L 1011.893939 319.419643 L 1010.909091 320.47433 L 1010 321.604353 L 1009.166667 322.80971 L 1008.333333 323.939732 L 1007.575758 325.145089 L 1006.742424 327.480469 L 1005.227273 336.897321 L 1003.939394 346.841518 L 1002.651515 356.710379 L 1002.121212 360.477121 L 1000.984848 370.421317 L 999.772727 380.365513 L 998.560606 390.234375 L 997.348485 400.178571 L 990.530303 459.165737 L 957.575758 746.944754 L 956.515152 756.060268 L 954.242424 775.948661 L 953.939394 778.811384 L 953.030303 787.324219 L 952.954545 788.75558 L 953.030303 789.132254 L 953.181818 789.584263 L 953.636364 790.036272 L 954.318182 790.488281 L 955.378788 790.789621 L 956.893939 791.015625 L 958.712121 791.09096 L 960.909091 791.166295 L 963.409091 791.09096 L 966.136364 791.015625 L 968.863636 790.864955 L 971.515152 790.638951 L 973.939394 790.337612 L 976.060606 790.036272 L 978.030303 789.734933 L 979.772727 789.358259 L 981.439394 788.981585 L 984.318182 788.077567 L 985.606061 787.550223 L 988.030303 786.194196 L 989.166667 785.365513 L 990.227273 784.461496 L 991.439394 782.201451 L 993.409091 772.709263 L 994.848485 762.840402 L 996.363636 752.896205 L 1032.045455 452.234933 L 1038.636364 393.775112 L 1039.69697 383.830915 L 1040.681818 373.886719 L 1042.80303 353.998326 L 1043.409091 348.649554 L 1045.227273 328.761161 L 1045.606061 324.99442 L 1045.909091 315.728237 L 1045.30303 313.618862 L 1044.393939 312.790179 L 1043.409091 312.112165 L 1042.19697 311.434152 L 1040.984848 310.906808 L 1039.621212 310.454799 L 1036.742424 309.852121 L 1035.227273 309.701451 Z M 1032.045455 452.234933 L 1002.954545 701.668527 C 1013.030303 615.560826 1023.560606 527.871094 1032.045455 452.234933 Z M 1032.045455 452.234933 " transform="matrix(0.0515625,0,0,0.0518519,0,0)"/>
<path style=" stroke:none;fill-rule:nonzero;fill:rgb(21.960784%,32.156864%,98.431373%);fill-opacity:1;" d="M 44.617188 25.769531 L 44.773438 25.703125 L 44.9375 25.632812 L 45.097656 25.566406 L 45.433594 25.433594 L 45.949219 25.234375 L 46.128906 25.167969 L 46.304688 25.105469 L 46.488281 25.042969 L 46.667969 24.976562 L 47.035156 24.851562 L 47.222656 24.792969 L 47.410156 24.730469 L 47.785156 24.613281 L 47.976562 24.554688 L 48.167969 24.5 L 48.359375 24.441406 L 48.550781 24.386719 L 48.742188 24.335938 L 48.933594 24.28125 L 49.125 24.234375 L 49.316406 24.183594 L 49.511719 24.136719 L 49.703125 24.089844 L 49.894531 24.046875 L 50.082031 24.003906 L 50.273438 23.964844 L 50.460938 23.925781 L 50.828125 23.855469 L 51.007812 23.820312 L 51.074219 23.808594 L 51.1875 23.789062 L 51.53125 23.726562 L 51.859375 23.671875 L 52.019531 23.648438 L 52.179688 23.621094 L 52.355469 23.59375 L 52.554688 23.558594 L 52.777344 23.519531 L 53.03125 23.476562 L 53.214844 23.449219 L 53.316406 23.433594 L 53.621094 23.394531 L 53.953125 23.355469 L 54.640625 23.292969 L 54.972656 23.265625 L 55.277344 23.238281 L 55.550781 23.210938 L 55.785156 23.179688 L 55.972656 23.144531 L 56.105469 23.105469 L 56.203125 23.042969 L 56.273438 22.957031 L 56.328125 22.828125 L 56.386719 22.652344 L 56.445312 22.4375 L 56.5 22.207031 L 56.554688 21.96875 L 56.601562 21.742188 L 56.644531 21.527344 L 56.679688 21.332031 L 56.710938 21.15625 L 56.730469 21.007812 L 56.730469 20.882812 L 56.699219 20.777344 L 56.628906 20.695312 L 56.503906 20.632812 L 56.339844 20.585938 L 56.152344 20.554688 L 55.957031 20.53125 L 55.761719 20.519531 L 55.558594 20.511719 L 55.328125 20.511719 L 55.0625 20.515625 L 54.75 20.523438 L 54.402344 20.539062 L 54.035156 20.5625 L 53.667969 20.59375 L 53.53125 20.609375 L 53.3125 20.632812 L 52.980469 20.679688 L 52.667969 20.726562 L 52.386719 20.773438 L 52.132812 20.820312 L 51.910156 20.859375 L 51.699219 20.894531 L 51.5 20.933594 L 51.402344 20.949219 L 51.300781 20.964844 L 51.101562 21 L 50.898438 21.035156 L 50.695312 21.074219 L 50.265625 21.160156 L 50.042969 21.207031 L 49.8125 21.257812 L 49.578125 21.3125 L 49.339844 21.371094 L 49.097656 21.429688 L 48.847656 21.496094 L 48.597656 21.566406 L 48.34375 21.636719 L 48.089844 21.714844 L 47.839844 21.789062 L 47.347656 21.945312 L 47.109375 22.027344 L 46.867188 22.109375 L 46.382812 22.28125 L 46.140625 22.371094 L 45.894531 22.464844 L 45.648438 22.5625 L 45.40625 22.660156 L 45.160156 22.761719 L 44.914062 22.867188 L 44.667969 22.976562 L 44.417969 23.089844 L 44.171875 23.207031 L 43.921875 23.328125 L 43.675781 23.453125 L 43.425781 23.578125 L 43.175781 23.710938 L 42.929688 23.847656 L 42.679688 23.988281 L 42.429688 24.136719 L 42.183594 24.285156 L 41.933594 24.441406 L 41.683594 24.601562 L 41.433594 24.769531 L 41.1875 24.9375 L 40.9375 25.117188 L 40.691406 25.296875 L 40.441406 25.484375 L 40.195312 25.675781 L 39.949219 25.875 L 39.703125 26.082031 L 39.457031 26.292969 L 39.21875 26.507812 L 38.984375 26.726562 L 38.757812 26.949219 L 38.539062 27.175781 L 38.332031 27.40625 L 38.136719 27.636719 L 37.957031 27.871094 L 37.792969 28.101562 L 37.644531 28.335938 L 37.507812 28.570312 L 37.386719 28.804688 L 37.277344 29.039062 L 37.1875 29.273438 L 37.109375 29.507812 L 37.042969 29.742188 L 36.992188 29.976562 L 36.957031 30.210938 L 36.9375 30.441406 L 36.933594 30.671875 L 36.941406 30.902344 L 36.960938 31.132812 L 37 31.359375 L 37.050781 31.585938 L 37.113281 31.808594 L 37.195312 32.03125 L 37.289062 32.25 L 37.398438 32.464844 L 37.519531 32.679688 L 37.65625 32.894531 L 37.808594 33.101562 L 37.972656 33.308594 L 38.152344 33.511719 L 38.34375 33.710938 L 38.554688 33.90625 L 38.773438 34.097656 L 39.003906 34.28125 L 39.230469 34.457031 L 39.453125 34.617188 L 39.667969 34.761719 L 39.867188 34.894531 L 40.066406 35.015625 L 40.261719 35.132812 L 40.460938 35.242188 L 40.867188 35.453125 L 41.070312 35.554688 L 41.484375 35.742188 L 41.695312 35.835938 L 41.902344 35.921875 L 42.113281 36.007812 L 42.324219 36.089844 L 42.746094 36.246094 L 43.167969 36.394531 L 43.378906 36.464844 L 43.585938 36.53125 L 43.796875 36.597656 L 44 36.664062 L 44.207031 36.726562 L 44.410156 36.785156 L 44.808594 36.902344 L 45.003906 36.957031 L 45.386719 37.066406 L 45.570312 37.117188 L 45.753906 37.171875 L 45.933594 37.222656 L 46.109375 37.269531 L 46.285156 37.320312 L 46.464844 37.375 L 46.65625 37.429688 L 46.859375 37.488281 L 47.074219 37.554688 L 47.292969 37.617188 L 47.753906 37.75 L 48.46875 37.949219 L 48.953125 38.082031 L 49.199219 38.148438 L 49.433594 38.214844 L 49.441406 38.21875 L 49.6875 38.289062 L 49.929688 38.359375 L 50.175781 38.429688 L 50.417969 38.503906 L 50.894531 38.660156 L 51.132812 38.742188 L 51.363281 38.824219 L 51.402344 38.839844 L 51.59375 38.910156 L 51.820312 39 L 52.042969 39.089844 L 52.257812 39.1875 L 52.46875 39.285156 L 52.675781 39.390625 L 52.875 39.496094 L 53.0625 39.601562 L 53.242188 39.714844 L 53.410156 39.820312 L 53.554688 39.921875 L 53.679688 40.007812 L 53.773438 40.078125 L 53.847656 40.136719 L 53.90625 40.183594 L 53.953125 40.226562 L 53.996094 40.265625 L 54.191406 40.460938 L 54.226562 40.5 L 54.257812 40.535156 L 54.285156 40.566406 L 54.308594 40.59375 L 54.328125 40.617188 L 54.339844 40.640625 L 54.351562 40.660156 L 54.359375 40.679688 L 54.363281 40.699219 L 54.363281 40.714844 L 54.355469 40.738281 L 54.34375 40.757812 L 54.332031 40.78125 L 54.3125 40.804688 L 54.289062 40.828125 L 54.265625 40.855469 L 54.238281 40.882812 L 54.207031 40.910156 L 54.171875 40.9375 L 54.101562 41 L 54.058594 41.03125 L 54.019531 41.0625 L 53.976562 41.097656 L 53.929688 41.128906 L 53.882812 41.164062 L 53.835938 41.195312 L 53.789062 41.230469 L 53.738281 41.261719 L 53.6875 41.296875 L 53.640625 41.328125 L 53.589844 41.359375 L 53.539062 41.394531 L 53.488281 41.421875 L 53.4375 41.453125 L 53.390625 41.484375 L 53.339844 41.511719 L 53.246094 41.566406 L 53.160156 41.613281 L 53.125 41.632812 L 53.09375 41.648438 L 53.039062 41.679688 L 53.015625 41.695312 L 52.988281 41.710938 L 52.957031 41.730469 L 52.925781 41.746094 L 52.890625 41.765625 L 52.851562 41.785156 L 52.816406 41.804688 L 52.773438 41.828125 L 52.730469 41.847656 L 52.6875 41.871094 L 52.546875 41.941406 L 52.496094 41.964844 L 52.441406 41.992188 L 52.390625 42.015625 L 52.335938 42.042969 L 52.28125 42.066406 L 52.046875 42.175781 L 51.988281 42.199219 L 51.925781 42.226562 L 51.867188 42.253906 L 51.617188 42.363281 L 51.550781 42.390625 L 51.46875 42.425781 L 51.363281 42.46875 L 51.214844 42.53125 L 51.015625 42.609375 L 50.777344 42.707031 L 50.511719 42.8125 L 50.226562 42.925781 L 49.945312 43.035156 L 49.65625 43.148438 L 49.371094 43.253906 L 49.085938 43.363281 L 48.796875 43.472656 L 48.511719 43.578125 L 48.222656 43.6875 L 47.355469 44.003906 L 47.0625 44.109375 L 46.773438 44.210938 L 46.480469 44.316406 L 46.191406 44.421875 L 45.605469 44.632812 L 45.308594 44.742188 L 45.015625 44.847656 L 44.71875 44.953125 L 44.425781 45.0625 L 43.535156 45.390625 L 42.941406 45.617188 L 42.640625 45.730469 L 42.34375 45.847656 L 42.042969 45.964844 L 41.746094 46.082031 L 41.460938 46.195312 L 41.203125 46.296875 L 40.984375 46.386719 L 40.8125 46.457031 L 40.683594 46.511719 L 40.582031 46.554688 L 40.496094 46.589844 L 40.414062 46.625 L 40.339844 46.65625 L 40.199219 46.71875 L 40.132812 46.746094 L 40.070312 46.777344 L 40.007812 46.804688 L 39.890625 46.859375 L 39.835938 46.886719 L 39.777344 46.914062 L 39.722656 46.941406 L 39.671875 46.96875 L 39.617188 46.996094 L 39.507812 47.058594 L 39.453125 47.085938 L 39.398438 47.121094 L 39.339844 47.152344 L 39.28125 47.1875 L 39.222656 47.226562 L 39.160156 47.265625 L 39.09375 47.304688 L 39.023438 47.347656 L 38.953125 47.394531 L 38.878906 47.441406 L 38.800781 47.492188 L 38.71875 47.542969 L 38.632812 47.597656 L 38.542969 47.65625 L 38.457031 47.714844 L 38.375 47.769531 L 38.292969 47.820312 L 38.222656 47.871094 L 38.148438 47.921875 L 38.082031 47.96875 L 38.011719 48.019531 L 37.878906 48.121094 L 37.816406 48.171875 L 37.75 48.222656 L 37.6875 48.277344 L 37.628906 48.328125 L 37.566406 48.382812 L 37.507812 48.433594 L 37.453125 48.484375 L 37.394531 48.539062 L 37.339844 48.589844 L 37.238281 48.691406 L 37.144531 48.792969 L 37.101562 48.839844 L 37.058594 48.890625 L 37.019531 48.9375 L 36.984375 48.984375 L 36.949219 49.027344 L 36.914062 49.074219 L 36.886719 49.117188 L 36.859375 49.15625 L 36.835938 49.199219 L 36.816406 49.238281 L 36.796875 49.273438 L 36.78125 49.308594 L 36.769531 49.34375 L 36.761719 49.375 L 36.757812 49.402344 L 36.757812 49.433594 L 36.761719 49.457031 L 36.769531 49.480469 L 36.78125 49.503906 L 36.804688 49.542969 L 36.816406 49.558594 L 36.832031 49.578125 L 36.847656 49.59375 L 36.878906 49.632812 L 36.898438 49.652344 L 36.914062 49.671875 L 37.046875 49.804688 L 37.074219 49.828125 L 37.097656 49.851562 L 37.152344 49.898438 L 37.179688 49.925781 L 37.207031 49.949219 L 37.238281 49.976562 L 37.265625 50 L 37.296875 50.027344 L 37.324219 50.050781 L 37.355469 50.078125 L 37.386719 50.101562 L 37.421875 50.128906 L 37.453125 50.152344 L 37.484375 50.179688 L 37.546875 50.226562 L 37.578125 50.253906 L 37.671875 50.324219 L 37.699219 50.347656 L 37.730469 50.371094 L 37.757812 50.390625 L 37.785156 50.414062 L 37.8125 50.433594 L 37.84375 50.457031 L 37.871094 50.476562 L 37.910156 50.503906 L 37.953125 50.535156 L 38.011719 50.574219 L 38.074219 50.613281 L 38.144531 50.644531 L 38.214844 50.664062 L 38.285156 50.660156 L 38.351562 50.644531 L 38.410156 50.617188 L 38.464844 50.589844 L 38.507812 50.566406 L 38.546875 50.542969 L 38.578125 50.523438 L 38.613281 50.503906 L 38.644531 50.480469 L 38.679688 50.460938 L 38.714844 50.4375 L 38.75 50.417969 L 38.785156 50.394531 L 38.824219 50.367188 L 38.863281 50.34375 L 38.898438 50.320312 L 38.941406 50.292969 L 38.980469 50.265625 L 39.019531 50.242188 L 39.0625 50.214844 L 39.105469 50.183594 L 39.164062 50.148438 L 39.246094 50.097656 L 39.367188 50.019531 L 39.535156 49.917969 L 39.742188 49.792969 L 39.976562 49.65625 L 40.222656 49.515625 L 40.472656 49.378906 L 40.71875 49.246094 L 40.96875 49.121094 L 41.21875 49 L 41.71875 48.773438 L 41.96875 48.664062 L 42.21875 48.558594 L 42.46875 48.457031 L 42.71875 48.359375 L 43.480469 48.078125 L 43.734375 47.992188 L 43.988281 47.902344 L 44.503906 47.730469 L 44.761719 47.640625 L 45.019531 47.558594 L 45.28125 47.46875 L 45.539062 47.382812 L 45.804688 47.296875 L 46.066406 47.207031 L 46.597656 47.027344 L 46.867188 46.933594 L 47.40625 46.738281 L 47.675781 46.636719 L 47.949219 46.535156 L 48.210938 46.433594 L 48.46875 46.332031 L 48.714844 46.238281 L 48.953125 46.148438 L 49.1875 46.054688 L 49.421875 45.964844 L 49.65625 45.867188 L 49.898438 45.769531 L 50.136719 45.667969 L 50.378906 45.566406 L 50.625 45.457031 L 50.867188 45.347656 L 51.113281 45.238281 L 51.359375 45.125 L 51.601562 45.011719 L 51.84375 44.894531 L 52.082031 44.777344 L 52.320312 44.65625 L 52.554688 44.539062 L 52.789062 44.417969 L 53.015625 44.296875 L 53.238281 44.175781 L 53.457031 44.054688 L 53.671875 43.933594 L 53.878906 43.8125 L 54.078125 43.691406 L 54.273438 43.570312 L 54.457031 43.453125 L 54.636719 43.332031 L 54.808594 43.214844 L 54.96875 43.101562 L 55.121094 42.988281 L 55.261719 42.875 L 55.394531 42.765625 L 55.511719 42.65625 L 55.621094 42.554688 L 55.71875 42.453125 L 55.800781 42.363281 L 55.867188 42.277344 L 55.925781 42.203125 L 55.976562 42.125 L 56.019531 42.050781 L 56.058594 41.972656 L 56.097656 41.890625 L 56.132812 41.808594 L 56.195312 41.636719 L 56.222656 41.542969 L 56.25 41.453125 L 56.269531 41.359375 L 56.289062 41.261719 L 56.304688 41.164062 L 56.316406 41.066406 L 56.328125 40.964844 L 56.332031 40.863281 L 56.335938 40.757812 L 56.335938 40.65625 L 56.332031 40.550781 L 56.324219 40.445312 L 56.3125 40.339844 L 56.28125 40.128906 L 56.257812 40.023438 L 56.230469 39.917969 L 56.199219 39.8125 L 56.164062 39.707031 L 56.125 39.605469 L 56.082031 39.5 L 56.035156 39.398438 L 55.984375 39.296875 L 55.925781 39.195312 L 55.863281 39.09375 L 55.792969 38.992188 L 55.714844 38.882812 L 55.621094 38.769531 L 55.519531 38.652344 L 55.410156 38.535156 L 55.292969 38.414062 L 55.167969 38.296875 L 55.039062 38.179688 L 54.902344 38.066406 L 54.757812 37.953125 L 54.605469 37.839844 L 54.441406 37.726562 L 54.273438 37.617188 L 54.09375 37.503906 L 53.90625 37.394531 L 53.707031 37.285156 L 53.5 37.175781 L 53.28125 37.0625 L 53.050781 36.953125 L 52.808594 36.839844 L 52.554688 36.726562 L 52.285156 36.613281 L 52.007812 36.5 L 51.714844 36.382812 L 51.710938 36.382812 L 51.40625 36.261719 L 51.085938 36.144531 L 50.75 36.019531 L 50.398438 35.894531 L 50.03125 35.769531 L 49.722656 35.664062 L 49.648438 35.640625 L 49.25 35.507812 L 48.832031 35.371094 L 48.398438 35.234375 L 47.949219 35.089844 L 47.484375 34.945312 L 47.027344 34.804688 L 46.601562 34.675781 L 46.230469 34.5625 L 45.933594 34.472656 L 45.695312 34.402344 L 45.496094 34.34375 L 45.320312 34.289062 L 45.144531 34.238281 L 44.089844 33.910156 L 43.914062 33.851562 L 43.742188 33.792969 L 43.566406 33.734375 L 43.222656 33.617188 L 42.878906 33.492188 L 42.542969 33.367188 L 42.375 33.300781 L 42.210938 33.238281 L 42.050781 33.167969 L 41.886719 33.101562 L 41.417969 32.890625 L 41.265625 32.816406 L 41.117188 32.746094 L 40.972656 32.667969 L 40.828125 32.59375 L 40.6875 32.515625 L 40.550781 32.4375 L 40.421875 32.359375 L 40.304688 32.285156 L 40.203125 32.222656 L 40.117188 32.167969 L 40.050781 32.125 L 39.992188 32.085938 L 39.890625 32.007812 L 39.835938 31.964844 L 39.785156 31.925781 L 39.730469 31.882812 L 39.679688 31.835938 L 39.628906 31.792969 L 39.574219 31.746094 L 39.421875 31.605469 L 39.375 31.554688 L 39.328125 31.507812 L 39.28125 31.457031 L 39.234375 31.410156 L 39.148438 31.308594 L 39.105469 31.261719 L 39.066406 31.210938 L 39.027344 31.164062 L 38.992188 31.113281 L 38.929688 31.019531 L 38.875 30.925781 L 38.851562 30.882812 L 38.8125 30.796875 L 38.796875 30.753906 L 38.785156 30.714844 L 38.777344 30.667969 L 38.777344 30.613281 L 38.785156 30.542969 L 38.800781 30.453125 L 38.824219 30.351562 L 38.859375 30.234375 L 38.902344 30.113281 L 38.953125 29.988281 L 39.015625 29.863281 L 39.085938 29.738281 L 39.167969 29.609375 L 39.253906 29.484375 L 39.347656 29.355469 L 39.449219 29.230469 L 39.558594 29.101562 L 39.671875 28.976562 L 39.792969 28.847656 L 39.917969 28.722656 L 40.050781 28.597656 L 40.183594 28.476562 L 40.324219 28.351562 L 40.464844 28.230469 L 40.609375 28.113281 L 40.90625 27.878906 L 41.058594 27.765625 L 41.363281 27.546875 L 41.515625 27.441406 L 41.667969 27.339844 L 41.820312 27.242188 L 41.972656 27.148438 L 42.121094 27.054688 L 42.269531 26.96875 L 42.414062 26.886719 L 42.554688 26.804688 L 42.695312 26.730469 L 42.832031 26.65625 L 43.089844 26.515625 L 43.214844 26.449219 L 43.34375 26.382812 L 43.46875 26.3125 L 43.875 26.109375 L 44.015625 26.042969 L 44.160156 25.972656 L 44.3125 25.90625 L 44.460938 25.835938 L 44.617188 25.769531 "/>
<path style="fill-rule:nonzero;fill:rgb(100%,74.901962%,0%);fill-opacity:1;stroke-width:1;stroke-linecap:butt;stroke-linejoin:round;stroke:rgb(100%,74.901962%,0%);stroke-opacity:1;stroke-miterlimit:4;" d="M 1018.106061 291.847098 L 1018.181818 291.847098 L 1018.257576 291.771763 L 1018.409091 291.696429 L 1018.560606 291.545759 L 1018.787879 291.470424 L 1019.015152 291.319754 L 1019.242424 291.09375 L 1019.545455 290.94308 L 1019.772727 290.717076 L 1020.075758 290.566406 L 1020.454545 290.265067 L 1020.757576 290.039062 L 1021.136364 289.813058 L 1021.590909 289.511719 L 1021.969697 289.210379 L 1022.424242 288.90904 L 1022.80303 288.607701 L 1023.333333 288.231027 L 1023.787879 287.929688 L 1024.242424 287.553013 L 1025.30303 286.799665 L 1025.833333 286.347656 L 1026.363636 285.970982 L 1026.893939 285.518973 L 1027.5 285.066964 L 1028.030303 284.614955 L 1028.636364 284.087612 L 1029.242424 283.635603 L 1029.848485 283.108259 L 1030.454545 282.65625 L 1032.272727 281.074219 L 1032.954545 280.47154 L 1033.560606 279.944196 L 1034.166667 279.341518 L 1034.848485 278.738839 L 1035.454545 278.136161 L 1036.136364 277.533482 L 1036.742424 276.930804 L 1037.424242 276.328125 L 1038.030303 275.650112 L 1038.712121 275.047433 L 1039.924242 273.691406 L 1040.606061 273.013393 L 1043.030303 270.301339 L 1043.636364 269.547991 L 1044.242424 268.869978 L 1045.454545 267.363281 L 1045.984848 266.609933 L 1046.590909 265.93192 L 1047.121212 265.178571 L 1047.651515 264.349888 L 1048.181818 263.59654 L 1048.636364 262.843192 L 1049.166667 262.089844 L 1049.621212 261.261161 L 1050.530303 259.754464 L 1050.984848 259.076451 L 1051.363636 258.323103 L 1051.742424 257.645089 L 1052.348485 256.439732 L 1052.575758 255.912388 L 1052.878788 255.385045 L 1053.106061 254.933036 L 1053.257576 254.481027 L 1053.484848 254.029018 L 1053.636364 253.577009 L 1053.863636 253.125 L 1054.015152 252.748326 L 1054.242424 252.296317 L 1054.545455 251.392299 L 1054.772727 250.864955 L 1055.075758 249.960938 L 1055.30303 249.433594 L 1055.454545 248.981585 L 1055.606061 248.454241 L 1055.833333 248.002232 L 1057.19697 243.256138 L 1057.348485 242.65346 L 1057.5 242.126116 L 1057.651515 241.523438 L 1057.727273 240.996094 L 1058.030303 239.790737 L 1058.106061 239.188058 L 1058.257576 238.660714 L 1058.333333 238.058036 L 1058.484848 237.455357 L 1058.560606 236.852679 L 1058.636364 236.174665 L 1058.863636 234.366629 L 1058.939394 233.688616 L 1059.015152 233.085938 L 1059.090909 232.407924 L 1059.090909 231.805246 L 1059.166667 231.127232 L 1059.166667 230.449219 L 1059.242424 229.771205 L 1059.242424 225.025112 L 1059.166667 224.347098 L 1059.166667 223.669085 L 1059.090909 222.915737 L 1059.015152 222.237723 L 1058.939394 221.484375 L 1058.863636 220.806362 L 1058.712121 219.299665 L 1058.560606 218.621652 L 1058.484848 217.868304 L 1058.333333 217.19029 L 1058.257576 216.436942 L 1057.651515 213.724888 L 1057.575758 213.12221 L 1057.121212 211.314174 L 1056.893939 210.711496 L 1056.742424 210.108817 L 1056.590909 209.581473 L 1056.439394 208.978795 L 1056.212121 208.376116 L 1055.909091 207.170759 L 1055.681818 206.643415 L 1055.454545 206.040737 L 1055.30303 205.438058 L 1055.075758 204.760045 L 1054.848485 204.157366 L 1054.69697 203.554688 L 1054.242424 202.34933 L 1054.015152 201.671317 L 1053.560606 200.46596 L 1053.333333 199.787946 L 1052.878788 198.582589 L 1052.651515 197.904576 L 1052.424242 197.301897 L 1052.19697 196.623884 L 1051.742424 195.418527 L 1051.515152 194.740513 L 1051.742424 195.117188 L 1052.045455 195.418527 L 1052.272727 195.719866 L 1052.5 196.09654 L 1052.80303 196.473214 L 1053.030303 196.849888 L 1053.333333 197.226562 L 1053.939394 198.13058 L 1054.242424 198.657924 L 1054.621212 199.185268 L 1054.924242 199.712612 L 1055.30303 200.31529 L 1055.681818 200.842634 L 1055.984848 201.445312 L 1056.363636 202.123326 L 1056.742424 202.726004 L 1057.121212 203.404018 L 1057.424242 204.006696 L 1057.80303 204.68471 L 1058.106061 205.362723 L 1058.484848 206.040737 L 1058.787879 206.794085 L 1059.090909 207.472098 L 1059.469697 208.225446 L 1060.378788 210.485491 L 1060.984848 212.142857 L 1061.212121 212.97154 L 1061.515152 213.800223 L 1061.742424 214.628906 L 1061.969697 215.532924 L 1062.272727 216.436942 L 1062.5 217.34096 L 1062.727273 218.320312 L 1062.954545 219.22433 L 1063.106061 220.203683 L 1063.333333 221.183036 L 1063.484848 222.237723 L 1063.636364 223.217076 L 1063.787879 224.271763 L 1063.939394 225.251116 L 1064.090909 226.305804 L 1064.166667 227.285156 L 1064.318182 228.264509 L 1064.393939 229.168527 L 1064.469697 229.99721 L 1064.469697 230.825893 L 1064.545455 231.654576 L 1064.545455 234.517299 L 1064.469697 235.270647 L 1064.393939 235.948661 L 1064.393939 236.626674 L 1064.318182 237.304688 L 1064.242424 238.058036 L 1064.090909 239.414062 L 1063.939394 240.092076 L 1063.863636 240.845424 L 1063.560606 242.201451 L 1063.484848 242.879464 L 1062.878788 245.591518 L 1062.651515 246.269531 L 1062.5 246.947545 L 1062.348485 247.550223 L 1062.121212 248.228237 L 1061.969697 248.90625 L 1061.742424 249.508929 L 1061.515152 250.186942 L 1061.363636 250.789621 L 1060.909091 251.994978 L 1060.681818 252.672991 L 1060.227273 253.878348 L 1060 254.405692 L 1059.545455 255.611049 L 1059.090909 256.665737 L 1058.863636 257.268415 L 1058.409091 258.323103 L 1058.181818 258.775112 L 1057.878788 259.302455 L 1057.651515 259.829799 L 1056.287879 262.541853 L 1055.151515 264.425223 L 1054.69697 265.329241 L 1054.621212 265.555246 L 1054.621212 265.856585 L 1054.69697 265.856585 L 1054.848485 265.93192 L 1055.30303 265.78125 L 1055.681818 265.705915 L 1056.439394 265.404576 L 1056.893939 265.178571 L 1057.954545 264.726562 L 1058.560606 264.425223 L 1059.242424 264.123884 L 1059.924242 263.74721 L 1060.681818 263.370536 L 1061.439394 262.918527 L 1062.272727 262.391183 L 1064.090909 261.185826 L 1065.075758 260.507812 L 1066.136364 259.829799 L 1068.257576 258.172433 L 1069.393939 257.268415 L 1070.530303 256.289062 L 1071.742424 255.234375 L 1074.166667 252.97433 L 1076.590909 250.563616 L 1077.727273 249.358259 L 1080 246.796875 L 1081.060606 245.516183 L 1082.045455 244.235491 L 1082.954545 243.030134 L 1083.863636 241.749442 L 1084.69697 240.46875 L 1085.530303 239.112723 L 1087.045455 236.551339 L 1088.409091 233.839286 L 1089.015152 232.483259 L 1089.621212 231.051897 L 1090.151515 229.620536 L 1090.681818 228.113839 L 1091.212121 226.531808 L 1091.666667 224.949777 L 1092.121212 223.292411 L 1092.5 221.635045 L 1092.878788 219.902344 L 1093.181818 218.094308 L 1093.636364 214.628906 L 1093.787879 212.820871 L 1093.863636 211.163504 L 1093.863636 207.848772 L 1093.712121 206.342076 L 1093.636364 204.835379 L 1093.484848 203.479353 L 1093.257576 202.198661 L 1093.106061 200.993304 L 1092.878788 199.863281 L 1092.575758 198.055246 L 1092.348485 197.301897 L 1092.045455 195.945871 L 1091.893939 195.343192 L 1091.742424 194.815848 L 1091.590909 194.21317 L 1091.363636 193.685826 L 1091.212121 193.083147 L 1090.984848 192.555804 L 1090.833333 192.02846 L 1090.606061 191.425781 L 1090.378788 190.898438 L 1090.151515 190.295759 L 1089.469697 188.713728 L 1089.166667 188.186384 L 1088.712121 187.131696 L 1088.409091 186.679688 L 1088.106061 186.152344 L 1087.878788 185.625 L 1087.575758 185.172991 L 1087.272727 184.645647 L 1086.666667 183.741629 L 1086.363636 183.214286 L 1085.757576 182.310268 L 1085.378788 181.858259 L 1084.772727 180.954241 L 1084.393939 180.502232 L 1084.090909 180.050223 L 1083.712121 179.598214 L 1083.409091 179.22154 L 1083.030303 178.769531 L 1082.727273 178.317522 L 1082.348485 177.940848 L 1082.045455 177.488839 L 1081.666667 177.03683 L 1080.909091 176.283482 L 1080.606061 175.831473 L 1080.227273 175.454799 L 1079.848485 175.00279 L 1079.090909 174.249442 L 1078.787879 173.872768 L 1078.409091 173.420759 L 1076.893939 171.914062 L 1076.590909 171.537388 L 1074.69697 169.654018 L 1074.393939 169.277344 L 1073.257576 168.147321 L 1072.954545 167.770647 L 1072.575758 167.393973 L 1072.272727 167.017299 L 1071.515152 166.263951 L 1071.212121 165.887277 L 1070.833333 165.510603 L 1070.227273 164.757254 L 1069.848485 164.38058 L 1069.545455 164.003906 L 1069.166667 163.627232 L 1068.863636 163.175223 L 1068.484848 162.798549 L 1068.181818 162.421875 L 1067.80303 161.969866 L 1067.5 161.593192 L 1067.121212 161.141183 L 1066.818182 160.689174 L 1066.439394 160.3125 L 1065.833333 159.408482 L 1065.454545 159.031808 L 1065.151515 158.579799 L 1064.848485 158.203125 L 1064.545455 157.751116 L 1064.242424 157.374442 L 1063.939394 156.922433 L 1063.712121 156.545759 L 1063.106061 155.792411 L 1062.878788 155.415737 L 1062.575758 154.963728 L 1062.121212 154.210379 L 1061.818182 153.833705 L 1060.909091 152.327009 L 1060.757576 151.950335 L 1060.30303 151.196987 L 1060.075758 150.895647 L 1059.924242 150.518973 L 1059.69697 150.142299 L 1059.393939 149.388951 L 1059.166667 149.012277 L 1059.015152 148.635603 L 1058.863636 148.334263 L 1058.257576 146.827567 L 1058.181818 146.450893 L 1058.030303 146.149554 L 1057.878788 145.772879 L 1057.80303 145.396205 L 1057.651515 145.019531 L 1057.575758 144.642857 L 1057.424242 144.266183 L 1057.19697 143.136161 L 1057.045455 142.759487 L 1056.742424 141.25279 L 1056.742424 140.876116 L 1056.590909 140.122768 L 1056.515152 139.670759 L 1056.515152 139.294085 L 1056.439394 138.917411 L 1056.439394 138.465402 L 1056.363636 138.088728 L 1056.363636 137.260045 L 1056.287879 136.808036 L 1056.287879 134.095982 L 1056.363636 133.568638 L 1056.363636 133.041295 L 1056.439394 132.513951 L 1056.439394 131.986607 L 1056.590909 130.93192 L 1056.666667 130.329241 L 1056.742424 129.801897 L 1056.893939 129.274554 L 1057.045455 128.069196 L 1057.19697 127.541853 L 1057.348485 126.939174 L 1057.424242 126.41183 L 1057.878788 124.603795 L 1058.030303 124.076451 L 1058.181818 123.473772 L 1058.409091 122.871094 L 1058.560606 122.34375 L 1058.712121 121.741071 L 1058.939394 121.138393 L 1059.090909 120.611049 L 1059.318182 120.008371 L 1059.469697 119.405692 L 1059.69697 118.878348 L 1059.924242 118.27567 L 1060.075758 117.748326 L 1060.30303 117.220982 L 1060.530303 116.618304 L 1060.757576 116.09096 L 1060.909091 115.563616 L 1061.590909 113.981585 L 1061.742424 113.454241 L 1061.969697 113.002232 L 1062.19697 112.474888 L 1062.424242 112.022879 L 1062.575758 111.495536 L 1063.030303 110.591518 L 1063.181818 110.139509 L 1063.409091 109.6875 L 1063.560606 109.310826 L 1063.787879 108.858817 L 1063.939394 108.482143 L 1064.166667 108.105469 L 1064.469697 107.352121 L 1064.69697 106.975446 L 1064.848485 106.598772 L 1065 106.297433 L 1065.151515 105.920759 L 1065.606061 105.016741 L 1065.757576 104.790737 L 1065.833333 104.564732 L 1065.833333 104.414062 L 1065.757576 104.414062 L 1065.075758 105.092076 L 1064.772727 105.46875 L 1064.393939 105.845424 L 1064.015152 106.372768 L 1063.636364 106.824777 L 1063.257576 107.352121 L 1062.80303 107.879464 L 1062.424242 108.406808 L 1061.969697 108.934152 L 1061.590909 109.461496 L 1061.136364 109.988839 L 1060.227273 111.194196 L 1059.772727 111.72154 L 1059.318182 112.399554 L 1058.409091 113.604911 L 1057.878788 114.282924 L 1057.424242 114.960938 L 1056.363636 116.316964 L 1055.909091 116.994978 L 1055.378788 117.748326 L 1054.848485 118.426339 L 1054.318182 119.179688 L 1053.863636 119.933036 L 1051.742424 122.946429 L 1051.287879 123.699777 L 1050.757576 124.453125 L 1050.30303 125.206473 L 1049.772727 125.959821 L 1049.318182 126.71317 L 1048.787879 127.541853 L 1046.969697 130.555246 L 1046.590909 131.308594 L 1046.136364 132.061942 L 1045.378788 133.568638 L 1045 134.246652 L 1044.621212 135 L 1044.318182 135.678013 L 1044.015152 136.431362 L 1043.106061 138.465402 L 1042.878788 139.143415 L 1042.651515 139.746094 L 1042.424242 140.424107 L 1041.666667 143.4375 L 1041.590909 144.040179 L 1041.439394 144.642857 L 1041.363636 145.170201 L 1041.363636 140.876116 L 1041.439394 140.273438 L 1041.439394 138.992746 L 1041.515152 138.390067 L 1041.515152 137.787388 L 1041.590909 137.109375 L 1041.590909 136.506696 L 1041.666667 135.828683 L 1041.742424 135.226004 L 1041.818182 134.547991 L 1041.818182 133.945312 L 1041.893939 133.342634 L 1041.969697 132.664621 L 1042.045455 132.061942 L 1042.121212 131.383929 L 1042.272727 130.178571 L 1042.348485 129.500558 L 1042.424242 128.897879 L 1042.5 128.219866 L 1042.651515 127.014509 L 1042.80303 126.336496 L 1043.030303 124.52846 L 1043.181818 123.925781 L 1043.257576 123.247768 L 1043.409091 122.645089 L 1043.560606 121.439732 L 1043.712121 120.837054 L 1043.787879 120.234375 L 1043.939394 119.631696 L 1044.015152 119.029018 L 1044.318182 117.823661 L 1044.393939 117.220982 L 1044.69697 116.015625 L 1044.848485 115.337612 L 1045.30303 113.529576 L 1045.454545 112.851562 L 1045.757576 111.646205 L 1045.984848 110.968192 L 1046.287879 109.762835 L 1046.515152 109.084821 L 1046.742424 108.482143 L 1046.893939 107.879464 L 1047.348485 106.674107 L 1047.5 106.071429 L 1048.636364 103.058036 L 1048.863636 102.530692 L 1049.318182 101.325335 L 1049.545455 100.797991 L 1049.848485 100.195312 L 1050.075758 99.592634 L 1050.30303 99.06529 L 1050.606061 98.537946 L 1050.833333 97.935268 L 1051.060606 97.407924 L 1051.363636 96.88058 L 1051.590909 96.277902 L 1051.818182 95.750558 L 1052.121212 95.223214 L 1052.348485 94.695871 L 1052.651515 94.168527 L 1052.878788 93.641183 L 1053.484848 92.586496 L 1053.712121 92.059152 L 1054.015152 91.607143 L 1054.242424 91.079799 L 1054.545455 90.552455 L 1054.772727 90.100446 L 1055.075758 89.573103 L 1055.30303 89.121094 L 1055.606061 88.59375 L 1055.909091 88.141741 L 1056.136364 87.689732 L 1056.439394 87.237723 L 1056.666667 86.710379 L 1056.969697 86.258371 L 1057.19697 85.806362 L 1057.80303 84.902344 L 1058.030303 84.52567 L 1058.333333 84.073661 L 1058.787879 83.169643 L 1059.090909 82.792969 L 1059.318182 82.34096 L 1059.621212 81.964286 L 1059.848485 81.587612 L 1060.075758 81.135603 L 1060.378788 80.758929 L 1060.606061 80.382254 L 1060.757576 80.00558 L 1060.909091 79.704241 L 1061.060606 79.478237 L 1061.060606 79.327567 L 1060.984848 79.252232 L 1060.833333 79.176897 L 1060.606061 79.327567 L 1060.227273 79.478237 L 1059.772727 79.779576 L 1059.242424 80.080915 L 1058.712121 80.532924 L 1058.030303 80.984933 L 1057.424242 81.436942 L 1056.742424 81.888951 L 1056.060606 82.416295 L 1055.378788 82.868304 L 1054.015152 83.922991 L 1053.333333 84.375 L 1050.606061 86.484375 L 1049.924242 86.936384 L 1049.166667 87.463728 L 1047.80303 88.518415 L 1047.121212 89.121094 L 1045.757576 90.175781 L 1045 90.703125 L 1042.954545 92.285156 L 1042.272727 92.887835 L 1040.227273 94.469866 L 1039.545455 95.072545 L 1038.181818 96.127232 L 1037.575758 96.654576 L 1036.893939 97.257254 L 1035.530303 98.311942 L 1034.924242 98.839286 L 1034.242424 99.441964 L 1033.030303 100.496652 L 1032.348485 101.023996 L 1031.136364 102.078683 L 1030.530303 102.681362 L 1028.712121 104.263393 L 1028.181818 104.790737 L 1027.575758 105.31808 L 1027.045455 105.845424 L 1026.515152 106.297433 L 1025.909091 106.824777 L 1021.893939 110.817522 L 1021.439394 111.344866 L 1020.984848 111.796875 L 1020.606061 112.248884 L 1020.151515 112.776228 L 1019.772727 113.228237 L 1019.318182 113.680246 L 1017.80303 115.488281 L 1017.424242 115.864955 L 1017.121212 116.316964 L 1016.742424 116.768973 L 1016.439394 117.145647 L 1015.681818 118.049665 L 1015.378788 118.501674 L 1015 118.878348 L 1014.69697 119.330357 L 1014.318182 119.782366 L 1014.015152 120.234375 L 1013.636364 120.686384 L 1013.333333 121.138393 L 1012.954545 121.665737 L 1012.575758 122.117746 L 1012.272727 122.569754 L 1011.893939 123.021763 L 1011.515152 123.549107 L 1011.212121 124.001116 L 1010.833333 124.52846 L 1010.530303 124.980469 L 1009.772727 126.035156 L 1009.469697 126.487165 L 1009.090909 127.014509 L 1008.787879 127.541853 L 1008.030303 128.59654 L 1007.727273 129.123884 L 1007.348485 129.651228 L 1007.045455 130.253906 L 1006.666667 130.78125 L 1006.363636 131.308594 L 1006.060606 131.911272 L 1005.681818 132.438616 L 1005.075758 133.643973 L 1004.69697 134.171317 L 1003.484848 136.582031 L 1003.106061 137.18471 L 1002.80303 137.862723 L 1002.19697 139.06808 L 1001.969697 139.746094 L 1001.666667 140.348772 L 1001.060606 141.704799 L 1000.833333 142.382812 L 1000.530303 142.985491 L 1000.227273 143.663504 L 1000 144.416853 L 999.69697 145.094866 L 999.242424 146.450893 L 999.015152 147.204241 L 998.712121 147.882254 L 998.030303 150.142299 L 997.878788 150.820312 L 997.651515 151.573661 L 997.424242 152.402344 L 997.19697 153.155692 L 997.045455 153.90904 L 996.818182 154.662388 L 996.666667 155.491071 L 996.363636 156.997768 L 996.212121 157.826451 L 996.060606 158.579799 L 995.909091 159.408482 L 995.606061 160.915179 L 995.530303 161.743862 L 995.378788 162.49721 L 995.30303 163.325893 L 995.227273 164.079241 L 995.075758 164.907924 L 994.924242 166.414621 L 994.848485 167.243304 L 994.772727 167.996652 L 994.69697 168.825335 L 994.69697 169.578683 L 994.621212 170.332031 L 994.621212 171.160714 L 994.545455 171.914062 L 994.545455 172.667411 L 994.469697 173.496094 L 994.469697 181.104911 L 994.545455 181.782924 L 994.545455 183.741629 L 994.621212 184.344308 L 994.621212 186.152344 L 994.69697 186.755022 L 994.015152 184.946987 L 993.863636 184.344308 L 993.409091 183.138951 L 993.257576 182.536272 L 992.80303 181.330915 L 992.651515 180.728237 L 992.424242 180.050223 L 992.121212 178.844866 L 991.893939 178.242188 L 991.742424 177.564174 L 991.439394 176.358817 L 991.287879 175.680804 L 991.136364 175.078125 L 990.984848 174.400112 L 990.833333 173.797433 L 990.681818 173.11942 L 990.530303 172.516741 L 990.454545 171.838728 L 990.30303 171.236049 L 990.227273 170.558036 L 990.075758 169.955357 L 989.848485 167.921317 L 989.772727 167.318638 L 989.69697 166.640625 L 989.69697 165.962612 L 989.545455 164.606585 L 989.545455 159.935826 L 989.621212 159.257812 L 989.621212 158.579799 L 989.69697 157.826451 L 989.848485 156.470424 L 990 154.963728 L 990.151515 154.210379 L 990.227273 153.457031 L 990.378788 152.703683 L 990.454545 151.950335 L 990.909091 149.69029 L 991.060606 149.012277 L 991.212121 148.258929 L 991.439394 147.580915 L 991.742424 146.224888 L 991.969697 145.546875 L 992.121212 144.868862 L 992.348485 144.190848 L 992.5 143.58817 L 992.727273 142.985491 L 992.954545 142.307478 L 993.181818 141.704799 L 993.333333 141.102121 L 993.787879 139.896763 L 994.015152 139.36942 L 994.242424 138.766741 L 994.545455 138.239397 L 994.772727 137.636719 L 995 137.109375 L 995.30303 136.506696 L 995.757576 135.452009 L 996.363636 134.397321 L 996.590909 133.869978 L 997.19697 132.81529 L 997.424242 132.363281 L 998.030303 131.308594 L 998.333333 130.856585 L 998.939394 129.801897 L 999.242424 129.349888 L 999.621212 128.822545 L 999.924242 128.370536 L 1000.227273 127.843192 L 1000.530303 127.391183 L 1000.909091 126.863839 L 1001.212121 126.41183 L 1001.590909 125.884487 L 1001.893939 125.432478 L 1002.272727 124.905134 L 1002.575758 124.37779 L 1002.954545 123.925781 L 1003.333333 123.398438 L 1003.636364 122.946429 L 1004.393939 121.891741 L 1004.772727 121.439732 L 1005.151515 120.912388 L 1005.454545 120.385045 L 1006.212121 119.330357 L 1006.666667 118.803013 L 1007.045455 118.27567 L 1007.348485 117.748326 L 1007.727273 117.220982 L 1008.030303 116.768973 L 1008.484848 116.015625 L 1008.560606 115.789621 L 1008.560606 115.638951 L 1008.409091 115.563616 L 1008.181818 115.638951 L 1007.424242 115.94029 L 1006.969697 116.241629 L 1006.363636 116.542969 L 1005.151515 117.296317 L 1004.469697 117.672991 L 1003.787879 118.125 L 1003.030303 118.577009 L 1002.272727 118.953683 L 1001.515152 119.405692 L 1000.757576 119.933036 L 999.924242 120.385045 L 999.090909 120.912388 L 998.181818 121.439732 L 997.348485 121.967076 L 996.439394 122.49442 L 995.530303 123.097098 L 994.545455 123.624442 L 993.636364 124.227121 L 992.651515 124.905134 L 991.742424 125.507812 L 988.787879 127.541853 L 987.80303 128.295201 L 986.742424 128.973214 L 985.757576 129.726562 L 984.772727 130.555246 L 983.787879 131.308594 L 982.727273 132.137277 L 981.742424 132.96596 L 980.757576 133.869978 L 979.772727 134.698661 L 978.787879 135.602679 L 977.80303 136.582031 L 976.818182 137.486049 L 975.909091 138.465402 L 974.924242 139.444754 L 971.287879 143.663504 L 970.454545 144.793527 L 969.545455 145.923549 L 968.712121 147.128906 L 967.954545 148.334263 L 967.121212 149.539621 L 966.363636 150.820312 L 965.606061 152.02567 L 964.924242 153.381696 L 964.242424 154.662388 L 963.636364 156.018415 L 962.954545 157.449777 L 962.424242 158.881138 L 961.818182 160.3125 L 961.287879 161.743862 L 960.833333 163.250558 L 960.378788 164.832589 L 960 166.339286 L 959.621212 167.921317 L 959.015152 171.236049 L 958.560606 174.550781 L 958.257576 177.865513 L 958.181818 179.447545 L 958.106061 180.954241 L 958.106061 182.460938 L 958.181818 183.816964 L 958.181818 185.172991 L 958.333333 186.378348 L 958.409091 187.583705 L 958.560606 188.713728 L 958.787879 189.84375 L 958.939394 190.898438 L 959.166667 191.953125 L 959.469697 193.007812 L 960.378788 195.945871 L 960.757576 196.925223 L 961.060606 197.904576 L 961.515152 198.808594 L 961.893939 199.787946 L 962.80303 201.595982 L 963.257576 202.424665 L 963.712121 203.328683 L 964.242424 204.157366 L 964.69697 204.986049 L 965.227273 205.814732 L 965.833333 206.643415 L 966.363636 207.472098 L 966.969697 208.300781 L 967.5 209.054129 L 969.318182 211.314174 L 970 212.067522 L 970.606061 212.820871 L 971.287879 213.498884 L 971.893939 214.176897 L 972.575758 214.930246 L 974.621212 216.964286 L 975.30303 217.566964 L 975.984848 218.244978 L 977.348485 219.450335 L 978.106061 220.128348 L 980.151515 221.936384 L 980.909091 222.463728 L 982.272727 223.669085 L 983.636364 224.723772 L 984.318182 225.326451 L 985.075758 225.853795 L 985.681818 226.381138 L 987.045455 227.435826 L 987.727273 227.887835 L 988.409091 228.415179 L 989.015152 228.942522 L 989.69697 229.469866 L 990.30303 229.921875 L 990.984848 230.449219 L 991.590909 230.901228 L 992.272727 231.428571 L 995.984848 234.592634 L 996.969697 235.571987 L 997.5 236.023996 L 997.954545 236.551339 L 998.409091 237.003348 L 999.318182 238.058036 L 999.772727 238.510045 L 1000.227273 239.037388 L 1000.984848 240.092076 L 1001.363636 240.544085 L 1002.121212 241.598772 L 1002.424242 242.126116 L 1002.80303 242.65346 L 1003.409091 243.708147 L 1003.712121 244.160156 L 1003.939394 244.6875 L 1004.242424 245.214844 L 1004.924242 246.796875 L 1005.151515 247.248884 L 1005.606061 248.303571 L 1005.757576 248.830915 L 1005.984848 249.282924 L 1006.136364 249.810268 L 1006.287879 250.262277 L 1006.439394 250.789621 L 1006.590909 251.241629 L 1006.742424 251.768973 L 1006.893939 252.220982 L 1006.969697 252.748326 L 1007.121212 253.200335 L 1007.348485 254.556362 L 1007.5 255.008371 L 1007.575758 255.460379 L 1007.575758 255.912388 L 1007.727273 256.816406 L 1007.80303 257.19308 L 1007.80303 257.645089 L 1007.878788 258.021763 L 1007.878788 258.850446 L 1007.954545 259.227121 L 1007.954545 262.617188 L 1007.878788 262.843192 L 1007.878788 263.671875 L 1007.80303 263.897879 L 1007.80303 264.651228 L 1007.878788 264.651228 L 1007.878788 264.575893 L 1008.030303 264.425223 L 1008.181818 264.199219 L 1008.257576 263.897879 L 1008.484848 263.59654 L 1008.636364 263.295201 L 1008.863636 262.918527 L 1009.015152 262.466518 L 1009.242424 262.089844 L 1009.393939 261.71317 L 1009.469697 261.41183 L 1009.621212 261.110491 L 1009.772727 260.733817 L 1009.924242 260.432478 L 1010.075758 260.055804 L 1010.227273 259.754464 L 1010.30303 259.37779 L 1010.454545 259.001116 L 1010.606061 258.699777 L 1010.757576 258.323103 L 1010.909091 257.871094 L 1011.212121 257.117746 L 1011.287879 256.741071 L 1011.439394 256.289062 L 1011.590909 255.912388 L 1011.742424 255.460379 L 1011.818182 255.008371 L 1012.272727 253.652344 L 1012.348485 253.200335 L 1012.5 252.748326 L 1012.575758 252.296317 L 1012.727273 251.844308 L 1012.80303 251.392299 L 1012.954545 250.864955 L 1013.030303 250.412946 L 1013.106061 249.885603 L 1013.181818 249.433594 L 1013.257576 248.90625 L 1013.333333 248.454241 L 1013.636364 246.344866 L 1013.712121 245.892857 L 1013.712121 245.365513 L 1013.787879 244.83817 L 1013.787879 243.783482 L 1013.863636 243.256138 L 1013.863636 241.598772 L 1013.787879 241.071429 L 1013.787879 240.016741 L 1013.560606 238.43471 L 1013.484848 237.832031 L 1013.257576 236.25 L 1013.181818 235.647321 L 1013.030303 235.119978 L 1012.954545 234.592634 L 1012.80303 234.06529 L 1012.727273 233.537946 L 1012.424242 232.483259 L 1012.348485 232.03125 L 1012.19697 231.503906 L 1012.121212 231.051897 L 1011.969697 230.599888 L 1011.893939 230.147879 L 1011.742424 229.695871 L 1011.666667 229.243862 L 1011.515152 228.791853 L 1011.439394 228.339844 L 1011.818182 228.791853 L 1012.19697 229.168527 L 1012.651515 229.545201 L 1013.030303 229.99721 L 1014.242424 231.202567 L 1015 232.106585 L 1015.454545 232.558594 L 1015.833333 233.085938 L 1016.212121 233.537946 L 1017.348485 235.119978 L 1017.80303 235.647321 L 1019.318182 238.058036 L 1019.621212 238.736049 L 1020.757576 240.770089 L 1021.060606 241.523438 L 1021.439394 242.276786 L 1021.742424 243.030134 L 1022.121212 243.858817 L 1022.424242 244.6875 L 1022.80303 245.591518 L 1023.409091 247.399554 L 1024.015152 249.358259 L 1024.242424 250.337612 L 1024.545455 251.392299 L 1025 253.501674 L 1025.227273 254.481027 L 1025.454545 255.535714 L 1025.606061 256.590402 L 1025.757576 257.569754 L 1025.909091 258.624442 L 1026.136364 261.5625 L 1026.212121 262.466518 L 1026.212121 266.233259 L 1026.136364 267.061942 L 1026.136364 267.96596 L 1026.060606 268.869978 L 1025.984848 269.698661 L 1025.833333 270.527344 L 1025.757576 271.356027 L 1025.606061 272.18471 L 1025.530303 273.013393 L 1025.075758 275.273438 L 1024.848485 276.026786 L 1024.69697 276.780134 L 1024.469697 277.458147 L 1024.318182 278.211496 L 1024.090909 278.889509 L 1023.863636 279.492188 L 1023.712121 280.170201 L 1023.484848 280.848214 L 1022.80303 282.65625 L 1022.575758 283.183594 L 1022.348485 283.786272 L 1021.893939 284.84096 L 1021.666667 285.292969 L 1021.363636 285.820312 L 1020.681818 287.176339 L 1020.530303 287.628348 L 1020.075758 288.381696 L 1019.848485 288.833705 L 1019.393939 289.587054 L 1019.166667 289.888393 L 1018.939394 290.265067 L 1018.712121 290.566406 L 1018.560606 290.867746 L 1018.106061 291.545759 L 1018.030303 291.696429 L 1018.030303 291.847098 " transform="matrix(0.0515625,0,0,0.0518519,0,0)"/>
</g>
</svg>
