<?xml version="1.0" encoding="UTF-8" standalone="no"?>
<svg
   version="1.1"
   width="1920"
   height="1080"
   id="svg30"
   sodipodi:docname="skol_invest_vectoriel.svg"
   inkscape:version="1.1.1 (3bf5ae0d25, 2021-09-20)"
   inkscape:export-filename="C:\Users\micka\Documents\blenderProjects\Skol_Invest\skol_invest.png"
   inkscape:export-xdpi="96"
   inkscape:export-ydpi="96"
   xmlns:inkscape="http://www.inkscape.org/namespaces/inkscape"
   xmlns:sodipodi="http://sodipodi.sourceforge.net/DTD/sodipodi-0.dtd"
   xmlns="http://www.w3.org/2000/svg"
   xmlns:svg="http://www.w3.org/2000/svg">
  <defs
     id="defs34" />
  <sodipodi:namedview
     id="namedview32"
     pagecolor="#ffffff"
     bordercolor="#666666"
     borderopacity="1.0"
     inkscape:pageshadow="2"
     inkscape:pageopacity="0.0"
     inkscape:pagecheckerboard="0"
     showgrid="false"
     inkscape:zoom="0.36639221"
     inkscape:cx="997.56488"
     inkscape:cy="589.53218"
     inkscape:window-width="1718"
     inkscape:window-height="1368"
     inkscape:window-x="0"
     inkscape:window-y="0"
     inkscape:window-maximized="0"
     inkscape:current-layer="strokes" />
  <g
     id="ViewLayer_LineSet"
     inkscape:label="ViewLayer_LineSet">
    <g
       id="layer1"
       inkscape:label="BG"
       inkscape:groupmode="layer"
       style="display:none">
      <rect
         style="fill:#ffffff;fill-opacity:1;fill-rule:evenodd;stroke:#ffffff;stroke-linejoin:round;stroke-opacity:1;paint-order:markers stroke fill"
         id="rect1922"
         width="1932.3553"
         height="1091.7263"
         x="5.4586325"
         y="1.1969282e-06"
         inkscape:label="rect1922"
         inkscape:export-filename="C:\Users\micka\Documents\blenderProjects\Skol_Invest\skol_invest.png"
         inkscape:export-xdpi="96"
         inkscape:export-ydpi="96" />
    </g>
    <g
       inkscape:groupmode="layer"
       id="strokes"
       inkscape:label="strokes"
       sodipodi:insensitive="true">
      <path
         fill="none"
         stroke-width="3"
         stroke-linecap="butt"
         stroke-opacity="1"
         stroke="#000000"
         stroke-linejoin="round"
         d="m 1067.479,462.636 0.052,-0.015 0.074,-0.037 0.095,-0.057 0.114,-0.074 0.132,-0.088 0.149,-0.101 0.165,-0.111 0.18,-0.123 0.195,-0.133 0.209,-0.145 0.224,-0.155 0.237,-0.166 0.25,-0.177 0.263,-0.186 0.276,-0.197 0.287,-0.207 0.298,-0.217 0.309,-0.227 0.32,-0.237 0.329,-0.246 0.339,-0.255 0.348,-0.265 0.357,-0.273 0.365,-0.283 0.372,-0.292 0.38,-0.3 0.386,-0.309 0.393,-0.317 0.398,-0.326 0.404,-0.334 0.408,-0.341 0.413,-0.35 0.417,-0.358 0.421,-0.365 0.424,-0.372 0.426,-0.38 0.428,-0.387 0.43,-0.394 0.432,-0.401 0.432,-0.408 0.432,-0.415 0.432,-0.421 0.432,-0.427 0.431,-0.434 0.429,-0.44 0.427,-0.446 0.425,-0.451 0.421,-0.458 0.419,-0.463 0.414,-0.468 0.411,-0.474 0.405,-0.479 0.401,-0.483 0.395,-0.489 0.388,-0.494 0.383,-0.498 0.375,-0.502 0.367,-0.507 0.36,-0.511 0.352,-0.515 0.342,-0.519 0.333,-0.523 0.322,-0.521 0.31,-0.516 0.295,-0.507 0.28,-0.492 0.262,-0.474 0.243,-0.45 0.223,-0.422 0.201,-0.392 0.181,-0.364 0.165,-0.341 0.151,-0.322 0.14,-0.309 0.131,-0.298 0.125,-0.294 0.123,-0.293 0.122,-0.297 0.122,-0.3 0.121,-0.305 0.121,-0.309 0.121,-0.313 0.119,-0.316 0.119,-0.321 0.118,-0.325 0.117,-0.328 0.116,-0.333 0.114,-0.336 0.113,-0.34 0.112,-0.344 0.11,-0.348 0.108,-0.352 0.106,-0.355 0.105,-0.359 0.102,-0.363 0.101,-0.367 0.098,-0.37 0.095,-0.374 0.093,-0.377 0.091,-0.381 0.088,-0.385 0.085,-0.388 0.081,-0.392 0.079,-0.395 0.076,-0.399 0.073,-0.402 0.069,-0.405 0.065,-0.409 0.062,-0.413 0.058,-0.416 0.054,-0.419 0.051,-0.422 0.046,-0.426 0.042,-0.429 0.038,-0.432 0.033,-0.436 0.029,-0.438 0.024,-0.442 0.02,-0.445 0.014,-0.449 0.01,-0.451 0.01,-0.454 -10e-4,-0.458 -0.01,-0.46 -0.012,-0.464 -0.017,-0.467 -0.022,-0.469 -0.029,-0.473 -0.034,-0.475 -0.04,-0.478 -0.046,-0.482 -0.053,-0.484 -0.059,-0.487 -0.065,-0.489 -0.071,-0.49 -0.076,-0.489 -0.081,-0.485 -0.085,-0.479 -0.089,-0.471 -0.091,-0.462 -0.094,-0.448 -0.096,-0.436 -0.097,-0.422 -0.1,-0.413 -0.102,-0.404 -0.104,-0.398 -0.107,-0.394 -0.11,-0.392 -0.114,-0.391 -0.116,-0.393 -0.12,-0.396 -0.123,-0.397 -0.125,-0.4 -0.129,-0.401 -0.132,-0.405 -0.134,-0.407 -0.137,-0.409 -0.139,-0.412 -0.141,-0.415 -0.144,-0.416 -0.145,-0.419 -0.147,-0.42 -0.149,-0.421 -0.149,-0.423 -0.151,-0.423 -0.151,-0.424 -0.152,-0.424 -0.152,-0.425 -0.152,-0.424 -0.154,-0.426 -0.153,-0.425 -0.153,-0.425 -0.154,-0.426 0.16,0.218 0.162,0.219 0.164,0.226 0.169,0.233 0.174,0.244 0.181,0.258 0.19,0.274 0.2,0.292 0.21,0.314 0.22,0.334 0.228,0.351 0.235,0.369 0.238,0.382 0.242,0.396 0.243,0.407 0.243,0.416 0.24,0.424 0.238,0.432 0.236,0.44 0.233,0.449 0.229,0.457 0.227,0.466 0.223,0.475 0.219,0.484 0.215,0.494 0.211,0.504 0.207,0.514 0.202,0.525 0.197,0.535 0.193,0.546 0.186,0.557 0.182,0.568 0.175,0.58 0.17,0.591 0.163,0.604 0.157,0.616 0.151,0.628 0.143,0.642 0.136,0.654 0.129,0.668 0.122,0.68 0.113,0.688 0.105,0.69 0.096,0.686 0.086,0.677 0.076,0.662 0.065,0.64 0.055,0.614 0.043,0.584 0.032,0.554 0.021,0.531 0.012,0.51 v 0.495 l -0.01,0.482 -0.014,0.474 -0.023,0.47 -0.03,0.47 -0.037,0.47 -0.044,0.47 -0.05,0.469 -0.057,0.469 -0.063,0.468 -0.069,0.467 -0.075,0.465 -0.08,0.465 -0.086,0.463 -0.091,0.461 -0.096,0.459 -0.102,0.457 -0.105,0.454 -0.11,0.452 -0.115,0.45 -0.119,0.446 -0.122,0.443 -0.126,0.44 -0.13,0.436 -0.133,0.432 -0.136,0.429 -0.139,0.424 -0.141,0.42 -0.145,0.416 -0.146,0.411 -0.149,0.406 -0.15,0.4 -0.153,0.396 -0.154,0.39 -0.155,0.384 -0.156,0.378 -0.158,0.372 -0.158,0.366 -0.159,0.359 -0.159,0.353 -0.159,0.346 -0.159,0.338 -0.159,0.331 -0.159,0.324 -0.158,0.316 -0.158,0.309 -0.156,0.3 -0.155,0.292 -0.154,0.283 -0.152,0.274 -0.151,0.266 -0.148,0.257 -0.146,0.247 -0.138,0.234 -0.126,0.218 -0.108,0.198 -0.084,0.175 -0.057,0.148 -0.023,0.119 0.01,0.09 0.066,0.043 0.101,0.014 0.141,-0.018 0.179,-0.046 0.216,-0.073 0.251,-0.097 0.284,-0.118 0.315,-0.136 0.345,-0.153 0.374,-0.171 0.404,-0.192 0.436,-0.216 0.466,-0.243 0.499,-0.272 0.531,-0.303 0.564,-0.338 0.597,-0.376 0.629,-0.413 0.659,-0.452 0.687,-0.491 0.713,-0.532 0.737,-0.573 0.76,-0.616 0.781,-0.657 0.799,-0.701 0.811,-0.738 0.815,-0.772 0.814,-0.798 0.806,-0.82 0.79,-0.836 0.767,-0.846 0.738,-0.852 0.703,-0.853 0.668,-0.854 0.635,-0.856 0.604,-0.859 0.573,-0.864 0.545,-0.87 0.517,-0.877 0.493,-0.886 0.468,-0.896 0.445,-0.909 0.422,-0.928 0.399,-0.948 0.377,-0.974 0.356,-1.003 0.334,-1.037 0.314,-1.073 0.292,-1.113 0.269,-1.144 0.242,-1.168 0.211,-1.181 0.177,-1.187 0.14,-1.184 0.099,-1.171 0.055,-1.148 0.01,-1.119 -0.031,-1.083 -0.065,-1.039 -0.091,-0.989 -0.11,-0.934 -0.123,-0.872 -0.129,-0.804 -0.127,-0.729 -0.121,-0.652 -0.114,-0.58 -0.109,-0.521 -0.106,-0.471 -0.105,-0.431 -0.106,-0.402 -0.108,-0.383 -0.113,-0.375 -0.118,-0.375 -0.124,-0.375 -0.131,-0.376 -0.135,-0.375 -0.142,-0.374 -0.146,-0.372 -0.151,-0.369 -0.156,-0.366 -0.161,-0.362 -0.165,-0.358 -0.17,-0.354 -0.174,-0.349 -0.178,-0.346 -0.182,-0.342 -0.186,-0.338 -0.19,-0.335 -0.193,-0.331 -0.197,-0.328 -0.2,-0.324 -0.204,-0.321 -0.207,-0.317 -0.209,-0.315 -0.213,-0.311 -0.216,-0.308 -0.218,-0.306 -0.221,-0.302 -0.223,-0.3 -0.226,-0.297 -0.228,-0.294 -0.229,-0.292 -0.232,-0.289 -0.234,-0.287 -0.236,-0.284 -0.237,-0.282 -0.238,-0.28 -0.24,-0.278 -0.242,-0.276 -0.242,-0.274 -0.243,-0.273 -0.245,-0.27 -0.245,-0.269 -0.246,-0.267 -0.246,-0.266 -0.247,-0.265 -0.247,-0.264 -0.247,-0.263 -0.248,-0.263 -0.248,-0.263 -0.246,-0.254 -0.246,-0.254 -0.246,-0.253 -0.246,-0.254 -0.245,-0.253 -0.244,-0.253 -0.243,-0.253 -0.243,-0.253 -0.241,-0.252 -0.24,-0.251 -0.238,-0.251 -0.237,-0.251 -0.236,-0.251 -0.234,-0.251 -0.231,-0.251 -0.23,-0.251 -0.228,-0.251 -0.226,-0.252 -0.226,-0.253 -0.224,-0.255 -0.225,-0.259 -0.225,-0.262 -0.226,-0.265 -0.227,-0.271 -0.229,-0.276 -0.231,-0.28 -0.231,-0.284 -0.23,-0.286 -0.23,-0.287 -0.227,-0.288 -0.224,-0.287 -0.221,-0.286 -0.218,-0.283 -0.212,-0.28 -0.209,-0.278 -0.204,-0.275 -0.2,-0.273 -0.196,-0.271 -0.192,-0.268 -0.187,-0.267 -0.184,-0.265 -0.179,-0.262 -0.176,-0.261 -0.171,-0.259 -0.168,-0.258 -0.164,-0.256 -0.159,-0.255 -0.156,-0.253 -0.152,-0.252 -0.148,-0.251 -0.144,-0.25 -0.141,-0.249 -0.137,-0.249 -0.133,-0.247 -0.129,-0.246 -0.126,-0.247 -0.122,-0.245 -0.118,-0.245 -0.115,-0.245 -0.112,-0.244 -0.107,-0.245 -0.105,-0.244 -0.1,-0.245 -0.098,-0.244 -0.094,-0.245 -0.09,-0.245 -0.088,-0.245 -0.083,-0.246 -0.081,-0.247 -0.077,-0.247 -0.074,-0.248 -0.071,-0.249 -0.067,-0.25 -0.064,-0.251 -0.061,-0.252 -0.058,-0.253 -0.055,-0.255 -0.052,-0.256 -0.049,-0.257 -0.046,-0.259 -0.042,-0.261 -0.04,-0.262 -0.037,-0.265 -0.034,-0.266 -0.031,-0.268 -0.028,-0.271 -0.026,-0.273 -0.022,-0.275 -0.02,-0.277 -0.017,-0.281 -0.013,-0.285 -0.01,-0.291 -0.01,-0.296 v -0.303 -0.31 l 0.01,-0.32 0.012,-0.328 0.018,-0.338 0.022,-0.345 0.029,-0.352 0.034,-0.359 0.04,-0.364 0.045,-0.369 0.052,-0.373 0.057,-0.375 0.064,-0.379 0.069,-0.381 0.075,-0.384 0.081,-0.385 0.085,-0.387 0.09,-0.389 0.095,-0.389 0.099,-0.39 0.104,-0.391 0.107,-0.392 0.111,-0.391 0.115,-0.391 0.118,-0.39 0.121,-0.39 0.124,-0.388 0.126,-0.387 0.129,-0.385 0.132,-0.384 0.133,-0.381 0.135,-0.378 0.136,-0.376 0.138,-0.372 0.139,-0.37 0.14,-0.365 0.14,-0.362 0.141,-0.357 0.141,-0.353 0.142,-0.349 0.14,-0.343 0.141,-0.338 0.14,-0.332 0.138,-0.326 0.138,-0.32 0.137,-0.314 0.135,-0.307 0.133,-0.3 0.131,-0.292 0.128,-0.285 0.127,-0.277 0.124,-0.269 0.121,-0.262 0.119,-0.255 0.118,-0.248 0.115,-0.243 0.115,-0.237 0.113,-0.233 0.111,-0.229 0.111,-0.225 0.103,-0.212 0.092,-0.194 0.073,-0.165 0.049,-0.131 0.019,-0.086 -0.016,-0.034 -0.05,0.014 -0.11,0.102 -0.145,0.151 -0.18,0.203 -0.211,0.247 -0.235,0.283 -0.253,0.311 -0.267,0.331 -0.275,0.343 -0.277,0.349 -0.279,0.353 -0.283,0.359 -0.286,0.366 -0.29,0.373 -0.295,0.381 -0.3,0.39 -0.306,0.4 -0.312,0.411 -0.318,0.421 -0.324,0.431 -0.329,0.44 -0.332,0.449 -0.337,0.457 -0.339,0.465 -0.343,0.471 -0.344,0.479 -0.346,0.484 -0.347,0.49 -0.347,0.495 -0.347,0.499 -0.346,0.503 -0.345,0.507 -0.343,0.509 -0.341,0.512 -0.338,0.514 -0.334,0.515 -0.331,0.516 -0.325,0.516 -0.321,0.516 -0.315,0.515 -0.309,0.513 -0.302,0.512 -0.294,0.51 -0.287,0.506 -0.278,0.503 -0.269,0.499 -0.26,0.495 -0.249,0.489 -0.239,0.484 -0.228,0.478 -0.216,0.472 -0.204,0.465 -0.192,0.459 -0.179,0.451 -0.165,0.444 -0.153,0.437 -0.138,0.429 -0.125,0.421 -0.111,0.414 -0.102,0.408 -0.092,0.404 -0.085,0.399 -0.08,0.396 -0.076,0.394 -0.075,0.394 v -0.41 l 10e-4,-0.41 v -0.411 -0.411 l 0.01,-0.413 0.01,-0.415 0.01,-0.416 0.013,-0.418 0.017,-0.421 0.02,-0.423 0.023,-0.425 0.026,-0.426 0.029,-0.428 0.032,-0.428 0.034,-0.428 0.036,-0.429 0.039,-0.428 0.04,-0.428 0.042,-0.428 0.044,-0.427 0.046,-0.427 0.048,-0.426 0.05,-0.425 0.051,-0.425 0.053,-0.425 0.055,-0.423 0.057,-0.423 0.059,-0.422 0.06,-0.421 0.061,-0.42 0.064,-0.42 0.065,-0.418 0.066,-0.417 0.068,-0.416 0.069,-0.415 0.071,-0.413 0.073,-0.413 0.073,-0.411 0.076,-0.409 0.076,-0.409 0.078,-0.407 0.079,-0.406 0.082,-0.405 0.083,-0.406 0.086,-0.407 0.089,-0.409 0.091,-0.41 0.095,-0.414 0.098,-0.416 0.102,-0.419 0.105,-0.421 0.108,-0.422 0.112,-0.423 0.115,-0.423 0.118,-0.422 0.122,-0.421 0.125,-0.419 0.127,-0.417 0.131,-0.415 0.134,-0.413 0.136,-0.411 0.139,-0.409 0.142,-0.407 0.145,-0.404 0.146,-0.403 0.15,-0.4 0.151,-0.398 0.154,-0.395 0.156,-0.394 0.158,-0.391 0.16,-0.388 0.162,-0.387 0.164,-0.384 0.165,-0.381 0.167,-0.379 0.169,-0.376 0.17,-0.375 0.171,-0.371 0.173,-0.369 0.174,-0.366 0.176,-0.364 0.176,-0.361 0.177,-0.358 0.178,-0.356 0.179,-0.353 0.18,-0.35 0.18,-0.347 0.181,-0.345 0.181,-0.342 0.182,-0.338 0.182,-0.336 0.183,-0.333 0.182,-0.331 0.182,-0.327 0.183,-0.324 0.182,-0.321 0.183,-0.318 0.181,-0.315 0.182,-0.312 0.181,-0.309 0.181,-0.305 0.18,-0.303 0.179,-0.299 0.178,-0.296 0.178,-0.293 0.177,-0.289 0.175,-0.286 0.175,-0.283 0.173,-0.279 0.172,-0.276 0.171,-0.272 0.169,-0.269 0.166,-0.264 0.156,-0.253 0.135,-0.231 0.106,-0.203 0.067,-0.166 0.02,-0.119 -0.038,-0.066 -0.092,-0.014 -0.189,0.078 -0.244,0.129 -0.3,0.183 -0.349,0.228 -0.388,0.266 -0.418,0.294 -0.439,0.314 -0.449,0.326 -0.454,0.33 -0.456,0.333 -0.458,0.335 -0.459,0.338 -0.461,0.341 -0.462,0.342 -0.464,0.345 -0.464,0.348 -0.466,0.349 -0.466,0.351 -0.466,0.353 -0.467,0.355 -0.467,0.356 -0.467,0.358 -0.467,0.359 -0.467,0.36 -0.465,0.362 -0.466,0.363 -0.464,0.363 -0.463,0.365 -0.462,0.365 -0.46,0.366 -0.459,0.366 -0.457,0.367 -0.456,0.368 -0.452,0.367 -0.451,0.368 -0.448,0.367 -0.446,0.367 -0.442,0.368 -0.44,0.367 -0.436,0.366 -0.433,0.366 -0.43,0.365 -0.426,0.365 -0.422,0.363 -0.418,0.363 -0.413,0.362 -0.409,0.36 -0.405,0.359 -0.4,0.358 -0.394,0.356 -0.39,0.355 -0.384,0.353 -0.379,0.351 -0.373,0.349 -0.368,0.347 -0.361,0.345 -0.355,0.343 -0.349,0.34 -0.342,0.338 -0.336,0.335 -0.328,0.333 -0.322,0.33 -0.314,0.327 -0.307,0.324 -0.3,0.321 -0.292,0.318 -0.285,0.314 -0.278,0.311 -0.271,0.309 -0.265,0.304 -0.258,0.302 -0.253,0.298 -0.247,0.295 -0.242,0.292 -0.238,0.291 -0.235,0.289 -0.232,0.289 -0.231,0.289 -0.23,0.291 -0.23,0.292 -0.231,0.295 -0.232,0.298 -0.232,0.3 -0.234,0.303 -0.234,0.306 -0.234,0.309 -0.235,0.312 -0.235,0.314 -0.236,0.318 -0.236,0.321 -0.235,0.323 -0.236,0.327 -0.236,0.33 -0.235,0.333 -0.235,0.336 -0.235,0.34 -0.234,0.343 -0.234,0.346 -0.233,0.35 -0.233,0.353 -0.231,0.356 -0.231,0.36 -0.229,0.364 -0.229,0.367 -0.227,0.37 -0.226,0.375 -0.225,0.378 -0.223,0.381 -0.222,0.386 -0.22,0.389 -0.218,0.393 -0.216,0.398 -0.215,0.4 -0.212,0.405 -0.21,0.409 -0.209,0.414 -0.206,0.417 -0.203,0.421 -0.201,0.425 -0.199,0.43 -0.196,0.434 -0.193,0.438 -0.19,0.443 -0.187,0.447 -0.185,0.451 -0.181,0.456 -0.178,0.46 -0.175,0.465 -0.171,0.469 -0.168,0.474 -0.165,0.479 -0.161,0.483 -0.157,0.488 -0.153,0.493 -0.149,0.498 -0.146,0.502 -0.141,0.508 -0.137,0.511 -0.133,0.516 -0.129,0.519 -0.123,0.521 -0.119,0.524 -0.115,0.525 -0.109,0.527 -0.105,0.527 -0.1,0.528 -0.095,0.528 -0.09,0.528 -0.085,0.529 -0.081,0.528 -0.076,0.529 -0.072,0.528 -0.067,0.528 -0.063,0.528 -0.059,0.527 -0.054,0.527 -0.05,0.527 -0.046,0.527 -0.041,0.526 -0.038,0.525 -0.034,0.526 -0.029,0.525 -0.026,0.524 -0.022,0.525 -0.017,0.524 -0.014,0.523 -0.011,0.523 -0.01,0.523 v 0.522 0.519 0.516 l 0.01,0.509 0.01,0.502 0.01,0.492 0.011,0.48 0.012,0.467 0.012,0.452 0.013,0.439 0.013,0.427 0.013,0.418 0.014,0.41 0.014,0.404 0.014,0.4 0.014,0.399 -0.141,-0.403 -0.141,-0.403 -0.14,-0.403 -0.14,-0.404 -0.138,-0.405 -0.137,-0.407 -0.136,-0.407 -0.133,-0.409 -0.132,-0.411 -0.129,-0.412 -0.126,-0.414 -0.124,-0.416 -0.122,-0.418 -0.118,-0.419 -0.115,-0.421 -0.113,-0.422 -0.108,-0.424 -0.106,-0.425 -0.101,-0.427 -0.098,-0.428 -0.094,-0.43 -0.09,-0.431 -0.085,-0.433 -0.082,-0.434 -0.077,-0.435 -0.072,-0.437 -0.068,-0.438 -0.063,-0.439 -0.059,-0.441 -0.053,-0.442 -0.048,-0.443 -0.042,-0.445 -0.038,-0.445 -0.032,-0.448 -0.026,-0.448 -0.02,-0.449 -0.014,-0.451 -0.01,-0.452 v -0.453 -0.454 l 0.011,-0.455 0.017,-0.458 0.023,-0.46 0.03,-0.464 0.037,-0.469 0.044,-0.474 0.051,-0.481 0.058,-0.488 0.064,-0.496 0.072,-0.502 0.077,-0.506 0.083,-0.509 0.089,-0.508 0.093,-0.507 0.098,-0.503 0.102,-0.496 0.105,-0.489 0.109,-0.48 0.113,-0.473 0.116,-0.465 0.12,-0.458 0.123,-0.451 0.126,-0.444 0.13,-0.437 0.133,-0.431 0.136,-0.425 0.14,-0.418 0.143,-0.412 0.146,-0.407 0.15,-0.401 0.152,-0.396 0.156,-0.391 0.159,-0.386 0.162,-0.381 0.165,-0.377 0.167,-0.372 0.172,-0.369 0.173,-0.365 0.177,-0.361 0.18,-0.357 0.183,-0.354 0.185,-0.352 0.189,-0.348 0.191,-0.346 0.193,-0.343 0.197,-0.341 0.199,-0.339 0.202,-0.338 0.205,-0.335 0.207,-0.335 0.21,-0.333 0.212,-0.332 0.215,-0.331 0.217,-0.331 0.22,-0.331 0.222,-0.33 0.225,-0.33 0.227,-0.331 0.229,-0.331 0.232,-0.331 0.234,-0.333 0.236,-0.333 0.238,-0.335 0.241,-0.336 0.243,-0.338 0.245,-0.34 0.247,-0.342 0.249,-0.344 0.251,-0.347 0.253,-0.349 0.255,-0.352 0.257,-0.356 0.258,-0.357 0.249,-0.35 0.231,-0.335 0.203,-0.308 0.165,-0.273 0.117,-0.227 0.059,-0.172 v -0.12 l -0.098,-0.022 -0.156,0.031 -0.22,0.089 -0.276,0.14 -0.325,0.181 -0.367,0.215 -0.402,0.241 -0.43,0.258 -0.45,0.268 -0.47,0.278 -0.489,0.287 -0.506,0.297 -0.523,0.307 -0.538,0.316 -0.554,0.328 -0.568,0.337 -0.581,0.349 -0.593,0.359 -0.605,0.371 -0.615,0.382 -0.625,0.393 -0.634,0.406 -0.642,0.417 -0.649,0.43 -0.655,0.442 -0.661,0.455 -0.666,0.467 -0.668,0.481 -0.672,0.494 -0.674,0.507 -0.674,0.521 -0.675,0.535 -0.674,0.55 -0.672,0.563 -0.67,0.578 -0.667,0.593 -0.663,0.608 -0.657,0.623 -0.651,0.638 -0.645,0.654 -0.637,0.67 -0.629,0.685 -0.619,0.703 -0.608,0.718 -0.598,0.735 -0.585,0.752 -0.573,0.769 -0.559,0.787 -0.544,0.803 -0.528,0.822 -0.512,0.84 -0.495,0.857 -0.477,0.876 -0.458,0.895 -0.438,0.913 -0.417,0.932 -0.396,0.952 -0.373,0.971 -0.349,0.99 -0.326,1.01 -0.3,1.031 -0.274,1.05 -0.248,1.071 -0.22,1.092 -0.191,1.111 -0.163,1.122 -0.136,1.124 -0.109,1.116 -0.083,1.098 -0.057,1.071 -0.033,1.034 -0.01,0.988 0.016,0.934 0.04,0.884 0.061,0.839 0.082,0.801 0.103,0.767 0.122,0.739 0.14,0.718 0.157,0.702 0.174,0.691 0.19,0.68 0.205,0.67 0.22,0.661 0.234,0.65 0.249,0.641 0.263,0.631 0.276,0.622 0.289,0.613 0.301,0.603 0.313,0.594 0.325,0.586 0.335,0.576 0.347,0.568 0.357,0.559 0.366,0.551 0.376,0.543 0.385,0.535 0.393,0.526 0.402,0.519 0.409,0.51 0.416,0.503 0.423,0.496 0.429,0.488 0.435,0.481 0.441,0.474 0.445,0.467 0.45,0.46 0.455,0.453 0.458,0.447 0.461,0.44 0.464,0.433 0.466,0.428 0.469,0.421 0.47,0.415 0.471,0.41 0.471,0.404 0.472,0.398 0.472,0.393 0.471,0.387 0.47,0.382 0.468,0.377 0.467,0.372 0.464,0.367 0.461,0.363 0.458,0.358 0.454,0.353 0.45,0.35 0.445,0.345 0.442,0.341 0.438,0.338 0.435,0.336 0.433,0.333 0.432,0.332 0.43,0.331 0.429,0.33 0.365,0.305 0.364,0.306 0.362,0.306 0.361,0.308 0.357,0.31 0.353,0.312 0.349,0.315 0.344,0.318 0.337,0.323 0.332,0.325 0.324,0.329 0.317,0.332 0.309,0.334 0.301,0.337 0.292,0.339 0.284,0.34 0.274,0.342 0.264,0.344 0.256,0.344 0.246,0.345 0.238,0.346 0.228,0.347 0.221,0.347 0.212,0.348 0.203,0.347 0.196,0.348 0.187,0.347 0.18,0.347 0.172,0.347 0.164,0.346 0.157,0.344 0.15,0.344 0.143,0.343 0.136,0.341 0.129,0.34 0.122,0.338 0.116,0.336 0.11,0.335 0.104,0.332 0.097,0.33 0.092,0.327 0.086,0.324 0.08,0.322 0.075,0.319 0.069,0.315 0.065,0.312 0.059,0.309 0.055,0.305 0.05,0.301 0.046,0.298 0.041,0.293 0.037,0.288 0.033,0.285 0.029,0.279 0.025,0.275 0.021,0.27 0.018,0.264 0.015,0.26 0.012,0.254 0.01,0.248 0.01,0.242 v 0.237 0.23 0.224 0.218 l -0.01,0.211 -0.01,0.204 -0.011,0.197 -0.012,0.19 -0.013,0.183 -0.015,0.175 -0.016,0.168 -0.017,0.159 -0.015,0.146 -0.011,0.127 v 0.103 0.074 l 0.017,0.039 0.031,-10e-4 0.045,-0.039 0.071,-0.105 0.084,-0.141 0.099,-0.18 0.111,-0.211 0.121,-0.237 0.128,-0.256 0.133,-0.269 0.136,-0.276 0.093,-0.218 0.093,-0.219 0.093,-0.22 0.093,-0.223 0.093,-0.225 0.093,-0.229 0.094,-0.232 0.094,-0.238 0.094,-0.242 0.095,-0.248 0.094,-0.253 0.094,-0.258 0.094,-0.263 0.094,-0.268 0.093,-0.273 0.092,-0.277 0.091,-0.282 0.09,-0.286 0.089,-0.29 0.087,-0.294 0.086,-0.299 0.084,-0.302 0.082,-0.306 0.08,-0.309 0.078,-0.313 0.075,-0.317 0.073,-0.32 0.07,-0.323 0.068,-0.326 0.064,-0.329 0.061,-0.331 0.057,-0.335 0.055,-0.337 0.05,-0.339 0.047,-0.342 0.042,-0.344 0.039,-0.346 0.034,-0.349 0.029,-0.35 0.025,-0.351 0.02,-0.354 0.015,-0.354 0.01,-0.357 0.01,-0.357 -10e-4,-0.359 -0.01,-0.36 -0.012,-0.36 -0.018,-0.362 -0.025,-0.362 -0.03,-0.363 -0.036,-0.363 -0.041,-0.364 -0.048,-0.365 -0.052,-0.366 -0.059,-0.366 -0.063,-0.366 -0.068,-0.367 -0.073,-0.366 -0.076,-0.365 -0.079,-0.361 -0.08,-0.356 -0.082,-0.351 -0.082,-0.344 -0.081,-0.335 -0.08,-0.326 -0.079,-0.317 -0.078,-0.31 -0.077,-0.305 -0.076,-0.299 -0.076,-0.296 -0.075,-0.293 -0.075,-0.292 0.27,0.267 0.271,0.269 0.271,0.27 0.27,0.273 0.27,0.278 0.269,0.282 0.269,0.288 0.269,0.296 0.268,0.303 0.267,0.312 0.266,0.32 0.265,0.331 0.264,0.34 0.262,0.35 0.261,0.361 0.259,0.372 0.258,0.385 0.255,0.396 0.253,0.409 0.251,0.422 0.249,0.435 0.246,0.45 0.243,0.464 0.24,0.478 0.237,0.494 0.234,0.511 0.23,0.527 0.226,0.545 0.222,0.564 0.218,0.583 0.213,0.604 0.208,0.625 0.202,0.647 0.196,0.664 0.189,0.68 0.18,0.69 0.169,0.698 0.158,0.701 0.145,0.701 0.13,0.698 0.116,0.69 0.101,0.683 0.086,0.675 0.072,0.668 0.059,0.66 0.045,0.651 0.032,0.644 0.02,0.635 0.01,0.627 v 0.618 l -0.014,0.61 -0.026,0.602 -0.036,0.592 -0.046,0.584 -0.055,0.575 -0.064,0.565 -0.073,0.557 -0.081,0.547 -0.089,0.538 -0.096,0.528 -0.104,0.519 -0.109,0.509 -0.116,0.5 -0.121,0.489 -0.127,0.479 -0.131,0.47 -0.136,0.458 -0.14,0.449 -0.143,0.438 -0.147,0.428 -0.149,0.417 -0.152,0.406 -0.153,0.396 -0.155,0.384 -0.155,0.373 -0.157,0.363 -0.156,0.35 -0.157,0.34 -0.155,0.328 -0.155,0.316 -0.153,0.305 -0.152,0.295 -0.15,0.286 -0.15,0.278 -0.149,0.273 -0.148,0.268 -0.148,0.266 -0.148,0.264 -0.15,0.218 -0.146,0.214 -0.14,0.206 -0.128,0.193 -0.115,0.177 -0.097,0.155 -0.076,0.131 -0.056,0.107 -0.019,0.063 v 0.038 l 0.028,0.01"
         id="path6"
         style="fill:#ffbf00;fill-opacity:1;stroke:#ffbf00;stroke-width:1;stroke-miterlimit:4;stroke-dasharray:none;stroke-opacity:1"
         inkscape:label="Flame"
         sodipodi:insensitive="true" />
      <path
         fill="none"
         stroke-width="3"
         stroke-linecap="butt"
         stroke-opacity="1"
         stroke="#000000"
         stroke-linejoin="round"
         d="m 1731.807,695.296 0.432,0.177 0.43,0.169 0.429,0.158 0.426,0.15 0.429,0.14 0.46,0.135 0.528,0.135 0.628,0.141 0.756,0.151 0.871,0.153 0.965,0.151 1.04,0.138 1.095,0.122 1.144,0.103 1.188,0.085 1.229,0.068 1.264,0.05 1.296,0.033 1.323,0.016 h 1.346 l 1.364,-0.017 1.379,-0.032 1.389,-0.048 1.395,-0.063 1.396,-0.078 1.393,-0.092 1.387,-0.107 1.374,-0.121 1.359,-0.134 1.339,-0.148 1.315,-0.161 1.286,-0.174 1.253,-0.186 1.216,-0.198 1.174,-0.21 1.128,-0.222 1.079,-0.233 1.024,-0.244 0.965,-0.254 0.902,-0.265 0.834,-0.273 0.76,-0.277 0.677,-0.273 0.586,-0.263 0.494,-0.248 0.418,-0.239 0.364,-0.237 0.332,-0.244 0.317,-0.258 0.307,-0.273 0.297,-0.289 0.287,-0.305 0.277,-0.324 0.268,-0.342 0.26,-0.361 0.25,-0.38 0.243,-0.402 0.234,-0.422 0.226,-0.445 0.219,-0.467 0.211,-0.491 0.205,-0.515 0.198,-0.54 0.191,-0.565 0.186,-0.593 0.179,-0.619 0.174,-0.648 0.169,-0.676 0.163,-0.706 0.159,-0.735 0.155,-0.767 0.151,-0.799 0.146,-0.83 0.143,-0.864 0.14,-0.898 0.136,-0.933 0.134,-0.96 0.125,-0.952 0.114,-0.899 0.096,-0.801 0.076,-0.675 0.052,-0.579 0.026,-0.531 v -0.527 l -0.032,-0.557 -0.076,-0.569 -0.135,-0.553 -0.207,-0.508 -0.297,-0.43 -0.359,-0.359 -0.402,-0.289 -0.419,-0.224 -0.418,-0.162 -0.424,-0.113 -0.44,-0.076 -0.468,-0.051 -0.505,-0.038 -0.547,-0.026 -0.588,-0.016 -0.631,-0.006 -0.676,0.003 -0.723,0.012 -0.77,0.019 -0.82,0.027 -0.871,0.034 -0.936,0.037 -1.015,0.04 -1.108,0.039 -1.207,0.035 -1.284,0.026 -1.332,0.011 -1.348,-0.01 -1.339,-0.038 -1.316,-0.067 -1.281,-0.099 -1.235,-0.132 -1.179,-0.167 -1.114,-0.205 -1.039,-0.243 -0.956,-0.285 -0.866,-0.327 -0.772,-0.372 -0.678,-0.419 -0.583,-0.468 -0.488,-0.517 -0.398,-0.57 -0.317,-0.625 -0.243,-0.68 -0.177,-0.738 -0.122,-0.799 -0.077,-0.86 -0.042,-0.924 -0.016,-0.989 0.013,-1.057 0.045,-1.127 0.082,-1.198 0.12,-1.27 0.15,-1.346 0.168,-1.423 0.175,-1.502 0.172,-1.573 0.169,-1.598 0.167,-1.567 0.167,-1.481 0.17,-1.353 0.171,-1.25 0.175,-1.182 0.178,-1.154 0.183,-1.158 0.186,-1.166 0.191,-1.175 0.195,-1.183 0.198,-1.191 0.202,-1.198 0.206,-1.205 0.209,-1.21 0.212,-1.217 0.216,-1.222 0.219,-1.227 0.221,-1.231 0.225,-1.235 0.227,-1.239 0.23,-1.242 0.232,-1.244 0.235,-1.246 0.236,-1.248 0.239,-1.249 0.241,-1.25 0.243,-1.249 0.245,-1.25 0.246,-1.248 0.248,-1.248 0.249,-1.246 0.251,-1.244 0.252,-1.241 0.253,-1.238 0.253,-1.231 0.251,-1.21 0.246,-1.169 0.238,-1.112 0.229,-1.041 0.22,-0.982 0.215,-0.94 0.213,-0.917 0.213,-0.907 0.213,-0.9 0.214,-0.892 0.214,-0.882 0.214,-0.872 0.213,-0.86 0.213,-0.847 0.212,-0.834 0.212,-0.818 0.21,-0.803 0.209,-0.785 0.207,-0.767 0.206,-0.748 0.203,-0.728 0.202,-0.706 0.199,-0.684 0.197,-0.66 0.193,-0.635 0.191,-0.61 0.188,-0.583 0.186,-0.557 0.191,-0.543 0.205,-0.543 0.229,-0.557 0.258,-0.577 0.295,-0.579 0.333,-0.556 0.376,-0.51 0.42,-0.441 0.447,-0.376 0.457,-0.315 0.448,-0.26 0.426,-0.213 0.409,-0.175 0.407,-0.148 0.415,-0.133 0.435,-0.126 0.456,-0.12 0.478,-0.116 0.497,-0.111 0.519,-0.105 0.539,-0.101 0.559,-0.096 0.579,-0.09 0.599,-0.085 0.618,-0.08 0.638,-0.075 0.657,-0.069 0.676,-0.064 0.695,-0.059 0.713,-0.053 0.732,-0.048 0.749,-0.042 0.768,-0.037 0.785,-0.031 0.803,-0.025 0.816,-0.02 0.804,-0.015 0.765,-0.011 0.696,-0.007 0.608,-0.005 0.535,-0.002 0.487,-10e-4 h 0.463 0.459 0.458 0.459 0.459 0.459 0.458 0.459 0.459 0.458 0.459 0.459 0.459 0.458 0.459 0.459 0.459 0.458 0.459 0.459 0.458 0.459 0.459 0.459 0.458 l 0.46,-0.003 0.465,-0.022 0.474,-0.059 0.489,-0.111 0.508,-0.197 0.518,-0.316 0.522,-0.486 0.516,-0.704 0.502,-0.963 0.49,-1.231 0.476,-1.501 0.464,-1.774 0.452,-2.026 0.427,-2.169 0.39,-2.18 0.34,-2.058 0.278,-1.829 0.208,-1.585 0.133,-1.35 0.049,-1.122 -0.036,-0.911 -0.116,-0.737 -0.186,-0.61 -0.244,-0.529 -0.3,-0.48 -0.35,-0.447 -0.404,-0.412 -0.458,-0.379 -0.514,-0.349 -0.572,-0.319 -0.631,-0.291 -0.692,-0.265 -0.753,-0.241 -0.817,-0.219 -0.882,-0.197 -0.948,-0.177 -1.015,-0.16 -1.085,-0.144 -1.156,-0.129 -1.228,-0.116 -1.288,-0.105 -1.283,-0.092 -1.201,-0.078 -1.04,-0.063 -0.824,-0.047 -0.645,-0.035 -0.526,-0.026 -0.466,-0.023 -0.456,-0.021 -0.456,-0.022 -0.455,-0.022 -0.456,-0.021 -0.456,-0.022 -0.456,-0.022 -0.456,-0.021 -0.456,-0.022 -0.456,-0.022 -0.456,-0.021 -0.456,-0.022 -0.456,-0.022 -0.456,-0.021 -0.456,-0.022 -0.455,-0.022 -0.456,-0.021 -0.456,-0.022 -0.456,-0.022 -0.456,-0.021 -0.456,-0.022 -0.456,-0.022 -0.456,-0.021 -0.456,-0.022 -0.456,-0.022 -0.455,-0.024 -0.454,-0.045 -0.451,-0.084 -0.446,-0.143 -0.434,-0.216 -0.401,-0.283 -0.338,-0.339 -0.247,-0.384 -0.127,-0.486 0.038,-0.925 0.247,-1.767 0.502,-3.016 0.772,-4.465 0.923,-5.296 0.925,-5.307 0.779,-4.497 0.516,-3.07 0.278,-1.841 0.095,-1.016 -0.028,-0.594 -0.106,-0.506 -0.181,-0.476 -0.263,-0.432 -0.349,-0.382 -0.449,-0.313 -0.507,-0.259 -0.537,-0.21 -0.531,-0.171 -0.5,-0.14 -0.474,-0.116 -0.464,-0.099 -0.467,-0.09 -0.485,-0.084 -0.502,-0.082 -0.52,-0.078 -0.537,-0.075 -0.553,-0.071 -0.568,-0.067 -0.582,-0.064 -0.596,-0.059 -0.608,-0.056 -0.621,-0.051 -0.632,-0.047 -0.643,-0.042 -0.652,-0.038 -0.662,-0.033 -0.67,-0.028 -0.677,-0.024 -0.688,-0.018 -0.72,-0.014 -0.774,-0.009 -0.854,-0.004 -0.946,-0.001 -1.01,0.004 -1.034,0.008 -1.017,0.014 -0.967,0.019 -0.914,0.025 -0.861,0.032 -0.812,0.041 -0.763,0.049 -0.718,0.06 -0.675,0.071 -0.634,0.084 -0.595,0.096 -0.558,0.11 -0.524,0.125 -0.491,0.141 -0.462,0.159 -0.433,0.176 -0.408,0.195 -0.385,0.214 -0.362,0.236 -0.344,0.258 -0.327,0.28 -0.312,0.304 -0.3,0.328 -0.29,0.355 -0.281,0.381 -0.276,0.409 -0.272,0.437 -0.27,0.467 -0.271,0.497 -0.274,0.529 -0.29,0.619 -0.364,1.001 -0.505,1.732 -0.715,2.811 -0.956,4.062 -1.082,4.769 -1.058,4.752 -0.882,4.013 -0.596,2.734 -0.37,1.644 -0.245,0.927 -0.222,0.581 -0.28,0.539 -0.335,0.532 -0.369,0.49 -0.379,0.414 -0.372,0.315 -0.372,0.228 -0.382,0.166 -0.406,0.125 -0.438,0.104 -0.475,0.089 -0.513,0.074 -0.554,0.061 -0.596,0.05 -0.639,0.039 -0.685,0.03 -0.73,0.022 -0.775,0.016 -0.804,0.011 -0.813,0.009 -0.804,0.008 -0.78,0.01 -0.749,0.014 -0.717,0.018 -0.681,0.023 -0.645,0.032 -0.609,0.039 -0.575,0.048 -0.544,0.058 -0.514,0.067 -0.486,0.077 -0.463,0.088 -0.442,0.099 -0.422,0.112 -0.406,0.123 -0.39,0.137 -0.374,0.15 -0.361,0.164 -0.347,0.179 -0.335,0.193 -0.325,0.209 -0.314,0.226 -0.305,0.242 -0.297,0.259 -0.29,0.277 -0.283,0.295 -0.279,0.315 -0.274,0.333 -0.271,0.354 -0.269,0.373 -0.267,0.395 -0.268,0.416 -0.268,0.439 -0.268,0.458 -0.264,0.468 -0.253,0.464 -0.236,0.446 -0.214,0.419 -0.196,0.397 -0.182,0.387 -0.175,0.384 -0.172,0.39 -0.169,0.398 -0.166,0.403 -0.163,0.41 -0.159,0.414 -0.156,0.419 -0.153,0.423 -0.149,0.426 -0.144,0.429 -0.141,0.431 -0.136,0.431 -0.132,0.433 -0.127,0.432 -0.122,0.432 -0.117,0.43 -0.112,0.429 -0.106,0.425 -0.101,0.423 -0.095,0.418 -0.089,0.414 -0.083,0.413 -0.078,0.426 -0.073,0.462 -0.07,0.516 -0.065,0.585 -0.056,0.648 -0.04,0.701 -0.016,0.74 0.013,0.768 0.048,0.769 0.087,0.744 0.131,0.691 0.181,0.616 0.239,0.541 0.305,0.471 0.378,0.408 0.462,0.341 0.517,0.287 0.546,0.233 0.55,0.181 0.533,0.134 0.526,0.096 0.535,0.068 0.561,0.05 0.602,0.041 0.647,0.033 0.692,0.027 0.739,0.021 0.787,0.016 0.838,0.012 0.89,0.009 0.945,0.007 0.997,0.008 1.021,0.011 1.014,0.018 0.974,0.028 0.908,0.042 0.839,0.06 0.771,0.081 0.704,0.106 0.641,0.135 0.578,0.167 0.519,0.205 0.461,0.244 0.405,0.289 0.349,0.337 0.293,0.389 0.237,0.445 0.18,0.504 0.122,0.567 0.06,0.634 v 0.706 l -0.104,0.994 -0.385,2.358 -0.88,5.01 -1.589,8.951 -1.745,9.847 -0.654,3.693 -1.73,9.849 -1.116,6.357 -1.702,9.854 -1.115,6.455 -1.645,9.863 -0.665,3.986 -1.445,9.458 -0.696,5.671 -0.182,3.119 0.097,1.802 0.182,1.516 0.228,1.441 0.277,1.373 0.327,1.309 0.378,1.252 0.43,1.2 0.482,1.155 0.534,1.115 0.578,1.075 0.59,1.002 0.564,0.891 0.498,0.743 0.405,0.571 0.33,0.43 0.284,0.337 0.269,0.29 0.278,0.282 0.291,0.283 0.304,0.282 0.317,0.281 0.328,0.28 0.338,0.279 0.35,0.276 0.359,0.275 0.368,0.271 0.376,0.269 0.385,0.265 0.392,0.261 0.399,0.257 0.404,0.252 0.411,0.248 0.415,0.242 0.419,0.236 0.423,0.231 0.426,0.224 0.429,0.217 0.43,0.21 0.432,0.202 0.432,0.195 0.432,0.186"
         id="path26"
         style="fill:#ffbf00;fill-opacity:1;stroke:#ffbf00;stroke-width:1;stroke-miterlimit:4;stroke-dasharray:none;stroke-opacity:1"
         inkscape:label="T"
         sodipodi:insensitive="true" />
      <path
         fill="none"
         stroke-width="3"
         stroke-linecap="butt"
         stroke-opacity="1"
         stroke="#000000"
         stroke-linejoin="round"
         d="m 1623.912,581.49 0.098,-0.82 0.133,-0.827 0.157,-0.81 0.174,-0.769 0.179,-0.702 0.179,-0.616 0.18,-0.546 0.187,-0.496 0.197,-0.467 0.212,-0.459 0.227,-0.451 0.242,-0.445 0.257,-0.439 0.272,-0.431 0.287,-0.425 0.301,-0.417 0.315,-0.41 0.329,-0.402 0.343,-0.394 0.356,-0.386 0.37,-0.378 0.383,-0.37 0.397,-0.361 0.409,-0.353 0.421,-0.343 0.434,-0.335 0.447,-0.325 0.458,-0.316 0.47,-0.307 0.482,-0.296 0.494,-0.287 0.505,-0.276 0.516,-0.266 0.527,-0.256 0.537,-0.245 0.548,-0.234 0.559,-0.224 0.568,-0.212 0.58,-0.201 0.592,-0.19 0.605,-0.18 0.618,-0.17 0.628,-0.158 0.634,-0.145 0.637,-0.132 0.637,-0.117 0.637,-0.102 0.638,-0.086 0.64,-0.071 0.644,-0.056 0.648,-0.041 0.653,-0.025 0.66,-0.01 0.667,0.006 0.675,0.021 0.686,0.037 0.696,0.053 0.707,0.068 0.721,0.084 0.734,0.1 0.749,0.116 0.766,0.132 0.782,0.149 0.8,0.164 0.82,0.18 0.84,0.197 0.861,0.212 0.884,0.23 0.906,0.245 0.932,0.262 0.957,0.279 0.984,0.295 1.011,0.311 1.042,0.329 1.081,0.346 1.131,0.365 1.192,0.384 1.255,0.401 1.29,0.407 1.288,0.399 1.249,0.374 1.183,0.339 1.118,0.302 1.066,0.265 1.024,0.229 0.99,0.193 0.954,0.153 0.91,0.106 0.862,0.055 0.805,-0.002 0.74,-0.055 0.662,-0.104 0.575,-0.149 0.48,-0.191 0.401,-0.234 0.339,-0.28 0.297,-0.325 0.268,-0.38 0.251,-0.428 0.238,-0.48 0.232,-0.533 0.232,-0.586 0.23,-0.64 0.229,-0.695 0.225,-0.751 0.22,-0.806 0.213,-0.864 0.201,-0.922 0.185,-0.98 0.167,-1.034 0.143,-1.064 0.116,-1.063 0.085,-1.034 0.05,-0.979 0.013,-0.925 -0.024,-0.877 -0.061,-0.834 -0.101,-0.796 -0.138,-0.759 -0.176,-0.725 -0.213,-0.691 -0.249,-0.659 -0.288,-0.626 -0.327,-0.597 -0.367,-0.568 -0.415,-0.539 -0.459,-0.512 -0.507,-0.487 -0.556,-0.462 -0.609,-0.439 -0.662,-0.416 -0.717,-0.395 -0.775,-0.376 -0.835,-0.356 -0.896,-0.339 -0.96,-0.323 -1.025,-0.307 -1.093,-0.293 -1.161,-0.28 -1.234,-0.268 -1.306,-0.257 -1.382,-0.247 -1.458,-0.24 -1.538,-0.232 -1.619,-0.225 -1.71,-0.22 -1.839,-0.211 -2.014,-0.199 -2.238,-0.182 -2.485,-0.159 -2.677,-0.122 -2.791,-0.069 -2.831,10e-4 -2.803,0.084 -2.764,0.169 -2.72,0.252 -2.675,0.336 -2.627,0.417 -2.578,0.496 -2.526,0.576 -2.472,0.654 -2.416,0.73 -2.357,0.806 -2.297,0.88 -2.234,0.953 -2.17,1.025 -2.102,1.095 -2.032,1.164 -1.961,1.233 -1.888,1.3 -1.811,1.365 -1.733,1.431 -1.653,1.493 -1.571,1.556 -1.485,1.616 -1.399,1.677 -1.309,1.735 -1.219,1.792 -1.124,1.849 -1.029,1.903 -0.931,1.958 -0.832,2.007 -0.733,2.043 -0.636,2.062 -0.54,2.065 -0.446,2.051 -0.357,2.031 -0.272,2.004 -0.193,1.971 -0.116,1.933 -0.041,1.895 0.035,1.857 0.111,1.82 0.188,1.783 0.264,1.746 0.342,1.711 0.42,1.676 0.497,1.641 0.575,1.607 0.654,1.573 0.733,1.541 0.813,1.508 0.892,1.476 0.972,1.444 1.052,1.414 1.133,1.383 1.214,1.354 1.295,1.324 1.377,1.296 1.459,1.268 1.542,1.24 1.624,1.212 1.707,1.187 1.791,1.16 1.874,1.135 1.958,1.11 2.043,1.085 2.114,1.059 2.117,1.015 2.037,0.953 1.876,0.873 1.653,0.781 1.457,0.713 1.308,0.677 1.208,0.675 1.148,0.699 1.094,0.726 1.04,0.753 0.986,0.777 0.931,0.802 0.875,0.823 0.819,0.844 0.762,0.863 0.705,0.88 0.646,0.896 0.589,0.912 0.529,0.924 0.469,0.936 0.409,0.946 0.348,0.954 0.286,0.962 0.225,0.968 0.161,0.972 0.099,0.975 0.034,0.976 -0.03,0.976 -0.095,0.974 -0.16,0.971 -0.227,0.966 -0.294,0.961 -0.361,0.953 -0.429,0.943 -0.498,0.934 -0.567,0.92 -0.638,0.904 -0.71,0.883 -0.783,0.857 -0.859,0.827 -0.931,0.793 -1.003,0.753 -1.073,0.71 -1.139,0.663 -1.204,0.615 -1.264,0.568 -1.32,0.52 -1.373,0.472 -1.422,0.425 -1.468,0.376 -1.51,0.329 -1.548,0.281 -1.583,0.233 -1.613,0.185 -1.641,0.137 -1.665,0.089 -1.684,0.04 -1.701,-0.007 -1.714,-0.055 -1.723,-0.104 -1.728,-0.152 -1.73,-0.2 -1.728,-0.249 -1.723,-0.296 -1.713,-0.346 -1.7,-0.393 -1.684,-0.442 -1.666,-0.492 -1.657,-0.55 -1.659,-0.615 -1.672,-0.691 -1.68,-0.764 -1.619,-0.789 -1.473,-0.754 -1.243,-0.66 -0.955,-0.523 -0.719,-0.407 -0.561,-0.33 -0.482,-0.292 -0.47,-0.285 -0.469,-0.285 -0.469,-0.286 -0.469,-0.285 -0.47,-0.283 -0.475,-0.272 -0.483,-0.249 -0.496,-0.214 -0.513,-0.154 -0.529,-0.021 -0.542,0.2 -0.554,0.493 -0.56,0.884 -0.547,1.123 -0.511,1.237 -0.453,1.211 -0.378,1.074 -0.313,0.95 -0.265,0.867 -0.233,0.827 -0.213,0.823 -0.197,0.823 -0.18,0.824 -0.161,0.822 -0.142,0.82 -0.123,0.817 -0.104,0.812 -0.085,0.806 -0.066,0.799 -0.047,0.79 -0.028,0.782 -0.01,0.771 0.01,0.759 0.027,0.746 0.046,0.732 0.065,0.717 0.083,0.701 0.101,0.683 0.12,0.664 0.137,0.644 0.157,0.624 0.174,0.601 0.192,0.577 0.211,0.553 0.228,0.528 0.246,0.5 0.264,0.472 0.282,0.443 0.301,0.414 0.327,0.386 0.36,0.364 0.399,0.345 0.449,0.326 0.473,0.306 0.481,0.281 0.466,0.249 0.435,0.216 0.412,0.189 0.401,0.171 0.404,0.162 0.418,0.161 0.432,0.16 0.446,0.16 0.46,0.16 0.473,0.159 0.484,0.158 0.495,0.156 0.506,0.155 0.515,0.153 0.525,0.151 0.532,0.149 0.54,0.147 0.547,0.143 0.553,0.141 0.559,0.138 0.562,0.134 0.567,0.131 0.57,0.127 0.572,0.122 0.574,0.119 0.612,0.117 0.84,0.136 1.292,0.176 1.971,0.24 2.797,0.313 3.456,0.344 3.868,0.32 4.034,0.241 3.995,0.116 3.912,-0.017 3.826,-0.148 3.737,-0.277 3.646,-0.404 3.551,-0.531 3.454,-0.654 3.354,-0.777 3.25,-0.898 3.144,-1.018 3.036,-1.134 2.923,-1.251 2.809,-1.365 2.691,-1.477 2.571,-1.587 2.447,-1.697 2.32,-1.804 2.192,-1.91 2.059,-2.014 1.924,-2.116 1.787,-2.217 1.645,-2.316 1.502,-2.412 1.355,-2.509 1.206,-2.602 1.053,-2.695 0.898,-2.785 0.74,-2.874 0.582,-2.933 0.44,-2.852 0.315,-2.601 0.21,-2.184 0.122,-1.647 0.054,-1.203 0.01,-0.901 -0.022,-0.741 -0.034,-0.699 -0.042,-0.683 -0.054,-0.668 -0.063,-0.654 -0.076,-0.641 -0.089,-0.629 -0.102,-0.618 -0.116,-0.609 -0.131,-0.6 -0.147,-0.593 -0.165,-0.587 -0.181,-0.582 -0.201,-0.577 -0.219,-0.576 -0.24,-0.573 -0.261,-0.573 -0.283,-0.574 -0.306,-0.576 -0.329,-0.579 -0.354,-0.582 -0.378,-0.588 -0.405,-0.595 -0.432,-0.602 -0.46,-0.61 -0.488,-0.621 -0.517,-0.631 -0.548,-0.643 -0.579,-0.657 -0.608,-0.668 -0.622,-0.665 -0.618,-0.644 -0.597,-0.606 -0.562,-0.556 -0.539,-0.516 -0.531,-0.492 -0.537,-0.484 -0.557,-0.489 -0.578,-0.496 -0.599,-0.502 -0.617,-0.508 -0.636,-0.512 -0.652,-0.517 -0.668,-0.519 -0.683,-0.522 -0.696,-0.523 -0.709,-0.524 -0.719,-0.524 -0.73,-0.523 -0.739,-0.522 -0.746,-0.519 -0.754,-0.517 -0.759,-0.512 -0.763,-0.508 -0.767,-0.502 -0.769,-0.496 -0.771,-0.49 -0.77,-0.481 -0.769,-0.473 -0.766,-0.464 -0.764,-0.453 -0.759,-0.443 -0.753,-0.431 -0.747,-0.419 -0.739,-0.406 -0.736,-0.395 -0.769,-0.407 -0.841,-0.442 -0.956,-0.502 -1.093,-0.578 -1.195,-0.642 -1.241,-0.683 -1.236,-0.704 -1.184,-0.706 -1.126,-0.705 -1.067,-0.704 -1.011,-0.705 -0.953,-0.705 -0.899,-0.705 -0.844,-0.707 -0.79,-0.708 -0.738,-0.71 -0.685,-0.712 -0.634,-0.715 -0.585,-0.718 -0.535,-0.722 -0.487,-0.725 -0.439,-0.73 -0.392,-0.734 -0.347,-0.739 -0.302,-0.745 -0.258,-0.75 -0.215,-0.757 -0.172,-0.764 -0.131,-0.77 -0.091,-0.778 -0.051,-0.786 -0.012,-0.794 0.025,-0.802 0.062,-0.812"
         id="path24"
         style="fill:#ffbf00;fill-opacity:1;stroke:#ffbf00;stroke-width:1;stroke-miterlimit:4;stroke-dasharray:none;stroke-opacity:1"
         inkscape:label="S"
         sodipodi:insensitive="true" />
      <path
         id="path22"
         style="fill:#ffbf00;fill-opacity:1;stroke:#ffbf00;stroke-width:1;stroke-miterlimit:4;stroke-dasharray:none;stroke-opacity:1"
         inkscape:label="E"
         d="m 1503.2207,540.68359 -1.9512,0.0352 -1.9883,0.0703 -2.039,0.11133 -2.1387,0.16406 -2.3086,0.24024 -2.541,0.33593 -2.8144,0.44532 -3.0235,0.5625 -3.1426,0.68164 -3.1718,0.80273 -3.1289,0.92383 -3.0665,1.04688 -3.0058,1.16601 -2.9395,1.28516 -2.8789,1.40039 -2.8086,1.51758 -2.7441,1.63281 -2.6738,1.74414 -2.6035,1.85547 -2.5332,1.96484 -2.461,2.07422 -2.3867,2.17969 -2.3086,2.28515 -2.2344,2.38868 -2.1543,2.49218 -2.0761,2.5918 -1.9942,2.69141 -1.914,2.78906 -1.8282,2.88477 -1.7441,2.98046 -1.6582,3.07227 -1.5703,3.16601 -1.4825,3.25391 -1.3906,3.34375 -1.2988,3.43164 -1.207,3.51758 -1.1114,3.60156 -1.0175,3.6836 -0.918,3.75586 -0.8184,3.77148 -0.7129,3.72656 -0.6054,3.61524 -0.4922,3.45703 -0.3887,3.30469 -0.293,3.17968 -0.207,3.07618 -0.1269,2.99218 -0.051,2.91406 0.025,2.83204 0.1035,2.75586 0.1816,2.67382 0.2598,2.59766 0.3359,2.51758 0.4141,2.43945 0.4902,2.35938 0.5703,2.2832 0.6485,2.20312 0.7246,2.12696 0.8027,2.04687 0.8809,1.96875 0.959,1.89258 1.0371,1.81445 1.1152,1.73633 1.1934,1.66016 1.2714,1.58203 1.3497,1.50391 1.4277,1.42773 1.5078,1.34961 1.584,1.27539 1.6641,1.19727 1.7441,1.12109 1.8203,1.04297 1.8984,0.96875 1.9805,0.89062 2.0527,0.81446 2.1114,0.73828 2.1465,0.6582 2.1582,0.57617 2.1582,0.4961 2.1699,0.42187 2.1992,0.35938 2.25,0.30273 2.3125,0.25977 2.377,0.21289 2.4296,0.17187 2.4786,0.12891 2.5195,0.0879 2.5508,0.0469 2.5781,0.006 2.5957,-0.0332 2.6074,-0.0703 2.6133,-0.10938 2.6094,-0.14648 2.5976,-0.18164 2.5821,-0.2168 2.5566,-0.25391 2.5254,-0.28515 2.4863,-0.32031 2.4395,-0.35157 2.3867,-0.38281 2.3262,-0.41601 2.2578,-0.44336 2.1836,-0.47461 2.0996,-0.50196 2.0117,-0.53125 1.9141,-0.55859 1.8105,-0.58203 1.7012,-0.60938 1.5801,-0.63281 1.457,-0.6582 1.3223,-0.68164 1.1914,-0.69532 1.0547,-0.70507 0.9179,-0.70704 0.7852,-0.70507 0.6738,-0.71094 0.5918,-0.73047 0.5293,-0.75781 0.4961,-0.79688 0.4648,-0.83593 0.4336,-0.86719 0.4004,-0.89453 0.3672,-0.91797 0.3359,-0.93555 0.3047,-0.95117 0.2696,-0.95899 0.2363,-0.96289 0.2031,-0.96289 0.1699,-0.95898 0.1348,-0.94922 0.1,-0.93555 0.066,-0.91601 0.033,-0.89453 v -0.86524 l -0.039,-0.83203 -0.074,-0.79492 -0.1113,-0.75391 -0.1465,-0.70703 -0.1816,-0.65625 -0.2188,-0.60156 -0.2558,-0.53906 -0.293,-0.47461 -0.3301,-0.40625 -0.3672,-0.33008 -0.4062,-0.25195 -0.4414,-0.17188 -0.4863,-0.0781 -0.543,0.006 -0.6211,0.0918 -0.7187,0.17578 -0.8282,0.25586 -0.914,0.31641 -0.9766,0.35156 -1.0059,0.36133 -1.0136,0.35352 -1.0157,0.33984 -1.0214,0.32812 -1.0274,0.31641 -1.0312,0.30274 -1.0391,0.29101 -1.0469,0.28125 -1.0566,0.26758 -1.0664,0.25586 -1.0762,0.24414 -1.0879,0.23437 -1.1015,0.22266 -1.1133,0.21094 -1.1289,0.20117 -1.1465,0.18945 -1.1602,0.17969 -1.1777,0.16992 -1.1973,0.1582 -1.2148,0.14844 -1.2363,0.14063 -1.2579,0.1289 -1.2773,0.1211 -1.3008,0.10937 -1.3261,0.10352 -1.3516,0.0918 -1.377,0.084 -1.4023,0.0762 -1.4317,0.0664 -1.457,0.0586 -1.4746,0.0488 -1.4824,0.043 -1.4785,0.0352 -1.4629,0.0254 -1.4395,0.0195 -1.4004,0.01 -1.3515,0.004 -1.2949,-0.006 -1.2364,-0.0137 -1.1816,-0.0234 -1.125,-0.0312 -1.0762,-0.043 -1.0234,-0.0527 -0.9766,-0.0606 -0.9297,-0.0723 -0.8847,-0.084 -0.8457,-0.0937 -0.8028,-0.10547 -0.7636,-0.11523 -0.7305,-0.12891 -0.6934,-0.14062 -0.664,-0.1543 -0.6329,-0.16602 -0.6035,-0.17968 -0.5781,-0.19336 -0.5527,-0.20508 -0.5313,-0.22266 -0.5097,-0.23437 -0.4922,-0.25 -0.4746,-0.26563 -0.461,-0.2793 -0.4492,-0.29492 -0.4395,-0.3125 -0.4296,-0.32617 -0.4239,-0.34375 -0.416,-0.36133 -0.4121,-0.37304 -0.3984,-0.38086 -0.3848,-0.38477 -0.3691,-0.38476 -0.3516,-0.38672 -0.3379,-0.39063 -0.3242,-0.39648 -0.3145,-0.40039 -0.2988,-0.40821 -0.2891,-0.41797 -0.2773,-0.42578 -0.2676,-0.43359 -0.2539,-0.44336 -0.2441,-0.45508 -0.2324,-0.46484 -0.2247,-0.47461 -0.2109,-0.48633 -0.2012,-0.5 -0.1914,-0.51367 -0.1816,-0.52344 -0.1719,-0.53906 -0.1601,-0.55469 -0.1524,-0.56836 -0.1426,-0.58398 -0.1328,-0.59961 -0.123,-0.61524 -0.1153,-0.63281 -0.1054,-0.65039 -0.096,-0.66992 -0.09,-0.6875 -0.078,-0.70508 -0.072,-0.72656 -0.062,-0.7461 -0.055,-0.76757 -0.049,-0.78907 -0.039,-0.80664 -0.033,-0.80664 -0.024,-0.78906 -0.022,-0.74805 -0.012,-0.69336 -0.01,-0.64453 v -0.61133 -0.58984 -0.58398 -0.57618 l 0.01,-0.5664 0.01,-0.56055 0.01,-0.55078 0.014,-0.54102 0.014,-0.53125 0.016,-0.51953 0.02,-0.50781 0.021,-0.49805 0.022,-0.48437 0.025,-0.46875 0.025,-0.45899 0.031,-0.46289 0.039,-0.48437 0.047,-0.52149 0.061,-0.57031 0.082,-0.59375 0.1132,-0.58789 0.1524,-0.54492 0.1992,-0.48047 0.2461,-0.4082 0.2891,-0.33594 0.3242,-0.26367 0.3613,-0.19531 0.4004,-0.14063 0.4414,-0.10742 0.4922,-0.0918 0.541,-0.0937 0.5938,-0.0957 0.6425,-0.0996 0.6914,-0.10547 0.7383,-0.10547 0.7832,-0.11133 0.8262,-0.11328 0.8691,-0.11523 0.9122,-0.11719 0.9492,-0.12109 0.9883,-0.12305 1.0234,-0.125 1.0605,-0.12695 1.0938,-0.12891 1.125,-0.12891 1.1562,-0.13085 1.1856,-0.13282 1.2148,-0.13281 1.2403,-0.13477 1.2656,-0.13476 1.289,-0.13477 1.3106,-0.13476 1.332,-0.13477 1.3496,-0.13476 1.3809,-0.13672 1.4746,-0.14453 1.6426,-0.16407 1.8828,-0.19336 2.1719,-0.22656 2.3886,-0.25781 2.504,-0.2832 2.5214,-0.30079 2.4532,-0.31445 2.3711,-0.32812 2.2929,-0.33985 2.2168,-0.35156 2.1426,-0.36914 2.0703,-0.38281 2.002,-0.40039 1.9394,-0.41602 1.8731,-0.43359 1.8125,-0.45117 1.7578,-0.47071 1.7011,-0.49023 1.6485,-0.50977 1.5996,-0.53125 1.5527,-0.55078 1.5098,-0.57422 1.4668,-0.59375 1.4316,-0.61523 1.4004,-0.63477 1.3711,-0.65039 1.3477,-0.66797 1.3222,-0.68554 1.3008,-0.71094 1.2774,-0.74024 1.2539,-0.77148 1.2343,-0.80664 1.211,-0.84766 1.1894,-0.89257 1.1621,-0.93165 1.1075,-0.93554 1.0117,-0.89649 0.8847,-0.8125 0.7286,-0.69531 0.6015,-0.60156 0.5098,-0.53906 0.457,-0.50586 0.4356,-0.50391 0.4218,-0.50391 0.4063,-0.50781 0.3906,-0.51172 0.3789,-0.51367 0.3653,-0.51758 0.3515,-0.52539 0.3399,-0.53125 0.3242,-0.53906 0.3144,-0.54883 0.2989,-0.55859 0.2851,-0.57031 0.2735,-0.58399 0.2617,-0.59766 0.2461,-0.61328 0.2343,-0.6289 0.2247,-0.64649 0.2109,-0.66015 0.2012,-0.68164 0.1875,-0.70118 0.1777,-0.7207 0.166,-0.74023 0.1582,-0.76172 0.1465,-0.78516 0.1367,-0.80859 0.127,-0.83399 0.1152,-0.85742 0.1055,-0.88476 0.096,-0.90821 0.084,-0.92773 0.068,-0.9375 0.053,-0.93946 0.037,-0.93359 0.022,-0.92187 0.01,-0.9043 v -0.88281 l -0.01,-0.85547 -0.022,-0.83008 -0.031,-0.80469 -0.045,-0.7832 -0.059,-0.76172 -0.074,-0.74219 -0.088,-0.72461 -0.1016,-0.70703 -0.1172,-0.69336 -0.1289,-0.67773 -0.1425,-0.66797 -0.1543,-0.65625 -0.17,-0.64844 -0.1836,-0.64062 -0.1992,-0.63477 -0.2129,-0.63086 -0.2285,-0.6289 -0.2441,-0.62696 -0.2637,-0.62695 -0.2851,-0.62891 -0.3047,-0.63281 -0.3282,-0.63672 -0.3554,-0.64453 -0.3848,-0.65234 -0.416,-0.66211 -0.4512,-0.67383 -0.4883,-0.68555 -0.5293,-0.70117 -0.5781,-0.7168 -0.6328,-0.74609 -0.707,-0.78516 -0.793,-0.83398 -0.8848,-0.89258 -0.9668,-0.92773 -1.0312,-0.94336 -1.0742,-0.93164 -1.1074,-0.89844 -1.1348,-0.86328 -1.1621,-0.82617 -1.1934,-0.78907 h -0.01 l -1.2207,-0.7539 -1.25,-0.71875 -1.2793,-0.68164 -1.3106,-0.64453 -1.3418,-0.60938 -1.373,-0.57422 -1.4024,-0.53711 -1.4355,-0.50195 -1.4668,-0.46484 -1.4981,-0.42969 -1.5312,-0.39453 -1.5645,-0.35742 -1.5976,-0.32227 -1.6328,-0.28516 -1.668,-0.25 -1.6992,-0.21484 -1.7344,-0.17969 -1.7715,-0.14258 -1.8066,-0.10742 -1.8418,-0.0703 -1.877,-0.0352 z m -3.3203,23.18164 0.6934,0.008 0.6855,0.0254 0.6777,0.041 0.67,0.0547 0.6601,0.0742 0.6543,0.0879 0.6426,0.10742 0.6348,0.1211 0.625,0.13867 0.6269,0.16211 0.6406,0.18554 0.6699,0.22071 0.7012,0.25195 0.7227,0.28516 0.7246,0.30664 0.7031,0.32617 0.6699,0.33789 0.6328,0.34961 0.5977,0.35937 0.5625,0.37305 0.5273,0.38281 0.4942,0.39258 0.4629,0.4043 0.4316,0.41406 0.4024,0.42383 0.373,0.43359 0.3457,0.44336 0.3203,0.45313 0.2969,0.46289 0.2734,0.4707 0.2539,0.48047 0.2364,0.48828 0.2187,0.49609 0.2012,0.50586 0.1875,0.51368 0.1699,0.52148 0.1563,0.52734 0.1406,0.53516 0.125,0.54297 0.1113,0.55078 0.096,0.55664 0.08,0.56445 0.064,0.56836 0.049,0.57617 0.035,0.58399 0.016,0.59375 v 0.60937 l -0.016,0.63086 -0.035,0.65625 -0.053,0.66993 -0.066,0.67187 -0.082,0.66602 -0.094,0.64843 -0.1055,0.63282 -0.1172,0.61328 -0.1269,0.59765 -0.1387,0.58204 -0.1485,0.5664 -0.1582,0.55274 -0.1679,0.53906 -0.1797,0.52734 -0.1914,0.51563 -0.2051,0.5039 -0.2168,0.49414 -0.2305,0.48438 -0.248,0.47656 -0.2656,0.46875 -0.2872,0.46094 -0.3105,0.45508 -0.334,0.44922 -0.3594,0.44531 -0.3867,0.43945 -0.414,0.4375 -0.4434,0.4375 -0.4727,0.4336 -0.5039,0.43359 -0.5371,0.43164 -0.5683,0.43359 -0.6016,0.4375 -0.6387,0.4375 -0.6718,0.43946 -0.6953,0.43359 -0.7051,0.41797 -0.7032,0.39648 -0.6914,0.36524 -0.6836,0.33789 -0.6855,0.31055 -0.6934,0.29296 -0.7089,0.27735 -0.7266,0.26172 -0.7422,0.24804 -0.7578,0.23243 -0.7695,0.2207 -0.7852,0.20508 -0.7988,0.19531 -0.8106,0.18164 -0.8222,0.16992 -0.8321,0.1582 -0.8437,0.14649 -0.8535,0.13867 -0.8614,0.12891 -0.8711,0.11914 -0.8769,0.10937 -0.8848,0.10157 -0.8906,0.0937 -0.8965,0.0859 -0.9004,0.0781 -0.9062,0.0742 -0.9082,0.0664 -0.9121,0.0606 -0.9141,0.0566 -0.916,0.0508 -0.9141,0.0488 -0.916,0.043 -0.916,0.041 -0.9141,0.0391 -0.9082,0.0351 -0.8847,0.0332 -0.836,0.0273 -0.7636,0.0195 -0.6778,0.0137 -0.6094,0.008 -0.5605,0.004 -0.5371,0.002 -0.5332,0.002 h -0.5352 l -0.5332,0.002 h -0.5332 l -0.5332,0.002 -0.5351,0.002 h -0.5332 l -0.5332,0.002 h -0.5332 l -0.5332,0.002 -0.5352,0.002 h -0.5332 l -0.5332,0.002 -0.5352,0.002 h -0.5332 l -0.5332,0.002 h -0.5332 l -0.5351,0.002 -0.5332,0.002 h -0.5332 l -0.5332,0.002 h -0.5352 l -0.5332,0.002 -0.5332,0.002 -0.5332,-0.002 -0.5234,-0.0156 -0.504,-0.0449 -0.4785,-0.0898 -0.4375,-0.14649 -0.3886,-0.20312 -0.3262,-0.26367 -0.252,-0.32422 -0.1679,-0.37891 -0.098,-0.42187 -0.039,-0.45313 v -0.46875 l 0.029,-0.4707 0.051,-0.47071 0.066,-0.46874 0.074,-0.47071 0.078,-0.4707 0.08,-0.4707 0.086,-0.47071 0.09,-0.46875 0.096,-0.47656 0.1114,-0.50977 0.1367,-0.57812 0.1699,-0.67969 0.2129,-0.80469 0.2461,-0.90234 0.2754,-0.96094 0.291,-0.98437 0.3027,-0.97266 0.3125,-0.95898 0.3262,-0.94141 0.3438,-0.92773 0.3632,-0.91211 0.3848,-0.89649 0.4043,-0.88281 0.4277,-0.86523 0.4532,-0.85547 0.4746,-0.83985 0.5,-0.82617 0.5254,-0.81054 0.5527,-0.80079 0.5762,-0.78515 0.6054,-0.77344 0.6328,-0.76172 0.6622,-0.75 0.6914,-0.73633 0.7187,-0.72461 0.752,-0.71484 0.7832,-0.70312 0.8125,-0.69141 0.8476,-0.68164 0.8789,-0.66992 0.9141,-0.66016 0.9473,-0.65039 0.9843,-0.64063 1.0176,-0.63085 1.0508,-0.61915 1.0527,-0.5957 1.0235,-0.55664 0.9589,-0.50195 0.875,-0.43555 0.8047,-0.38086 0.7578,-0.33984 0.7364,-0.31055 0.7343,-0.29492 0.7364,-0.2793 0.7383,-0.26562 0.7402,-0.25196 v 0 l 0.7422,-0.23632 0.7422,-0.22071 0.7403,-0.20703 0.7421,-0.19336 0.7403,-0.17578 0.7383,-0.16211 0.7363,-0.14844 0.7344,-0.13086 0.7324,-0.11718 0.7285,-0.10157 0.7246,-0.0859 0.7207,-0.0703 0.7149,-0.0547 0.7109,-0.0391 0.7051,-0.0234 z"
         sodipodi:insensitive="true" />
      <path
         fill="none"
         stroke-width="3"
         stroke-linecap="butt"
         stroke-opacity="1"
         stroke="#000000"
         stroke-linejoin="round"
         d="m 1329.259,639.254 0.889,-1.551 0.889,-1.573 0.885,-1.59 0.88,-1.601 0.871,-1.606 0.861,-1.606 0.848,-1.6 0.831,-1.588 0.814,-1.571 0.792,-1.548 0.769,-1.52 0.743,-1.485 0.714,-1.445 0.683,-1.399 0.645,-1.342 0.601,-1.273 0.55,-1.192 0.498,-1.11 0.464,-1.069 0.452,-1.076 0.463,-1.133 0.493,-1.232 0.524,-1.331 0.552,-1.423 0.578,-1.507 0.602,-1.583 0.622,-1.651 0.64,-1.711 0.656,-1.764 0.669,-1.809 0.679,-1.845 0.687,-1.874 0.692,-1.895 0.695,-1.908 0.694,-1.913 0.692,-1.911 0.686,-1.9 0.679,-1.881 0.669,-1.856 0.655,-1.821 0.639,-1.779 0.622,-1.73 0.601,-1.672 0.577,-1.606 0.551,-1.533 0.523,-1.451 0.491,-1.363 0.458,-1.265 0.421,-1.16 0.383,-1.05 0.346,-0.948 0.311,-0.854 0.277,-0.771 0.247,-0.699 0.223,-0.643 0.207,-0.602 0.196,-0.58 0.193,-0.571 0.191,-0.564 0.188,-0.556 0.186,-0.549 0.184,-0.54 0.182,-0.531 0.179,-0.522 0.177,-0.512 0.175,-0.5 0.173,-0.49 0.17,-0.478 0.169,-0.465 0.166,-0.453 0.165,-0.438 0.162,-0.425 0.16,-0.41 0.16,-0.397 0.166,-0.396 0.182,-0.406 0.207,-0.432 0.24,-0.464 0.291,-0.482 0.358,-0.478 0.437,-0.455 0.541,-0.409 0.626,-0.365 0.701,-0.318 0.764,-0.27 0.818,-0.222 0.87,-0.182 0.926,-0.151 0.982,-0.127 1.039,-0.112 1.091,-0.097 1.138,-0.082 1.176,-0.068 1.21,-0.054 1.236,-0.04 1.256,-0.026 1.27,-0.012 1.277,10e-4 1.278,0.016 1.272,0.029 1.261,0.042 1.242,0.055 1.217,0.069 1.185,0.082 1.149,0.095 1.104,0.107 1.054,0.12 0.996,0.133 0.933,0.146 0.864,0.158 0.787,0.17 0.705,0.182 0.616,0.195 0.522,0.208 0.428,0.232 0.336,0.267 0.249,0.31 0.155,0.373 0.08,0.44 0.011,0.52 -0.05,0.611 -0.1,0.713 -0.148,0.81 -0.194,0.902 -0.238,0.99 -0.278,1.072 -0.318,1.149 -0.354,1.22 -0.389,1.286 -0.422,1.347 -0.451,1.402 -0.48,1.453 -0.505,1.498 -0.529,1.538 -0.55,1.571 -0.569,1.601 -0.587,1.625 -0.6,1.643 -0.614,1.657 -0.623,1.664 -0.632,1.668 -0.637,1.664 -0.641,1.657 -0.643,1.643 -0.642,1.625 -0.638,1.602 -0.634,1.572 -0.626,1.538 -0.616,1.498 -0.609,1.465 -0.628,1.491 -0.675,1.584 -0.751,1.747 -0.849,1.958 -0.928,2.128 -0.978,2.235 -1.003,2.28 -1.003,2.272 -1,2.254 -0.997,2.237 -0.995,2.22 -0.993,2.203 -0.993,2.187 -0.992,2.17 -0.992,2.155 -0.992,2.139 -0.995,2.124 -0.995,2.11 -0.999,2.095 -1.024,2.121 -1.162,2.35 -1.436,2.822 -1.845,3.537 -2.348,4.407 -2.773,5.08 -3.08,5.467 -3.268,5.569 -3.335,5.407 -3.27,5.076 -3.067,4.594 -2.731,3.963 -2.296,3.232 -1.92,2.591 -1.639,2.085 -1.456,1.718 -1.349,1.464 -1.245,1.239 -1.128,1.019 -1,0.811 -0.852,0.59 -0.774,0.436 -0.754,0.325 -0.798,0.262 -0.894,0.241 -0.994,0.227 -1.088,0.213 -1.172,0.2 -1.251,0.185 -1.32,0.172 -1.383,0.156 -1.438,0.142 -1.485,0.127 -1.526,0.113 -1.557,0.096 -1.582,0.082 -1.599,0.066 -1.609,0.049 -1.611,0.034 -1.605,0.018 -1.591,10e-4 -1.571,-0.015 -1.543,-0.033 -1.507,-0.049 -1.463,-0.067 -1.412,-0.083 -1.353,-0.102 -1.287,-0.119 -1.213,-0.138 -1.132,-0.156 -1.042,-0.174 -0.946,-0.192 -0.846,-0.223 -0.755,-0.308 -0.679,-0.462 -0.62,-0.67 -0.568,-0.978 -0.545,-1.301 -0.54,-1.685 -0.558,-2.117 -0.592,-2.583 -0.628,-3.03 -0.659,-3.443 -0.685,-3.824 -0.708,-4.169 -0.727,-4.483 -0.741,-4.763 -0.752,-5.009 -0.758,-5.223 -0.759,-5.402 -0.758,-5.549 -0.751,-5.661 -0.741,-5.741 -0.727,-5.788 -0.708,-5.801 -0.685,-5.78 -0.659,-5.726 -0.627,-5.639 -0.592,-5.519 -0.553,-5.364 -0.51,-5.178 -0.462,-4.957 -0.41,-4.703 -0.355,-4.416 -0.295,-4.094 -0.23,-3.741 -0.163,-3.354 -0.09,-2.933 -0.016,-2.489 0.056,-2.066 0.12,-1.675 0.18,-1.315 0.235,-0.992 0.291,-0.737 0.348,-0.551 0.405,-0.442 0.466,-0.387 0.5,-0.345 0.51,-0.299 0.494,-0.248 0.46,-0.197 0.436,-0.154 0.426,-0.123 0.434,-0.103 0.453,-0.094 0.477,-0.087 0.501,-0.079 0.525,-0.073 0.551,-0.065 0.577,-0.058 0.603,-0.052 0.63,-0.046 0.658,-0.039 0.686,-0.033 0.715,-0.027 0.745,-0.021 0.772,-0.016 0.782,-0.011 0.773,-0.006 0.745,-10e-4 0.702,0.002 0.664,0.007 0.639,0.011 0.624,0.015 0.618,0.018 0.615,0.022 0.609,0.025 0.603,0.029 0.597,0.032 0.589,0.035 0.582,0.038 0.572,0.042 0.564,0.044 0.553,0.047 0.542,0.05 0.53,0.053 0.518,0.055 0.504,0.058 0.491,0.06 0.476,0.062 0.46,0.065 0.444,0.067 0.427,0.068 0.41,0.071 0.393,0.074 0.385,0.08 0.388,0.094 0.4,0.11 0.421,0.139 0.428,0.199 0.423,0.294 0.403,0.419 0.368,0.589 0.334,0.711 0.301,0.798 0.269,0.847 0.241,0.862 0.219,0.885 0.206,0.921 0.202,0.971 0.204,1.033 0.209,1.095 0.212,1.155 0.216,1.214 0.219,1.27 0.221,1.325 0.224,1.376 0.225,1.427 0.228,1.476 0.229,1.521 0.229,1.566 0.231,1.608 0.23,1.648 0.231,1.686 0.23,1.722 0.23,1.756 0.229,1.789 0.227,1.818 0.226,1.847 0.223,1.872 0.222,1.897 0.219,1.917 0.218,1.934 0.216,1.948 0.214,1.959 0.213,1.966 0.212,1.969 0.211,1.968 0.211,1.965 0.21,1.958 0.21,1.949 0.208,1.937 0.206,1.923 0.205,1.907 0.202,1.888 0.2,1.866 0.198,1.842 0.195,1.816 0.191,1.787 0.189,1.755 0.184,1.721 0.181,1.685 0.176,1.646 0.172,1.604 0.168,1.56 0.162,1.514 0.157,1.465 0.151,1.414 0.146,1.359 0.14,1.303 0.133,1.245 0.127,1.183 0.12,1.119 0.112,1.052 0.106,0.984 0.097,0.912 0.09,0.841 0.084,0.774 0.078,0.715 0.074,0.664 0.071,0.621 0.071,0.586 0.07,0.561 0.072,0.544 0.075,0.534 0.077,0.526 0.08,0.516 0.083,0.507 0.085,0.497 0.087,0.486 0.09,0.475 0.091,0.463 0.093,0.45 0.095,0.438 0.096,0.424 0.098,0.41 0.099,0.398 0.108,0.396 0.12,0.41 0.141,0.437 0.17,0.467 0.22,0.46 0.294,0.405 0.39,0.304 0.502,0.162 0.591,0.009 0.647,-0.145 0.67,-0.305 0.668,-0.462 0.67,-0.606 0.679,-0.731 0.701,-0.84 0.728,-0.932 0.755,-1.016 0.78,-1.095 0.803,-1.169 0.822,-1.236 0.839,-1.298 0.854,-1.354 0.866,-1.405 0.876,-1.45 0.883,-1.49 0.887,-1.522"
         id="path18"
         style="fill:#ffbf00;fill-opacity:1;stroke:#ffbf00;stroke-width:1;stroke-miterlimit:4;stroke-dasharray:none;stroke-opacity:1"
         inkscape:label="V"
         sodipodi:insensitive="true" />
      <path
         fill="none"
         stroke-width="3"
         stroke-linecap="butt"
         stroke-opacity="1"
         stroke="#000000"
         stroke-linejoin="round"
         d="m 1130.985,543.358 -0.63,-0.045 -0.656,-0.045 -0.705,-0.044 -0.782,-0.044 -0.873,-0.043 -0.939,-0.037 -0.97,-0.027 -0.967,-0.011 -0.934,0.009 -0.897,0.029 -0.86,0.051 -0.824,0.072 -0.79,0.096 -0.755,0.118 -0.722,0.143 -0.689,0.166 -0.659,0.192 -0.627,0.217 -0.597,0.243 -0.569,0.27 -0.54,0.297 -0.513,0.325 -0.487,0.354 -0.462,0.381 -0.435,0.413 -0.413,0.442 -0.389,0.473 -0.368,0.504 -0.346,0.536 -0.325,0.568 -0.306,0.602 -0.287,0.635 -0.27,0.669 -0.252,0.704 -0.236,0.739 -0.221,0.776 -0.205,0.806 -0.189,0.809 -0.169,0.78 -0.147,0.718 -0.124,0.632 -0.107,0.573 -0.1,0.547 -0.101,0.557 -0.109,0.596 -0.117,0.641 -0.126,0.682 -0.135,0.724 -0.143,0.762 -0.15,0.8 -0.158,0.836 -0.165,0.871 -0.172,0.903 -0.179,0.934 -0.184,0.964 -0.191,0.992 -0.196,1.019 -0.202,1.043 -0.207,1.067 -0.211,1.089 -0.216,1.109 -0.22,1.127 -0.224,1.144 -0.227,1.16 -0.23,1.174 -0.233,1.186 -0.236,1.197 -0.238,1.205 -0.24,1.214 -0.242,1.219 -0.243,1.224 -0.245,1.226 -0.245,1.229 -0.246,1.234 -0.249,1.243 -0.252,1.256 -0.255,1.274 -0.26,1.294 -0.264,1.318 -0.271,1.346 -0.276,1.377 -0.282,1.405 -0.287,1.431 -0.292,1.456 -0.296,1.477 -0.301,1.497 -0.303,1.514 -0.307,1.529 -0.308,1.542 -0.311,1.551 -0.313,1.559 -0.313,1.564 -0.314,1.568 -0.314,1.568 -0.314,1.566 -0.312,1.563 -0.312,1.556 -0.31,1.547 -0.307,1.537 -0.305,1.523 -0.301,1.507 -0.298,1.489 -0.294,1.469 -0.289,1.446 -0.284,1.421 -0.279,1.393 -0.272,1.364 -0.266,1.331 -0.259,1.299 -0.254,1.268 -0.248,1.244 -0.245,1.223 -0.241,1.209 -0.24,1.199 -0.239,1.194 -0.24,1.195 -0.241,1.199 -0.242,1.204 -0.243,1.206 -0.243,1.207 -0.244,1.207 -0.243,1.204 -0.243,1.2 -0.242,1.195 -0.241,1.186 -0.239,1.178 -0.237,1.167 -0.235,1.155 -0.233,1.14 -0.23,1.125 -0.226,1.107 -0.223,1.089 -0.219,1.067 -0.214,1.045 -0.21,1.021 -0.205,0.995 -0.2,0.967 -0.194,0.939 -0.188,0.908 -0.182,0.875 -0.175,0.841 -0.168,0.805 -0.161,0.768 -0.153,0.728 -0.145,0.689 -0.138,0.652 -0.13,0.62 -0.124,0.592 -0.117,0.569 -0.111,0.549 -0.106,0.536 -0.102,0.527 -0.098,0.523 -0.093,0.518 -0.09,0.513 -0.085,0.508 -0.082,0.501 -0.077,0.495 -0.073,0.487 -0.068,0.479 -0.064,0.474 -0.061,0.487 -0.059,0.522 -0.059,0.578 -0.056,0.649 -0.05,0.7 -0.033,0.724 -0.01,0.721 0.022,0.693 0.068,0.643 0.125,0.576 0.192,0.494 0.282,0.388 0.367,0.309 0.459,0.248 0.554,0.207 0.652,0.186 0.745,0.167 0.83,0.15 0.908,0.131 0.98,0.114 1.044,0.096 1.101,0.08 1.151,0.062 1.193,0.046 1.23,0.03 1.258,0.013 1.279,-0.003 1.294,-0.018 1.301,-0.034 1.302,-0.049 1.294,-0.064 1.281,-0.08 1.259,-0.093 1.231,-0.109 1.196,-0.122 1.153,-0.136 1.104,-0.15 1.047,-0.164 0.983,-0.176 0.912,-0.19 0.835,-0.203 0.749,-0.215 0.657,-0.227 0.561,-0.24 0.472,-0.256 0.394,-0.275 0.329,-0.296 0.267,-0.324 0.228,-0.353 0.201,-0.388 0.19,-0.425 0.19,-0.466 0.194,-0.51 0.199,-0.555 0.203,-0.601 0.25,-0.823 0.507,-1.922 1.019,-4.069 1.781,-7.267 2.364,-9.717 0.312,-1.284 2.365,-9.716 0.851,-3.499 2.378,-9.713 0.901,-3.681 2.41,-9.705 0.455,-1.833 2.094,-8.149 1.439,-5.215 1.017,-3.241 0.831,-2.223 0.839,-2.004 0.885,-1.943 0.927,-1.884 0.968,-1.825 1.005,-1.769 1.039,-1.711 1.072,-1.655 1.101,-1.599 1.129,-1.545 1.156,-1.492 1.183,-1.438 1.211,-1.385 1.24,-1.334 1.269,-1.283 1.297,-1.233 1.327,-1.183 1.357,-1.135 1.386,-1.086 1.415,-1.035 1.442,-0.986 1.468,-0.934 1.482,-0.876 1.485,-0.81 1.475,-0.736 1.454,-0.657 1.43,-0.576 1.405,-0.497 1.378,-0.417 1.349,-0.339 1.319,-0.26 1.288,-0.182 1.255,-0.106 1.22,-0.029 1.185,0.047 1.147,0.123 1.109,0.197 1.068,0.271 1.027,0.345 0.983,0.419 0.938,0.491 0.892,0.563 0.845,0.634 0.795,0.705 0.745,0.776 0.692,0.845 0.639,0.915 0.583,0.983 0.528,1.051 0.469,1.119 0.409,1.186 0.348,1.252 0.286,1.318 0.224,1.371 0.166,1.36 0.117,1.272 0.075,1.108 0.04,0.891 0.013,0.714 -0.01,0.6 -0.02,0.55 -0.026,0.552 -0.03,0.565 -0.036,0.575 -0.04,0.585 -0.045,0.595 -0.049,0.603 -0.053,0.61 -0.057,0.616 -0.066,0.646 -0.096,0.795 -0.154,1.086 -0.238,1.52 -0.376,2.235 -0.679,3.771 -1.177,6.266 -1.866,9.719 -1.907,9.817 -0.731,3.76 -1.911,9.816 -1.131,5.807 -1.904,9.817 -1.064,5.486 -1.88,9.822 -0.536,2.796 -1.504,8.169 -0.713,4.369 -0.157,1.819 0.155,0.523 0.277,0.263 0.335,0.218 0.378,0.169 0.406,0.121 0.418,0.075 0.424,0.038 0.43,0.015 0.432,0.002 h 0.433 0.433 0.432 0.433 0.432 0.433 0.433 0.432 0.433 0.433 0.432 0.433 0.432 0.433 0.433 0.432 0.433 0.432 0.433 0.432 0.433 0.433 0.432 0.433 0.444 0.514 0.652 l 0.861,10e-4 1.112,10e-4 1.298,-0.003 1.395,-0.011 1.4,-0.024 1.329,-0.041 1.248,-0.066 1.171,-0.097 1.097,-0.134 1.029,-0.179 0.965,-0.231 0.905,-0.289 0.851,-0.352 0.795,-0.43 0.75,-0.507 0.708,-0.592 0.669,-0.686 0.634,-0.785 0.605,-0.893 0.579,-1.006 0.558,-1.127 0.571,-1.404 0.739,-2.434 1.091,-4.368 1.629,-7.204 2.1,-9.777 0.17,-0.793 2.028,-9.792 0.66,-3.187 1.954,-9.807 0.847,-4.251 1.857,-9.826 0.752,-3.979 1.711,-9.853 0.451,-2.601 1.502,-9.886 0.157,-1.035 1.148,-9.44 0.63,-8.008 0.115,-6.657 -0.362,-5.516 -0.791,-4.614 -1.172,-3.952 -1.498,-3.489 -1.74,-3.06 -1.891,-2.625 -1.952,-2.185 -1.936,-1.754 -1.914,-1.394 -1.9,-1.122 -1.894,-0.936 -1.898,-0.823 -1.914,-0.72 -1.942,-0.614 -1.985,-0.504 -2.036,-0.39 -2.087,-0.285 -2.132,-0.187 -2.173,-0.1 -2.209,-0.018 -2.241,0.065 -2.268,0.153 -2.291,0.244 -2.308,0.339 -2.321,0.435 -2.329,0.53 -2.333,0.626 -2.332,0.72 -2.327,0.815 -2.317,0.91 -2.301,1.004 -2.287,1.1 -2.291,1.204 -2.321,1.32 -2.375,1.447 -2.444,1.578 -2.498,1.693 -2.53,1.79 -2.538,1.864 -2.509,1.903 -2.388,1.849 -2.159,1.688 -1.826,1.419 -1.42,1.068 -1.08,0.746 -0.842,0.479 -0.705,0.269 -0.647,0.102 -0.578,-0.056 -0.475,-0.217 -0.34,-0.38 -0.179,-0.572 -0.023,-0.9 0.119,-1.389 0.248,-2.043 0.355,-2.761 0.411,-3.162 0.407,-3.149 0.343,-2.722 0.231,-1.981 0.117,-1.33 0.013,-0.869 -0.08,-0.599 -0.166,-0.487 -0.249,-0.406 -0.333,-0.326 -0.413,-0.249 -0.501,-0.166 -0.559,-0.109 -0.602,-0.068 -0.622,-0.048 -0.626,-0.045 -0.625,-0.046 -0.626,-0.045 -0.626,-0.045 -0.626,-0.045 -0.626,-0.045 -0.626,-0.045 -0.625,-0.045"
         id="path16"
         style="fill:#ffbf00;fill-opacity:1;stroke:#ffbf00;stroke-width:1;stroke-miterlimit:4;stroke-dasharray:none;stroke-opacity:1"
         inkscape:label="N"
         sodipodi:insensitive="true" />
      <path
         fill="none"
         stroke-width="3"
         stroke-linecap="butt"
         stroke-opacity="1"
         stroke="#000000"
         stroke-linejoin="round"
         d="m 1016.306,661.78 -2.072,9.783 -1.883,8.895 -2.026,9.632 -0.732,3.652 -0.075,0.731 0.066,0.372 0.16,0.448 0.329,0.464 0.573,0.412 0.877,0.304 1.183,0.199 1.476,0.106 1.758,0.027 2.01,-0.038 2.156,-0.099 2.182,-0.156 2.083,-0.208 1.888,-0.257 1.694,-0.297 1.526,-0.329 1.385,-0.353 1.268,-0.373 1.168,-0.402 1.083,-0.448 1.016,-0.503 0.956,-0.583 0.914,-0.661 0.881,-0.752 0.859,-0.852 0.947,-1.455 1.541,-4.551 2.498,-9.682 0.246,-0.952 2.251,-9.743 2.25,-9.744 0.051,-0.219 2.146,-9.767 2.147,-9.767 2.147,-9.766 0.211,-0.962 2.096,-9.778 2.097,-9.777 2.096,-9.778 1.491,-6.954 2.057,-9.787 2.056,-9.786 2.057,-9.786 1.454,-6.92 2.003,-9.797 2.003,-9.798 2.003,-9.797 0.172,-0.843 1.886,-9.821 1.89,-9.842 1.583,-9.874 0.115,-0.712 0.271,-4.509 -0.498,-1.435 -0.74,-0.851 -0.844,-0.771 -0.938,-0.679 -1.014,-0.582 -1.079,-0.477 -1.131,-0.374 -1.177,-0.272 -1.214,-0.172 -1.241,-0.074 -1.247,0.019 -1.231,0.106 -1.194,0.187 -1.138,0.263 -1.078,0.332 -1.016,0.393 -0.954,0.449 -0.895,0.5 -0.854,0.553 -0.834,0.613 -0.837,0.678 -0.855,0.745 -0.866,0.805 -0.863,0.854 -0.848,0.891 -0.821,0.921 -0.792,0.953 -0.766,0.993 -0.741,1.039 -0.714,1.085 -0.681,1.11 -0.639,1.111 -0.589,1.084 -0.635,1.533 -1.205,4.462 -2.256,9.742 -0.146,0.63 -2.145,9.767 -2.085,9.496 -2.102,9.776 -2.102,9.777 -2.102,9.776 -0.066,0.309 -2.085,9.78 -2.085,9.78 -2.086,9.78 -1.316,6.174 -2.077,9.782 -2.078,9.782 -2.077,9.782 -1.285,6.049 -2.073,9.782 -2.074,9.783 -2.059,9.714"
         id="path4"
         style="fill:#ffbf00;fill-opacity:1;stroke:#ffbf00;stroke-width:1;stroke-miterlimit:4;stroke-dasharray:none;stroke-opacity:1"
         inkscape:label="I"
         sodipodi:insensitive="true" />
      <path
         fill="none"
         stroke-width="3"
         stroke-linecap="butt"
         stroke-opacity="1"
         stroke="#000000"
         stroke-linejoin="round"
         d="m 876.686,663.481 -0.343,-0.123 -0.12,-0.229 0.011,-0.485 0.152,-0.917 0.299,-1.525 0.448,-2.252 0.569,-2.864 0.655,-3.305 0.707,-3.573 0.729,-3.694 0.74,-3.77 0.749,-3.822 0.753,-3.855 0.754,-3.868 0.754,-3.877 0.754,-3.884 0.754,-3.889 0.754,-3.893 0.754,-3.895 0.753,-3.896 0.753,-3.895 0.753,-3.893 0.752,-3.888 0.751,-3.882 0.751,-3.875 0.75,-3.866 0.749,-3.855 0.749,-3.844 0.747,-3.829 0.748,-3.825 0.759,-3.873 0.783,-3.984 0.819,-4.158 0.862,-4.368 0.889,-4.497 0.895,-4.519 0.881,-4.432 0.849,-4.257 0.814,-4.065 0.779,-3.879 0.744,-3.697 0.709,-3.519 0.674,-3.344 0.639,-3.175 0.605,-3.008 0.569,-2.847 0.535,-2.69 0.501,-2.536 0.466,-2.386 0.431,-2.242 0.397,-2.101 0.363,-1.963 0.329,-1.831 0.294,-1.702 0.261,-1.578 0.226,-1.458 0.193,-1.341 0.158,-1.229 0.125,-1.122 0.091,-1.017 0.057,-0.918 0.024,-0.822 -0.01,-0.731 -0.043,-0.643 -0.077,-0.561 -0.111,-0.483 -0.156,-0.419 -0.21,-0.371 -0.272,-0.337 -0.351,-0.315 -0.419,-0.296 -0.485,-0.276 -0.546,-0.256 -0.603,-0.235 -0.655,-0.215 -0.704,-0.194 -0.749,-0.173 -0.791,-0.154 -0.829,-0.133 -0.863,-0.112 -0.893,-0.093 -0.92,-0.073 -0.943,-0.054 -0.962,-0.033 -0.978,-0.015 -0.99,0.005 -0.997,0.025 -1.003,0.043 -1.002,0.062 -1,0.082 -0.994,0.099 -0.982,0.119 -0.969,0.137 -0.951,0.155 -0.929,0.174 -0.904,0.191 -0.875,0.21 -0.842,0.227 -0.806,0.245 -0.765,0.263 -0.722,0.28 -0.674,0.296 -0.619,0.306 -0.556,0.308 -0.49,0.303 -0.411,0.292 -0.355,0.289 -0.314,0.296 -0.293,0.311 -0.285,0.337 -0.281,0.362 -0.278,0.39 -0.275,0.418 -0.271,0.446 -0.268,0.476 -0.266,0.504 -0.263,0.536 -0.261,0.565 -0.259,0.598 -0.256,0.629 -0.255,0.663 -0.253,0.695 -0.253,0.73 -0.251,0.764 -0.25,0.799 -0.249,0.834 -0.249,0.872 -0.248,0.908 -0.249,0.945 -0.249,0.984 -0.249,1.023 -0.249,1.062 -0.25,1.102 -0.251,1.143 -0.253,1.184 -0.253,1.226 -0.255,1.268 -0.265,1.351 -0.312,1.636 -0.406,2.16 -0.546,2.926 -0.715,3.851 -0.856,4.608 -0.951,5.118 -1,5.378 -1.013,5.429 -1.016,5.437 -1.02,5.441 -1.023,5.442 -1.024,5.438 -1.027,5.432 -1.027,5.421 -1.027,5.408 -1.027,5.391 -1.026,5.37 -1.024,5.345 -1.023,5.318 -1.019,5.286 -1.016,5.251 -1.012,5.212 -1.007,5.171 -1.002,5.125 -0.996,5.076 -0.99,5.023 -0.982,4.967 -0.971,4.888 -0.938,4.708 -0.882,4.411 -0.802,3.992 -0.704,3.489 -0.615,3.035 -0.542,2.665 -0.485,2.377 -0.447,2.191 -0.446,2.184 -0.488,2.371 -0.57,2.754 -0.672,3.245 -0.716,3.486 -0.68,3.389 -0.562,2.954 -0.385,2.265 -0.227,1.654 -0.11,1.204 -0.031,0.917 0.014,0.768 0.052,0.671 0.088,0.6 0.123,0.558 0.163,0.541 0.21,0.545 0.273,0.567 0.35,0.608 0.445,0.655 0.573,0.653 0.737,0.594 0.928,0.48 1.223,0.301 1.712,0.172 2.476,0.076 3.501,0.024 4.729,0.007 h 5.912 l 6.993,-0.004 7.968,-0.008 8.716,-0.008 8.749,-0.011 7.941,-0.015 6.293,-0.019 4.053,-0.027 2.195,-0.037 0.968,-0.048 0.37,-0.062 0.296,-0.08 0.321,-0.1 0.341,-0.126 0.352,-0.153 0.358,-0.189 0.359,-0.22 0.354,-0.253 0.344,-0.287 0.33,-0.319 0.315,-0.351 0.296,-0.383 0.279,-0.414 0.259,-0.444 0.241,-0.472 0.224,-0.498 0.209,-0.521 0.195,-0.54 0.179,-0.538 0.162,-0.515 0.144,-0.468 0.125,-0.408 0.109,-0.355 0.099,-0.322 0.093,-0.305 0.09,-0.302 0.09,-0.302 0.087,-0.301 0.087,-0.302 0.085,-0.302 0.084,-0.302 0.083,-0.302 0.082,-0.302 0.081,-0.301 0.079,-0.302 0.079,-0.302 0.077,-0.302 0.076,-0.302 0.076,-0.302 0.074,-0.302 0.073,-0.301 0.073,-0.302 0.071,-0.302 0.07,-0.302 0.07,-0.302 0.068,-0.302 0.068,-0.301 0.067,-0.302 0.066,-0.302 0.064,-0.302 0.065,-0.302 0.063,-0.302 0.063,-0.302 0.062,-0.301 0.062,-0.302 0.062,-0.302 0.061,-0.302 0.06,-0.301 0.059,-0.297 0.057,-0.287 0.053,-0.275 0.05,-0.257 0.046,-0.245 0.044,-0.235 0.042,-0.231 0.042,-0.231 0.041,-0.23 0.04,-0.23 0.04,-0.23 0.039,-0.231 0.039,-0.23 0.039,-0.23 0.037,-0.23 0.037,-0.231 0.037,-0.23 0.036,-0.23 0.035,-0.23 0.035,-0.231 0.034,-0.23 0.034,-0.23 0.033,-0.231 0.032,-0.23 0.032,-0.23 0.031,-0.23 0.03,-0.231 0.03,-0.23 0.028,-0.23 0.029,-0.23 0.027,-0.231 0.027,-0.23 0.025,-0.23 0.025,-0.23 0.025,-0.231 0.023,-0.23 0.023,-0.23 0.021,-0.23 0.021,-0.231 0.019,-0.23 0.019,-0.23 0.018,-0.231 0.016,-0.23 0.015,-0.233 0.014,-0.246 0.009,-0.274 0.006,-0.315 10e-4,-0.365 -0.008,-0.399 -0.02,-0.411 -0.035,-0.404 -0.053,-0.378 -0.077,-0.349 -0.108,-0.317 -0.141,-0.287 -0.187,-0.253 -0.226,-0.224 -0.268,-0.197 -0.31,-0.173 -0.351,-0.15 -0.389,-0.129 -0.424,-0.11 -0.456,-0.089 -0.587,-0.072 -1.224,-0.055 -2.469,-0.04 -4.322,-0.027 -6.476,-0.017 -7.7,-0.008 -7.689,-0.004 h -6.439 l -4.257,-0.003 -2.362,-0.024 -1.057,-0.063"
         id="path14"
         style="fill:#5285cc;fill-opacity:1;stroke:#5285cc;stroke-width:1;stroke-miterlimit:4;stroke-dasharray:none;stroke-opacity:1"
         inkscape:label="L"
         sodipodi:insensitive="true" />
      <path
         id="path12"
         style="fill:#5285cc;fill-opacity:1;stroke:#5285cc;stroke-width:1;stroke-miterlimit:4;stroke-dasharray:none;stroke-opacity:1"
         inkscape:label="O"
         d="m 751.82031,540.82031 -2.47851,0.0488 -2.46094,0.10938 -2.44336,0.17187 -2.42383,0.23242 -2.40234,0.29297 -2.38086,0.35352 -2.35938,0.41601 -2.33398,0.47461 -2.30664,0.5332 -2.2832,0.59376 -2.25391,0.65234 -2.22656,0.71094 -2.19727,0.76953 -2.16406,0.82617 -2.13477,0.88476 -2.10156,0.94141 -2.06445,0.99805 -2.03321,1.05469 -1.99414,1.11132 -1.95703,1.16797 -1.91992,1.22266 -1.87891,1.27734 -1.83789,1.33399 -1.79492,1.38672 -1.7539,1.4414 -1.71289,1.50195 -1.69336,1.5918 -1.69922,1.7168 -1.72657,1.8789 -1.77343,2.06446 -1.79297,2.22656 -1.78321,2.34766 -1.73828,2.43554 -1.66992,2.48828 -1.5957,2.53711 -1.51953,2.58008 -1.44531,2.625 -1.3711,2.66211 -1.29687,2.70313 -1.22071,2.73828 -1.14843,2.77148 -1.07422,2.80469 -1,2.83594 -0.92578,2.86133 -0.85352,2.88867 -0.7793,2.91015 -0.70703,2.93555 -0.63281,2.95313 -0.56055,2.9707 -0.48633,2.98633 -0.41406,3 -0.34179,3.01172 -0.26954,3.01953 -0.19922,3.02734 -0.125,3.0332 -0.0527,3.03516 0.0195,3.03711 0.0898,3.03516 0.16015,3.03125 0.23242,3.02734 0.30469,3.01953 0.37891,3 0.46289,2.92383 0.5664,2.77734 0.68555,2.56641 0.8125,2.30664 0.93164,2.07617 1.03516,1.89844 1.125,1.76758 1.19922,1.68164 1.26953,1.60351 1.33984,1.52735 1.40235,1.45117 1.46484,1.3789 1.52344,1.30665 1.58203,1.23437 1.63281,1.16602 1.68555,1.09961 1.73047,1.0332 1.77734,0.9668 1.81836,0.90234 1.85742,0.84375 1.89453,0.7793 1.92578,0.72265 1.95508,0.66407 1.98438,0.60742 2.00781,0.55468 2.0293,0.49805 2.04882,0.44922 2.06446,0.39648 2.07617,0.34961 2.08594,0.29883 2.09375,0.25586 2.09765,0.20899 2.09766,0.16601 2.09766,0.125 2.09179,0.084 2.09375,0.043 2.12891,-0.002 2.20898,-0.0527 2.33203,-0.10938 2.48633,-0.17383 2.60156,-0.23828 2.66797,-0.30469 2.68164,-0.37109 2.65039,-0.4375 2.61524,-0.50586 2.57226,-0.57617 2.53516,-0.64062 2.49414,-0.70899 2.45313,-0.77734 2.41211,-0.84375 2.36914,-0.91016 2.32617,-0.97656 2.28125,-1.04492 2.23828,-1.10743 2.19336,-1.17578 2.14648,-1.24218 2.10157,-1.30665 2.05468,-1.37304 2.00586,-1.43555 1.95899,-1.50391 1.9082,-1.5664 1.86133,-1.63281 1.80859,-1.69727 1.75977,-1.75976 1.70703,-1.82422 1.6543,-1.88868 1.60156,-1.95312 1.54883,-2.01563 1.49414,-2.07812 1.4414,-2.14453 1.38282,-2.20313 1.32812,-2.26172 1.25586,-2.2832 1.17773,-2.26562 1.08594,-2.20703 0.98438,-2.11915 0.90039,-2.04492 0.83008,-2 0.77929,-1.97851 0.7461,-1.98242 0.71093,-1.98829 0.67969,-1.99414 0.64453,-2.0039 0.60938,-2.01172 0.57226,-2.01953 0.53516,-2.02735 0.49609,-2.03906 0.45899,-2.04492 0.41797,-2.05664 0.37695,-2.06641 0.33398,-2.07617 0.29297,-2.08789 0.25196,-2.09766 0.20898,-2.11132 0.16797,-2.1211 0.12891,-2.13281 0.0898,-2.14649 0.0488,-2.16015 0.0117,-2.17188 -0.0234,-2.18554 -0.0684,-2.19922 -0.11133,-2.21485 -0.1582,-2.22851 -0.21289,-2.24219 -0.27149,-2.25976 -0.33984,-2.27344 -0.41406,-2.29102 -0.49219,-2.29687 -0.55078,-2.25196 -0.5918,-2.14843 -0.60937,-1.98243 -0.60938,-1.77539 -0.61719,-1.59765 -0.63281,-1.4668 -0.66211,-1.38477 -0.69922,-1.33984 -0.73633,-1.30273 -0.77148,-1.26563 -0.80273,-1.23242 -0.83399,-1.19531 -0.86523,-1.16016 -0.89649,-1.12305 -0.92773,-1.08984 -0.96094,-1.05469 -0.99219,-1.01953 -1.02539,-0.98437 -1.05859,-0.95117 -1.09375,-0.91602 -1.125,-0.88281 -1.16016,-0.84766 -1.19531,-0.81641 -1.23047,-0.78125 -1.26367,-0.74804 -1.29688,-0.71485 -1.33007,-0.68164 -1.36524,-0.65039 -1.39648,-0.61719 -1.42969,-0.58398 -1.46289,-0.55273 -1.49414,-0.51953 -1.52344,-0.48829 -1.55664,-0.45703 -1.58789,-0.42578 -1.62695,-0.39453 -1.70313,-0.36914 -1.83203,-0.3457 -2.00781,-0.33008 -2.21094,-0.31445 -2.37695,-0.28907 -2.48047,-0.25195 -2.5293,-0.20117 -2.52539,-0.14258 -2.50976,-0.0762 z m -0.94922,28.95117 c 6.88033,-0.0363 13.69502,2.96137 18.25196,8.16016 5.96397,6.75796 7.54389,16.12459 7.93945,24.83984 -0.0589,7.33725 -1.26086,14.64028 -2.82227,21.79493 -2.33924,8.21587 -4.03389,15.15906 -9.14843,24.08203 -6.04567,8.80535 -8.45562,10.54469 -13.8711,14.54883 -8.45904,5.71551 -19.39261,8.28574 -29.35742,5.4414 -9.10601,-2.3501 -16.76713,-9.76549 -18.88867,-19.00195 -1.67662,-7.22069 -0.75957,-14.70936 -0.26953,-22.01758 1.70795,-16.14268 7.33034,-32.49606 18.71875,-44.40039 6.35348,-6.72413 14.81537,-11.43976 23.98437,-12.89063 0.83801,-0.12309 1.6705,-0.28306 2.51563,-0.35156 0.97919,-0.13144 1.96436,-0.19989 2.94726,-0.20508 z"
         sodipodi:insensitive="true" />
      <path
         fill="none"
         stroke-width="3"
         stroke-linecap="butt"
         stroke-opacity="1"
         stroke="#000000"
         stroke-linejoin="round"
         d="m 590.799,581 0.847,-0.908 0.856,-0.915 0.86,-0.92 0.866,-0.926 0.869,-0.928 0.871,-0.93 0.871,-0.931 0.871,-0.93 0.869,-0.927 0.866,-0.923 0.862,-0.918 0.856,-0.912 0.848,-0.904 0.841,-0.894 0.83,-0.884 0.82,-0.872 0.808,-0.858 0.794,-0.844 0.779,-0.827 0.764,-0.81 0.746,-0.791 0.727,-0.77 0.707,-0.749 0.686,-0.726 0.662,-0.7 0.627,-0.662 0.581,-0.614 0.523,-0.552 0.458,-0.483 0.406,-0.427 0.37,-0.391 0.353,-0.372 0.351,-0.369 0.35,-0.369 0.35,-0.369 0.35,-0.369 0.35,-0.368 0.351,-0.369 0.35,-0.369 0.35,-0.369 0.35,-0.369 0.35,-0.369 0.351,-0.369 0.35,-0.369 0.35,-0.369 0.35,-0.369 0.351,-0.369 0.35,-0.369 0.35,-0.369 0.35,-0.369 0.35,-0.369 0.351,-0.368 0.35,-0.369 0.353,-0.368 0.356,-0.365 0.363,-0.362 0.371,-0.357 0.386,-0.349 0.406,-0.337 0.431,-0.322 0.467,-0.303 0.508,-0.286 0.558,-0.267 0.616,-0.25 0.683,-0.231 0.749,-0.208 0.814,-0.178 0.877,-0.143 0.938,-0.103 0.985,-0.07 1.02,-0.043 1.042,-0.025 1.05,-0.014 1.057,-0.005 1.062,0.006 1.066,0.015 1.068,0.025 1.069,0.034 1.068,0.044 1.066,0.052 1.062,0.061 1.058,0.072 1.051,0.083 1.044,0.096 1.035,0.111 1.025,0.124 1.014,0.135 1.001,0.145 0.986,0.155 0.971,0.166 0.954,0.182 0.935,0.201 0.913,0.225 0.878,0.254 0.826,0.287 0.759,0.328 0.674,0.372 0.574,0.42 0.453,0.471 0.323,0.522 0.159,0.58 0.026,0.617 -0.101,0.64 -0.211,0.647 -0.307,0.642 -0.391,0.645 -0.461,0.66 -0.521,0.686 -0.568,0.722 -0.614,0.761 -0.659,0.797 -0.703,0.834 -0.746,0.868 -0.788,0.903 -0.831,0.937 -0.871,0.969 -0.912,1.001 -0.951,1.033 -0.99,1.062 -1.028,1.092 -1.065,1.12 -1.102,1.147 -1.137,1.175 -1.173,1.2 -1.207,1.225 -1.24,1.25 -1.273,1.273 -1.306,1.295 -1.334,1.315 -1.353,1.327 -1.357,1.326 -1.35,1.316 -1.331,1.296 -1.31,1.278 -1.29,1.261 -1.271,1.247 -1.252,1.235 -1.232,1.222 -1.211,1.207 -1.188,1.192 -1.164,1.175 -1.139,1.156 -1.113,1.136 -1.085,1.114 -1.056,1.092 -1.025,1.068 -0.994,1.042 -0.96,1.015 -0.927,0.986 -0.89,0.957 -0.854,0.925 -0.816,0.893 -0.776,0.859 -0.735,0.823 -0.693,0.786 -0.65,0.748 -0.605,0.709 -0.559,0.667 -0.511,0.625 -0.463,0.581 -0.412,0.539 -0.357,0.517 -0.297,0.517 -0.23,0.539 -0.161,0.578 -0.092,0.611 -0.025,0.63 0.04,0.637 0.102,0.635 0.158,0.648 0.208,0.677 0.251,0.725 0.288,0.788 0.325,0.855 0.363,0.924 0.401,0.995 0.44,1.066 0.479,1.14 0.52,1.215 0.561,1.291 0.603,1.37 0.645,1.449 0.688,1.529 0.732,1.613 0.776,1.696 0.821,1.782 0.867,1.87 0.914,1.957 0.961,2.048 1.008,2.14 1.057,2.233 1.107,2.328 1.156,2.424 1.207,2.522 1.257,2.621 1.31,2.721 1.354,2.808 1.358,2.814 1.312,2.721 1.216,2.533 1.085,2.273 0.961,2.036 0.859,1.851 0.778,1.715 0.715,1.622 0.656,1.538 0.594,1.458 0.534,1.378 0.473,1.302 0.411,1.227 0.348,1.156 0.286,1.086 0.223,1.018 0.159,0.954 0.095,0.89 0.031,0.83 -0.034,0.772 -0.099,0.716 -0.165,0.662 -0.228,0.613 -0.301,0.56 -0.365,0.515 -0.432,0.471 -0.5,0.428 -0.568,0.388 -0.638,0.351 -0.706,0.316 -0.776,0.282 -0.847,0.252 -0.917,0.223 -0.987,0.197 -1.06,0.173 -1.129,0.152 -1.194,0.132 -1.249,0.115 -1.297,0.099 -1.333,0.086 -1.349,0.072 -1.342,0.057 -1.31,0.041 -1.259,0.025 -1.206,0.008 -1.154,-0.01 -1.104,-0.029 -1.055,-0.048 -1.009,-0.067 -0.963,-0.088 -0.919,-0.108 -0.878,-0.13 -0.837,-0.152 -0.798,-0.175 -0.76,-0.198 -0.726,-0.222 -0.691,-0.247 -0.658,-0.272 -0.628,-0.298 -0.599,-0.325 -0.571,-0.351 -0.545,-0.379 -0.521,-0.407 -0.497,-0.437 -0.477,-0.466 -0.457,-0.496 -0.439,-0.527 -0.423,-0.559 -0.409,-0.59 -0.395,-0.623 -0.383,-0.657 -0.374,-0.689 -0.366,-0.719 -0.359,-0.743 -0.355,-0.764 -0.353,-0.781 -0.357,-0.806 -0.369,-0.839 -0.385,-0.882 -0.409,-0.932 -0.433,-0.983 -0.457,-1.035 -0.48,-1.084 -0.505,-1.135 -0.527,-1.184 -0.551,-1.234 -0.574,-1.282 -0.597,-1.33 -0.619,-1.379 -0.641,-1.426 -0.664,-1.473 -0.686,-1.519 -0.708,-1.566 -0.729,-1.612 -0.751,-1.657 -0.772,-1.702 -0.794,-1.746 -0.814,-1.79 -0.835,-1.835 -0.855,-1.877 -0.876,-1.92 -0.895,-1.963 -0.916,-2.005 -0.936,-2.046 -0.955,-2.087 -0.974,-2.128 -0.993,-2.169 -1.008,-2.196 -0.997,-2.167 -0.957,-2.067 -0.887,-1.897 -0.796,-1.675 -0.717,-1.471 -0.656,-1.3 -0.616,-1.166 -0.592,-1.059 -0.571,-0.959 -0.553,-0.856 -0.535,-0.753 -0.519,-0.648 -0.503,-0.544 -0.488,-0.437 -0.476,-0.329 -0.462,-0.221 -0.452,-0.112 -0.441,-0.002 -0.432,0.11 -0.424,0.223 -0.417,0.336 -0.412,0.45 -0.406,0.566 -0.403,0.683 -0.4,0.8 -0.399,0.919 -0.398,1.039 -0.399,1.159 -0.4,1.281 -0.403,1.403 -0.407,1.528 -0.412,1.652 -0.418,1.778 -0.425,1.904 -0.433,2.033 -0.442,2.157 -0.45,2.266 -0.456,2.352 -0.461,2.418 -0.464,2.461 -0.464,2.472 -0.458,2.449 -0.448,2.394 -0.436,2.311 -0.422,2.223 -0.41,2.137 -0.397,2.052 -0.384,1.97 -0.373,1.889 -0.361,1.808 -0.35,1.731 -0.34,1.654 -0.328,1.579 -0.319,1.506 -0.309,1.434 -0.299,1.363 -0.29,1.295 -0.282,1.227 -0.273,1.162 -0.266,1.098 -0.257,1.035 -0.251,0.975 -0.243,0.915 -0.237,0.857 -0.231,0.801 -0.225,0.747 -0.219,0.693 -0.215,0.642 -0.209,0.591 -0.205,0.544 -0.201,0.496 -0.2,0.452 -0.21,0.41 -0.236,0.371 -0.274,0.338 -0.332,0.305 -0.396,0.279 -0.472,0.257 -0.561,0.24 -0.657,0.228 -0.75,0.215 -0.834,0.202 -0.912,0.19 -0.984,0.177 -1.047,0.163 -1.103,0.15 -1.154,0.136 -1.195,0.123 -1.232,0.108 -1.259,0.094 -1.28,0.079 -1.295,0.064 -1.301,0.05 -1.301,0.034 -1.294,0.018 -1.28,0.003 -1.258,-0.014 -1.229,-0.029 -1.194,-0.046 -1.151,-0.063 -1.101,-0.079 -1.044,-0.097 -0.979,-0.114 -0.909,-0.131 -0.83,-0.149 -0.745,-0.168 -0.652,-0.185 -0.554,-0.208 -0.458,-0.248 -0.367,-0.309 -0.282,-0.388 -0.193,-0.494 -0.125,-0.576 -0.067,-0.643 -0.023,-0.692 0.01,-0.721 0.034,-0.724 0.049,-0.7 0.057,-0.649 0.058,-0.579 0.059,-0.522 0.061,-0.487 0.064,-0.474 0.069,-0.479 0.073,-0.487 0.077,-0.494 0.081,-0.502 0.086,-0.507 0.089,-0.513 0.094,-0.519 0.098,-0.522 0.102,-0.527 0.106,-0.536 0.111,-0.55 0.118,-0.568 0.123,-0.592 0.131,-0.62 0.137,-0.653 0.145,-0.688 0.153,-0.729 0.161,-0.768 0.168,-0.805 0.175,-0.841 0.182,-0.875 0.188,-0.908 0.194,-0.938 0.2,-0.968 0.205,-0.995 0.21,-1.021 0.215,-1.045 0.219,-1.067 0.222,-1.088 0.227,-1.107 0.229,-1.125 0.233,-1.141 0.235,-1.154 0.237,-1.167 0.24,-1.178 0.24,-1.187 0.242,-1.194 0.243,-1.2 0.244,-1.204 0.243,-1.207 0.244,-1.207 0.243,-1.207 0.242,-1.204 0.241,-1.199 0.244,-1.219 0.273,-1.363 0.332,-1.659 0.42,-2.104 0.529,-2.648 0.615,-3.082 0.67,-3.356 0.692,-3.467 0.688,-3.444 0.677,-3.395 0.669,-3.347 0.659,-3.299 0.65,-3.253 0.641,-3.207 0.632,-3.161 0.623,-3.118 0.615,-3.075 0.606,-3.032 0.599,-2.99 0.59,-2.95 0.582,-2.91 0.575,-2.871 0.568,-2.832 0.559,-2.795 0.553,-2.759 0.546,-2.723 0.539,-2.688 0.532,-2.654 0.526,-2.621 0.519,-2.588 0.514,-2.557 0.507,-2.526 0.502,-2.497 0.495,-2.467 0.491,-2.439 0.485,-2.412 0.477,-2.375 0.461,-2.288 0.43,-2.139 0.388,-1.929 0.338,-1.681 0.298,-1.481 0.272,-1.353 0.26,-1.297 0.26,-1.298 0.262,-1.311 0.264,-1.321 0.266,-1.33 0.266,-1.336 0.267,-1.341 0.268,-1.344 0.267,-1.344 0.267,-1.343 0.266,-1.34 0.265,-1.334 0.263,-1.328 0.261,-1.319 0.258,-1.307 0.256,-1.295 0.253,-1.28 0.249,-1.263 0.245,-1.244 0.24,-1.224 0.236,-1.2 0.231,-1.177 0.225,-1.149 0.22,-1.122 0.213,-1.09 0.206,-1.059 0.2,-1.024 0.192,-0.988 0.184,-0.949 0.177,-0.911 0.171,-0.882 0.169,-0.861 0.169,-0.851 0.172,-0.849 0.175,-0.845 0.18,-0.837 0.182,-0.825 0.187,-0.809 0.191,-0.794 0.194,-0.777 0.198,-0.76 0.201,-0.744 0.205,-0.726 0.209,-0.709 0.211,-0.692 0.215,-0.673 0.218,-0.656 0.221,-0.638 0.224,-0.619 0.227,-0.601 0.229,-0.581 0.232,-0.563 0.235,-0.543 0.237,-0.524 0.24,-0.504 0.242,-0.484 0.244,-0.464 0.246,-0.443 0.248,-0.423 0.251,-0.402 0.252,-0.381 0.261,-0.363 0.307,-0.366 0.395,-0.392 0.521,-0.438 0.697,-0.507 0.817,-0.537 0.894,-0.531 0.921,-0.485 0.911,-0.409 0.902,-0.339 0.905,-0.283 0.921,-0.244 0.946,-0.216 0.971,-0.191 0.99,-0.166 1.007,-0.14 1.019,-0.117 1.027,-0.091 1.032,-0.066 1.032,-0.042 1.028,-0.018 1.021,0.008 1.009,0.031 0.993,0.056 0.974,0.08 0.95,0.104 0.922,0.128 0.891,0.153 0.856,0.176 0.816,0.2 0.772,0.224 0.725,0.248 0.673,0.271 0.618,0.295 0.559,0.319 0.495,0.341 0.429,0.366 0.365,0.395 0.303,0.427 0.247,0.463 0.188,0.511 0.143,0.565 0.1,0.632 0.065,0.712 0.036,0.804 0.006,0.901 -0.024,1.003 -0.055,1.112 -0.087,1.224 -0.119,1.342 -0.153,1.465 -0.187,1.594 -0.223,1.727 -0.259,1.866 -0.296,2.009 -0.334,2.157 -0.373,2.312 -0.413,2.47 -0.452,2.635 -0.495,2.804 -0.537,2.978 -0.579,3.157 -0.624,3.342 -0.669,3.532 -0.714,3.726 -0.761,3.926 -0.809,4.131 -0.857,4.341 -0.906,4.557 -0.956,4.777 -1.007,5.002 -1.059,5.233 -1.101,5.416 -1.089,5.346 -1.014,4.967 -0.875,4.283 -0.691,3.379 -0.532,2.613 -0.421,2.071 -0.353,1.755 -0.325,1.626 -0.304,1.538 -0.283,1.451 -0.262,1.367 -0.242,1.286 -0.222,1.207 -0.202,1.13 -0.182,1.055 -0.163,0.985 -0.143,0.915 -0.125,0.848 -0.106,0.784 -0.087,0.722 -0.069,0.663 -0.051,0.605 -0.034,0.551 -0.014,0.501 0.012,0.458 0.047,0.427 0.089,0.405 0.14,0.388 0.189,0.353 0.236,0.296 0.28,0.216 0.324,0.116 0.377,0.008 0.437,-0.104 0.508,-0.221 0.581,-0.336 0.628,-0.42 0.641,-0.47 0.621,-0.481 0.577,-0.467 0.54,-0.454 0.524,-0.454 0.524,-0.466 0.54,-0.487 0.558,-0.51 0.574,-0.533 0.591,-0.553 0.606,-0.574 0.621,-0.594 0.635,-0.613 0.647,-0.631 0.659,-0.648 0.67,-0.665 0.681,-0.681 0.69,-0.695 0.698,-0.71 0.707,-0.724 0.713,-0.736 0.719,-0.748 0.725,-0.76 0.731,-0.771 0.739,-0.783 0.747,-0.797 0.758,-0.809 0.768,-0.824 0.781,-0.837 0.793,-0.851 0.806,-0.865 0.818,-0.878 0.83,-0.889 0.84,-0.899"
         id="path8"
         style="fill:#5285cc;fill-opacity:1;stroke:#5285cc;stroke-width:1;stroke-miterlimit:4;stroke-dasharray:none;stroke-opacity:1"
         inkscape:label="K"
         sodipodi:insensitive="true" />
      <path
         fill="none"
         stroke-width="3"
         stroke-linecap="butt"
         stroke-opacity="1"
         stroke="#000000"
         stroke-linejoin="round"
         d="m 258.093,382.354 2.916,-1.098 2.952,-1.095 2.985,-1.091 3.015,-1.088 3.043,-1.082 3.069,-1.078 3.094,-1.071 3.115,-1.064 3.135,-1.056 3.153,-1.048 3.169,-1.039 3.185,-1.03 3.197,-1.019 3.208,-1.008 3.219,-0.995 3.227,-0.984 3.235,-0.97 3.24,-0.956 3.244,-0.941 3.248,-0.925 3.249,-0.909 3.252,-0.891 3.252,-0.871 3.253,-0.848 3.254,-0.825 3.25,-0.799 3.244,-0.773 3.235,-0.745 3.222,-0.717 3.204,-0.689 3.18,-0.661 3.151,-0.635 3.115,-0.608 3.076,-0.581 3.03,-0.557 2.979,-0.532 2.922,-0.507 2.859,-0.484 2.792,-0.461 2.719,-0.438 2.665,-0.421 2.73,-0.432 2.941,-0.475 3.295,-0.55 3.767,-0.645 4.253,-0.705 4.723,-0.716 5.181,-0.681 5.59,-0.607 5.819,-0.541 5.834,-0.492 5.635,-0.461 5.234,-0.45 4.687,-0.465 4.006,-0.506 3.232,-0.572 2.267,-0.706 1.593,-0.994 1.112,-1.482 0.864,-2.166 0.808,-2.968 0.782,-3.584 0.743,-3.938 0.692,-4.029 0.629,-3.89 0.555,-3.657 0.472,-3.36 0.378,-3.002 0.242,-2.595 -0.074,-2.193 -0.6,-1.808 -1.297,-1.458 -2.246,-1.087 -2.887,-0.807 -3.304,-0.567 -3.453,-0.382 -3.422,-0.241 -3.552,-0.123 -3.93,-0.016 -4.553,0.078 -5.335,0.163 -5.92,0.266 -6.219,0.392 -6.233,0.54 -5.996,0.697 -5.65,0.805 -5.234,0.851 -4.745,0.834 -4.217,0.769 -3.795,0.706 -3.51,0.657 -3.363,0.623 -3.337,0.604 -3.357,0.605 -3.404,0.622 -3.48,0.657 -3.578,0.708 -3.678,0.764 -3.775,0.82 -3.869,0.878 -3.96,0.939 -4.049,0.999 -4.133,1.062 -4.216,1.127 -4.291,1.189 -4.333,1.242 -4.34,1.282 -4.309,1.309 -4.253,1.325 -4.212,1.346 -4.194,1.371 -4.203,1.404 -4.234,1.442 -4.268,1.483 -4.304,1.525 -4.34,1.569 -4.378,1.616 -4.417,1.665 -4.456,1.715 -4.496,1.767 -4.536,1.821 -4.577,1.877 -4.614,1.935 -4.65,1.995 -4.685,2.056 -4.716,2.12 -4.743,2.185 -4.766,2.252 -4.787,2.322 -4.803,2.392 -4.816,2.465 -4.826,2.541 -4.832,2.617 -4.836,2.696 -4.836,2.778 -4.834,2.862 -4.829,2.948 -4.823,3.037 -4.814,3.128 -4.806,3.223 -4.789,3.318 -4.746,3.409 -4.668,3.492 -4.557,3.568 -4.413,3.636 -4.235,3.696 -4.023,3.744 -3.776,3.782 -3.5,3.813 -3.22,3.839 -2.938,3.866 -2.654,3.891 -2.371,3.915 -2.087,3.936 -1.803,3.956 -1.517,3.974 -1.232,3.988 -0.947,4.001 -0.661,4.009 -0.375,4.015 -0.091,4.018 0.195,4.018 0.479,4.013 0.763,4.006 1.048,3.995 1.332,3.98 1.615,3.963 1.899,3.942 2.181,3.916 2.465,3.888 2.746,3.855 3.029,3.819 3.311,3.779 3.592,3.735 3.874,3.687 4.156,3.635 4.413,3.568 4.561,3.449 4.572,3.266 4.449,3.02 4.227,2.731 4.046,2.483 3.943,2.296 3.915,2.169 3.951,2.093 3.995,2.029 4.034,1.966 4.067,1.905 4.096,1.846 4.117,1.788 4.136,1.731 4.148,1.678 4.154,1.624 4.157,1.574 4.154,1.525 4.146,1.477 4.134,1.432 4.116,1.388 4.094,1.346 4.067,1.306 4.036,1.268 4.001,1.232 3.96,1.197 3.916,1.165 3.868,1.134 3.815,1.105 3.758,1.079 3.698,1.053 3.634,1.031 3.566,1.009 3.494,0.991 3.417,0.973 3.352,0.961 3.357,0.973 3.445,1.011 3.619,1.075 3.855,1.158 4.065,1.224 4.229,1.264 4.344,1.281 4.418,1.275 4.478,1.27 4.529,1.269 4.573,1.271 4.608,1.277 4.635,1.287 4.654,1.302 4.665,1.319 4.666,1.342 4.661,1.368 4.645,1.397 4.623,1.432 4.591,1.47 4.552,1.511 4.503,1.557 4.448,1.607 4.382,1.66 4.31,1.719 4.229,1.779 4.139,1.846 4.039,1.913 3.922,1.979 3.785,2.038 3.628,2.093 3.438,2.128 3.168,2.079 2.802,1.932 2.342,1.686 1.824,1.372 1.393,1.105 1.084,0.919 0.9,0.81 0.82,0.77 0.776,0.752 0.749,0.746 0.738,0.752 0.739,0.763 0.72,0.756 0.677,0.724 0.607,0.669 0.518,0.594 0.431,0.526 0.351,0.47 0.28,0.424 0.215,0.392 0.142,0.371 0.061,0.363 -0.028,0.368 -0.123,0.384 -0.213,0.404 -0.293,0.426 -0.366,0.451 -0.432,0.478 -0.491,0.504 -0.549,0.527 -0.602,0.548 -0.653,0.567 -0.698,0.585 -0.742,0.599 -0.781,0.611 -0.817,0.623 -0.85,0.631 -0.878,0.637 -0.903,0.641 -0.926,0.643 -0.944,0.643 -0.958,0.641 -0.97,0.636 -0.977,0.63 -0.982,0.622 -0.983,0.61 -0.979,0.598 -0.974,0.582 -0.964,0.566 -0.95,0.546 -0.934,0.525 -0.91,0.5 -0.866,0.471 -0.799,0.433 -0.708,0.391 -0.603,0.345 -0.53,0.312 -0.496,0.296 -0.502,0.297 -0.541,0.312 -0.587,0.33 -0.631,0.345 -0.673,0.362 -0.713,0.376 -0.752,0.391 -0.79,0.405 -0.826,0.417 -0.861,0.43 -0.893,0.44 -0.924,0.452 -0.955,0.461 -0.983,0.471 -1.009,0.479 -1.035,0.488 -1.059,0.494 -1.08,0.5 -1.102,0.506 -1.121,0.511 -1.138,0.515 -1.154,0.519 -1.169,0.522 -1.182,0.523 -1.193,0.525 -1.203,0.525 -1.212,0.525 -1.219,0.524 -1.224,0.523 -1.272,0.538 -1.542,0.642 -2.078,0.85 -2.879,1.167 -3.857,1.551 -4.66,1.861 -5.2,2.061 -5.475,2.149 -5.53,2.147 -5.541,2.126 -5.553,2.108 -5.563,2.092 -5.575,2.077 -5.585,2.064 -5.597,2.053 -5.607,2.045 -5.618,2.037 -5.629,2.033 -5.639,2.028 -5.65,2.028 -5.661,2.028 -5.67,2.029 -5.681,2.034 -5.691,2.04 -5.701,2.048 -5.711,2.058 -5.721,2.069 -5.731,2.082 -5.741,2.098 -5.75,2.114 -5.76,2.134 -5.769,2.155 -5.779,2.177 -5.788,2.202 -5.797,2.229 -5.807,2.256 -5.772,2.269 -5.524,2.191 -5.017,2.006 -4.253,1.712 -3.312,1.345 -2.526,1.037 -1.975,0.821 -1.661,0.699 -1.543,0.655 -1.47,0.627 -1.402,0.605 -1.34,0.584 -1.285,0.566 -1.234,0.553 -1.19,0.541 -1.152,0.533 -1.119,0.528 -1.092,0.527 -1.07,0.528 -1.056,0.532 -1.045,0.539 -1.042,0.55 -1.044,0.563 -1.052,0.581 -1.065,0.6 -1.084,0.623 -1.11,0.648 -1.14,0.678 -1.177,0.71 -1.22,0.745 -1.268,0.784 -1.322,0.825 -1.382,0.869 -1.447,0.917 -1.519,0.968 -1.596,1.021 -1.67,1.073 -1.704,1.101 -1.689,1.099 -1.625,1.069 -1.525,1.016 -1.436,0.975 -1.372,0.953 -1.333,0.947 -1.315,0.959 -1.298,0.971 -1.281,0.982 -1.261,0.99 -1.24,0.997 -1.218,1.003 -1.193,1.007 -1.166,1.009 -1.139,1.008 -1.109,1.007 -1.078,1.004 -1.045,0.999 -1.011,0.992 -0.973,0.984 -0.936,0.973 -0.896,0.962 -0.855,0.947 -0.811,0.933 -0.767,0.915 -0.72,0.896 -0.672,0.875 -0.622,0.853 -0.57,0.829 -0.517,0.804 -0.462,0.775 -0.406,0.746 -0.346,0.715 -0.287,0.683 -0.224,0.648 -0.157,0.611 -0.081,0.575 -0.005,0.537 0.085,0.494 0.148,0.458 0.198,0.423 0.226,0.391 0.239,0.364 0.253,0.345 0.267,0.338 0.286,0.34 0.307,0.352 0.326,0.365 0.347,0.377 0.366,0.389 0.385,0.4 0.403,0.41 0.42,0.42 0.437,0.43 0.453,0.438 0.468,0.446 0.484,0.453 0.498,0.46 0.512,0.465 0.524,0.472 0.538,0.476 0.549,0.481 0.56,0.484 0.568,0.486 0.574,0.489 0.577,0.489 0.613,0.494 0.612,0.494 0.613,0.494 0.613,0.494 0.617,0.483 0.618,0.482 0.618,0.483 0.618,0.482 0.591,0.457 0.59,0.454 0.585,0.449 0.579,0.444 0.569,0.435 0.56,0.426 0.549,0.417 0.539,0.406 0.537,0.403 0.588,0.434 0.701,0.505 0.878,0.619 1.094,0.741 1.262,0.752 1.358,0.618 1.386,0.36 1.344,-0.051 1.268,-0.328 1.158,-0.497 1.018,-0.542 0.858,-0.486 0.732,-0.429 0.656,-0.395 0.628,-0.386 0.639,-0.397 0.658,-0.411 0.676,-0.425 0.694,-0.437 0.709,-0.45 0.726,-0.462 0.739,-0.474 0.754,-0.484 0.766,-0.495 0.779,-0.504 0.789,-0.514 0.8,-0.522 0.85,-0.555 1.106,-0.709 1.61,-1.008 2.36,-1.454 3.275,-1.99 4.023,-2.406 4.523,-2.646 4.773,-2.71 4.818,-2.628 4.82,-2.523 4.825,-2.423 4.829,-2.33 4.836,-2.243 4.843,-2.161 4.85,-2.085 4.86,-2.017 4.87,-1.954 4.88,-1.896 4.893,-1.846 4.906,-1.8 4.92,-1.762 4.934,-1.729 4.951,-1.702 4.968,-1.682 4.986,-1.666 5.005,-1.659 5.024,-1.656 5.046,-1.659 5.068,-1.67 5.091,-1.684 5.115,-1.707 5.139,-1.735 5.166,-1.768 5.193,-1.809 5.22,-1.854 5.25,-1.907 5.269,-1.957 5.236,-1.978 5.138,-1.961 4.979,-1.905 4.777,-1.824 4.624,-1.771 4.544,-1.756 4.534,-1.78 4.582,-1.838 4.633,-1.897 4.676,-1.954 4.708,-2.006 4.731,-2.055 4.744,-2.1 4.747,-2.141 4.74,-2.178 4.723,-2.212 4.698,-2.241 4.661,-2.267 4.617,-2.29 4.56,-2.307 4.495,-2.322 4.421,-2.332 4.336,-2.34 4.241,-2.342 4.137,-2.341 4.023,-2.337 3.9,-2.329 3.766,-2.316 3.622,-2.3 3.47,-2.28 3.306,-2.257 3.134,-2.229 2.952,-2.198 2.759,-2.163 2.558,-2.124 2.344,-2.076 2.116,-2.004 1.87,-1.899 1.607,-1.764 1.341,-1.614 1.12,-1.504 0.958,-1.45 0.854,-1.451 0.798,-1.5 0.752,-1.554 0.703,-1.606 0.654,-1.655 0.603,-1.7 0.55,-1.744 0.497,-1.784 0.441,-1.821 0.385,-1.855 0.327,-1.887 0.268,-1.915 0.207,-1.941 0.145,-1.963 0.082,-1.983 0.017,-2 -0.05,-2.014 -0.117,-2.024 -0.186,-2.033 -0.257,-2.038 -0.328,-2.041 -0.402,-2.039 -0.476,-2.037 -0.553,-2.029 -0.63,-2.021 -0.709,-2.008 -0.79,-1.993 -0.871,-1.974 -0.955,-1.954 -1.046,-1.936 -1.162,-1.948 -1.312,-1.994 -1.493,-2.076 -1.698,-2.181 -1.887,-2.26 -2.052,-2.301 -2.191,-2.304 -2.313,-2.276 -2.436,-2.244 -2.567,-2.217 -2.707,-2.193 -2.855,-2.172 -3.011,-2.156 -3.175,-2.142 -3.347,-2.133 -3.528,-2.128 -3.717,-2.125 -3.913,-2.126 -4.118,-2.132 -4.331,-2.14 -4.552,-2.152 -4.781,-2.169 -5.018,-2.187 -5.262,-2.211 -5.515,-2.236 -5.776,-2.267 -6.044,-2.3 -6.321,-2.338 -6.604,-2.377 -6.897,-2.421 -7.198,-2.468 -7.506,-2.519 -7.826,-2.572 -8.159,-2.629 -8.503,-2.689 -8.779,-2.729 -8.667,-2.659 -8.089,-2.456 -7.043,-2.119 -5.67,-1.691 -4.54,-1.34 -3.794,-1.11 -3.43,-0.998 -3.388,-0.986 -3.406,-0.995 -3.424,-1.004 -3.438,-1.014 -3.452,-1.024 -3.463,-1.035 -3.471,-1.047 -3.476,-1.059 -3.479,-1.071 -3.478,-1.085 -3.473,-1.098 -3.467,-1.113 -3.456,-1.127 -3.443,-1.143 -3.425,-1.158 -3.404,-1.175 -3.38,-1.192 -3.353,-1.209 -3.323,-1.228 -3.287,-1.245 -3.25,-1.265 -3.209,-1.284 -3.165,-1.305 -3.117,-1.324 -3.065,-1.346 -3.012,-1.368 -2.953,-1.389 -2.894,-1.412 -2.814,-1.425 -2.662,-1.39 -2.419,-1.299 -2.088,-1.148 -1.699,-0.961 -1.385,-0.811 -1.179,-0.72 -1.08,-0.688 -1.068,-0.704 -1.074,-0.727 -1.077,-0.749 -1.076,-0.77 -1.074,-0.788 -1.069,-0.804 -1.061,-0.819 -1.05,-0.833 -1.038,-0.843 -1.022,-0.853 -1.004,-0.86 -0.984,-0.867 -0.96,-0.87 -0.935,-0.873 -0.907,-0.873 -0.876,-0.872 -0.842,-0.869 -0.807,-0.864 -0.768,-0.858 -0.727,-0.85 -0.683,-0.84 -0.638,-0.829 -0.589,-0.815 -0.537,-0.8 -0.484,-0.784 -0.428,-0.766 -0.369,-0.746 -0.307,-0.723 -0.24,-0.717 -0.148,-0.788 -0.029,-0.955 0.118,-1.215 0.288,-1.541 0.469,-1.813 0.654,-1.998 0.844,-2.099 1.04,-2.129 1.227,-2.141 1.405,-2.151 1.575,-2.157 1.735,-2.159 1.886,-2.157 2.029,-2.153 2.162,-2.145 2.285,-2.134 2.4,-2.119 2.506,-2.102 2.603,-2.081 2.69,-2.058 2.768,-2.031 2.837,-2.002 2.896,-1.97 2.946,-1.934 2.986,-1.897 3.016,-1.856 3.037,-1.812 3.048,-1.765 3.049,-1.716 3.041,-1.663 3.023,-1.608 2.995,-1.55 2.959,-1.489 2.914,-1.425 2.858,-1.357 2.795,-1.29 2.725,-1.231 2.649,-1.184 2.568,-1.148 2.487,-1.123 2.439,-1.107 2.428,-1.096 2.455,-1.093 2.515,-1.094 2.577,-1.098 2.637,-1.1 2.691,-1.101 2.744,-1.102 2.792,-1.102 2.836,-1.101 2.878,-1.1"
         id="path2"
         style="fill:#5285cc;fill-opacity:1;stroke:#5285cc;stroke-width:1;stroke-miterlimit:4;stroke-dasharray:none;stroke-opacity:1"
         inkscape:label="S"
         sodipodi:insensitive="true" />
    </g>
  </g>
</svg>
